<?xml version="1.0" encoding="utf-8"?>
<!-- Generator: Adobe Illustrator 15.1.0, SVG Export Plug-In . SVG Version: 6.00 Build 0)  -->
<!DOCTYPE svg PUBLIC "-//W3C//DTD SVG 1.1//EN" "http://www.w3.org/Graphics/SVG/1.1/DTD/svg11.dtd">
<svg version="1.1" id="Layer_1" xmlns="http://www.w3.org/2000/svg" xmlns:xlink="http://www.w3.org/1999/xlink" x="0px" y="0px"
	 width="655.653px" height="444.579px" viewBox="0 0 655.653 444.579" enable-background="new 0 0 655.653 444.579"
	 xml:space="preserve">
<line fill="#010101" x1="134.75" y1="4.181" x2="238.696" y2="4.181"/>
<line fill="none" stroke="#010101" stroke-width="0.9189" stroke-linecap="round" stroke-miterlimit="10" x1="134.75" y1="4.181" x2="238.696" y2="4.181"/>
<line fill="#010101" x1="238.696" y1="4.181" x2="238.696" y2="6.858"/>
<line fill="none" stroke="#010101" stroke-width="0.9189" stroke-linecap="round" stroke-miterlimit="10" x1="238.696" y1="4.181" x2="238.696" y2="6.858"/>
<line fill="#010101" x1="238.696" y1="6.858" x2="247.172" y2="6.858"/>
<line fill="none" stroke="#010101" stroke-width="0.9189" stroke-linecap="round" stroke-miterlimit="10" x1="238.696" y1="6.858" x2="247.172" y2="6.858"/>
<line fill="#010101" x1="247.172" y1="6.858" x2="247.172" y2="16.227"/>
<line fill="none" stroke="#010101" stroke-width="0.9189" stroke-linecap="round" stroke-miterlimit="10" x1="247.172" y1="6.858" x2="247.172" y2="16.227"/>
<line fill="#010101" x1="247.172" y1="16.227" x2="257.879" y2="16.227"/>
<line fill="none" stroke="#010101" stroke-width="0.9189" stroke-linecap="round" stroke-miterlimit="10" x1="247.172" y1="16.227" x2="257.879" y2="16.227"/>
<line fill="#010101" x1="257.879" y1="16.227" x2="257.879" y2="27.379"/>
<line fill="none" stroke="#010101" stroke-width="0.9189" stroke-linecap="round" stroke-miterlimit="10" x1="257.879" y1="16.227" x2="257.879" y2="27.379"/>
<line fill="#010101" x1="257.879" y1="27.379" x2="261.448" y2="27.379"/>
<line fill="none" stroke="#010101" stroke-width="0.9189" stroke-linecap="round" stroke-miterlimit="10" x1="257.879" y1="27.379" x2="261.448" y2="27.379"/>
<line fill="#010101" x1="261.448" y1="27.379" x2="261.448" y2="63.517"/>
<line fill="none" stroke="#010101" stroke-width="0.9189" stroke-linecap="round" stroke-miterlimit="10" x1="261.448" y1="27.379" x2="261.448" y2="63.517"/>
<line fill="#010101" x1="261.448" y1="63.517" x2="245.834" y2="63.517"/>
<line fill="none" stroke="#010101" stroke-width="0.9189" stroke-linecap="round" stroke-miterlimit="10" x1="261.448" y1="63.517" x2="245.834" y2="63.517"/>
<line fill="#010101" x1="245.834" y1="63.517" x2="245.834" y2="85.822"/>
<line fill="none" stroke="#010101" stroke-width="0.9189" stroke-linecap="round" stroke-miterlimit="10" x1="245.834" y1="63.517" x2="245.834" y2="85.822"/>
<line fill="#010101" x1="261.448" y1="85.822" x2="261.448" y2="76.452"/>
<line fill="none" stroke="#010101" stroke-width="0.9189" stroke-linecap="round" stroke-miterlimit="10" x1="261.448" y1="85.822" x2="261.448" y2="76.452"/>
<line fill="#010101" x1="261.448" y1="76.452" x2="270.817" y2="76.452"/>
<line fill="none" stroke="#010101" stroke-width="0.9189" stroke-linecap="round" stroke-miterlimit="10" x1="261.448" y1="76.452" x2="270.817" y2="76.452"/>
<line fill="#010101" x1="270.817" y1="76.452" x2="270.817" y2="73.777"/>
<line fill="none" stroke="#010101" stroke-width="0.9189" stroke-linecap="round" stroke-miterlimit="10" x1="270.817" y1="76.452" x2="270.817" y2="73.777"/>
<line fill="#010101" x1="270.817" y1="73.777" x2="372.086" y2="73.777"/>
<line fill="none" stroke="#010101" stroke-width="0.9189" stroke-linecap="round" stroke-miterlimit="10" x1="270.817" y1="73.777" x2="372.087" y2="73.777"/>
<line fill="#010101" x1="372.086" y1="73.777" x2="372.086" y2="76.452"/>
<line fill="none" stroke="#010101" stroke-width="0.9189" stroke-linecap="round" stroke-miterlimit="10" x1="372.087" y1="73.777" x2="372.087" y2="76.452"/>
<line fill="#010101" x1="372.086" y1="76.452" x2="379.67" y2="76.452"/>
<line fill="none" stroke="#010101" stroke-width="0.9189" stroke-linecap="round" stroke-miterlimit="10" x1="372.087" y1="76.452" x2="379.67" y2="76.452"/>
<line fill="#010101" x1="379.67" y1="76.452" x2="379.67" y2="85.822"/>
<line fill="none" stroke="#010101" stroke-width="0.9189" stroke-linecap="round" stroke-miterlimit="10" x1="379.67" y1="76.452" x2="379.67" y2="85.822"/>
<line fill="#010101" x1="396.177" y1="85.822" x2="396.177" y2="76.452"/>
<line fill="none" stroke="#010101" stroke-width="0.9189" stroke-linecap="round" stroke-miterlimit="10" x1="396.177" y1="85.822" x2="396.177" y2="76.452"/>
<line fill="#010101" x1="396.177" y1="76.452" x2="406.438" y2="76.452"/>
<line fill="none" stroke="#010101" stroke-width="0.9189" stroke-linecap="round" stroke-miterlimit="10" x1="396.177" y1="76.452" x2="406.438" y2="76.452"/>
<line fill="#010101" x1="406.438" y1="76.452" x2="406.438" y2="73.777"/>
<line fill="none" stroke="#010101" stroke-width="0.9189" stroke-linecap="round" stroke-miterlimit="10" x1="406.438" y1="76.452" x2="406.438" y2="73.777"/>
<line fill="#010101" x1="406.438" y1="73.777" x2="505.923" y2="73.777"/>
<line fill="none" stroke="#010101" stroke-width="0.9189" stroke-linecap="round" stroke-miterlimit="10" x1="406.438" y1="73.777" x2="505.923" y2="73.777"/>
<line fill="#010101" x1="505.923" y1="73.777" x2="505.923" y2="76.452"/>
<line fill="none" stroke="#010101" stroke-width="0.9189" stroke-linecap="round" stroke-miterlimit="10" x1="505.923" y1="73.777" x2="505.923" y2="76.452"/>
<line fill="#010101" x1="505.923" y1="76.452" x2="514.846" y2="76.452"/>
<line fill="none" stroke="#010101" stroke-width="0.9189" stroke-linecap="round" stroke-miterlimit="10" x1="505.923" y1="76.452" x2="514.846" y2="76.452"/>
<line fill="#010101" x1="514.846" y1="76.452" x2="514.846" y2="85.822"/>
<line fill="none" stroke="#010101" stroke-width="0.9189" stroke-linecap="round" stroke-miterlimit="10" x1="514.846" y1="76.452" x2="514.846" y2="85.822"/>
<line fill="#010101" x1="514.846" y1="85.822" x2="517.969" y2="85.822"/>
<line fill="none" stroke="#010101" stroke-width="0.9189" stroke-linecap="round" stroke-miterlimit="10" x1="514.846" y1="85.822" x2="517.969" y2="85.822"/>
<line fill="#010101" x1="517.969" y1="403.015" x2="385.471" y2="403.015"/>
<line fill="none" stroke="#010101" stroke-width="0.9189" stroke-linecap="round" stroke-miterlimit="10" x1="517.969" y1="403.015" x2="385.471" y2="403.015"/>
<line fill="#010101" x1="385.471" y1="403.015" x2="385.471" y2="410.153"/>
<line fill="none" stroke="#010101" stroke-width="0.9189" stroke-linecap="round" stroke-miterlimit="10" x1="385.471" y1="403.015" x2="385.471" y2="410.153"/>
<line fill="#010101" x1="385.471" y1="410.153" x2="249.849" y2="410.153"/>
<line fill="none" stroke="#010101" stroke-width="0.9189" stroke-linecap="round" stroke-miterlimit="10" x1="385.471" y1="410.153" x2="249.849" y2="410.153"/>
<line fill="#010101" x1="249.849" y1="350.371" x2="255.648" y2="350.371"/>
<line fill="none" stroke="#010101" stroke-width="0.9189" stroke-linecap="round" stroke-miterlimit="10" x1="249.849" y1="350.371" x2="255.648" y2="350.371"/>
<line fill="#010101" x1="255.648" y1="350.371" x2="255.648" y2="279.438"/>
<line fill="none" stroke="#010101" stroke-width="0.9189" stroke-linecap="round" stroke-miterlimit="10" x1="255.648" y1="350.371" x2="255.648" y2="279.438"/>
<line fill="#010101" x1="255.648" y1="279.438" x2="269.924" y2="279.438"/>
<line fill="none" stroke="#010101" stroke-width="0.9189" stroke-linecap="round" stroke-miterlimit="10" x1="255.648" y1="279.438" x2="269.924" y2="279.438"/>
<line fill="#010101" x1="269.924" y1="252.226" x2="256.542" y2="252.226"/>
<line fill="none" stroke="#010101" stroke-width="0.9189" stroke-linecap="round" stroke-miterlimit="10" x1="269.924" y1="252.226" x2="256.542" y2="252.226"/>
<line fill="#010101" x1="256.542" y1="252.226" x2="256.542" y2="222.782"/>
<line fill="none" stroke="#010101" stroke-width="0.9189" stroke-linecap="round" stroke-miterlimit="10" x1="256.542" y1="252.226" x2="256.542" y2="222.782"/>
<line fill="#010101" x1="256.542" y1="222.782" x2="248.957" y2="222.782"/>
<line fill="none" stroke="#010101" stroke-width="0.9189" stroke-linecap="round" stroke-miterlimit="10" x1="256.542" y1="222.782" x2="248.957" y2="222.782"/>
<line fill="#010101" x1="248.957" y1="222.782" x2="248.957" y2="212.521"/>
<line fill="none" stroke="#010101" stroke-width="0.9189" stroke-linecap="round" stroke-miterlimit="10" x1="248.957" y1="222.782" x2="248.957" y2="212.521"/>
<line fill="#010101" x1="248.957" y1="212.521" x2="256.542" y2="212.521"/>
<line fill="none" stroke="#010101" stroke-width="0.9189" stroke-linecap="round" stroke-miterlimit="10" x1="248.957" y1="212.521" x2="256.542" y2="212.521"/>
<line fill="#010101" x1="256.542" y1="212.521" x2="256.542" y2="182.63"/>
<line fill="none" stroke="#010101" stroke-width="0.9189" stroke-linecap="round" stroke-miterlimit="10" x1="256.542" y1="212.521" x2="256.542" y2="182.63"/>
<line fill="#010101" x1="256.542" y1="182.63" x2="272.155" y2="182.63"/>
<line fill="none" stroke="#010101" stroke-width="0.9189" stroke-linecap="round" stroke-miterlimit="10" x1="256.542" y1="182.63" x2="272.155" y2="182.63"/>
<line fill="#010101" x1="272.155" y1="150.063" x2="256.542" y2="150.063"/>
<line fill="none" stroke="#010101" stroke-width="0.9189" stroke-linecap="round" stroke-miterlimit="10" x1="272.155" y1="150.063" x2="256.542" y2="150.063"/>
<line fill="#010101" x1="256.542" y1="150.063" x2="256.542" y2="85.822"/>
<line fill="none" stroke="#010101" stroke-width="0.9189" stroke-linecap="round" stroke-miterlimit="10" x1="256.542" y1="150.063" x2="256.542" y2="85.822"/>
<line fill="#010101" x1="256.542" y1="85.822" x2="261.448" y2="85.822"/>
<line fill="none" stroke="#010101" stroke-width="0.9189" stroke-linecap="round" stroke-miterlimit="10" x1="256.542" y1="85.822" x2="261.448" y2="85.822"/>
<line fill="#010101" x1="245.834" y1="85.822" x2="256.542" y2="85.822"/>
<line fill="none" stroke="#010101" stroke-width="0.9189" stroke-linecap="round" stroke-miterlimit="10" x1="245.834" y1="85.822" x2="256.542" y2="85.822"/>
<line fill="#010101" x1="379.67" y1="85.822" x2="387.254" y2="85.822"/>
<line fill="none" stroke="#010101" stroke-width="0.9189" stroke-linecap="round" stroke-miterlimit="10" x1="379.67" y1="85.822" x2="387.254" y2="85.822"/>
<line fill="#010101" x1="387.254" y1="85.822" x2="396.177" y2="85.822"/>
<line fill="none" stroke="#010101" stroke-width="0.9189" stroke-linecap="round" stroke-miterlimit="10" x1="387.254" y1="85.822" x2="396.177" y2="85.822"/>
<line fill="#010101" x1="387.254" y1="85.822" x2="387.254" y2="153.632"/>
<line fill="none" stroke="#010101" stroke-width="0.9189" stroke-linecap="round" stroke-miterlimit="10" x1="387.254" y1="85.822" x2="387.254" y2="153.632"/>
<line fill="#010101" x1="387.254" y1="153.632" x2="372.086" y2="153.632"/>
<line fill="none" stroke="#010101" stroke-width="0.9189" stroke-linecap="round" stroke-miterlimit="10" x1="387.254" y1="153.632" x2="372.087" y2="153.632"/>
<line fill="#010101" x1="372.086" y1="179.508" x2="387.254" y2="179.508"/>
<line fill="none" stroke="#010101" stroke-width="0.9189" stroke-linecap="round" stroke-miterlimit="10" x1="372.087" y1="179.508" x2="387.254" y2="179.508"/>
<line fill="#010101" x1="387.254" y1="179.508" x2="387.254" y2="212.521"/>
<line fill="none" stroke="#010101" stroke-width="0.9189" stroke-linecap="round" stroke-miterlimit="10" x1="387.254" y1="179.508" x2="387.254" y2="212.521"/>
<line fill="#010101" x1="387.254" y1="212.521" x2="393.946" y2="212.521"/>
<line fill="none" stroke="#010101" stroke-width="0.9189" stroke-linecap="round" stroke-miterlimit="10" x1="387.254" y1="212.521" x2="393.946" y2="212.521"/>
<line fill="#010101" x1="393.946" y1="212.521" x2="393.946" y2="223.673"/>
<line fill="none" stroke="#010101" stroke-width="0.9189" stroke-linecap="round" stroke-miterlimit="10" x1="393.946" y1="212.521" x2="393.946" y2="223.673"/>
<line fill="#010101" x1="393.946" y1="223.673" x2="387.254" y2="223.673"/>
<line fill="none" stroke="#010101" stroke-width="0.9189" stroke-linecap="round" stroke-miterlimit="10" x1="393.946" y1="223.673" x2="387.254" y2="223.673"/>
<line fill="#010101" x1="387.254" y1="223.673" x2="387.254" y2="253.564"/>
<line fill="none" stroke="#010101" stroke-width="0.9189" stroke-linecap="round" stroke-miterlimit="10" x1="387.254" y1="223.673" x2="387.254" y2="253.564"/>
<line fill="#010101" x1="387.254" y1="253.564" x2="372.086" y2="253.564"/>
<line fill="none" stroke="#010101" stroke-width="0.9189" stroke-linecap="round" stroke-miterlimit="10" x1="387.254" y1="253.564" x2="372.087" y2="253.564"/>
<line fill="#010101" x1="372.086" y1="279.438" x2="385.025" y2="279.438"/>
<line fill="none" stroke="#010101" stroke-width="0.9189" stroke-linecap="round" stroke-miterlimit="10" x1="372.087" y1="279.438" x2="385.025" y2="279.438"/>
<line fill="#010101" x1="385.025" y1="279.438" x2="385.025" y2="351.71"/>
<line fill="none" stroke="#010101" stroke-width="0.9189" stroke-linecap="round" stroke-miterlimit="10" x1="385.025" y1="279.438" x2="385.025" y2="351.71"/>
<line fill="#010101" x1="385.025" y1="351.71" x2="385.471" y2="403.015"/>
<line fill="none" stroke="#010101" stroke-width="0.9189" stroke-linecap="round" stroke-miterlimit="10" x1="385.025" y1="351.71" x2="385.471" y2="403.015"/>
<line fill="#010101" x1="385.025" y1="351.71" x2="517.969" y2="351.71"/>
<line fill="none" stroke="#010101" stroke-width="0.9189" stroke-linecap="round" stroke-miterlimit="10" x1="385.025" y1="351.71" x2="517.969" y2="351.71"/>
<line fill="#010101" x1="269.924" y1="266.502" x2="269.924" y2="279.438"/>
<line fill="none" stroke="#010101" stroke-width="0.9189" stroke-linecap="round" stroke-miterlimit="10" x1="269.924" y1="266.502" x2="269.924" y2="279.438"/>
<line fill="#010101" x1="517.969" y1="351.71" x2="517.969" y2="403.015"/>
<line fill="none" stroke="#010101" stroke-width="0.9189" stroke-linecap="round" stroke-miterlimit="10" x1="517.969" y1="351.71" x2="517.969" y2="403.015"/>
<line fill="#010101" x1="419.821" y1="78.237" x2="490.754" y2="78.237"/>
<line fill="none" stroke="#010101" stroke-width="0.9189" stroke-linecap="round" stroke-miterlimit="10" x1="419.821" y1="78.237" x2="490.754" y2="78.237"/>
<line fill="#010101" x1="388.147" y1="354.388" x2="388.147" y2="363.311"/>
<line fill="none" stroke="#010101" stroke-width="0.9189" stroke-linecap="round" stroke-miterlimit="10" x1="388.147" y1="354.388" x2="388.147" y2="363.311"/>
<line fill="#010101" x1="388.147" y1="363.311" x2="515.292" y2="363.311"/>
<line fill="none" stroke="#010101" stroke-width="0.9189" stroke-linecap="round" stroke-miterlimit="10" x1="388.147" y1="363.311" x2="515.292" y2="363.311"/>
<line fill="#010101" x1="515.292" y1="363.311" x2="515.292" y2="354.388"/>
<line fill="none" stroke="#010101" stroke-width="0.9189" stroke-linecap="round" stroke-miterlimit="10" x1="515.292" y1="363.311" x2="515.292" y2="354.388"/>
<line fill="#010101" x1="515.292" y1="354.388" x2="388.147" y2="354.388"/>
<line fill="none" stroke="#010101" stroke-width="0.9189" stroke-linecap="round" stroke-miterlimit="10" x1="515.292" y1="354.388" x2="388.147" y2="354.388"/>
<line fill="#010101" x1="492.093" y1="371.787" x2="510.83" y2="371.787"/>
<line fill="none" stroke="#010101" stroke-width="0.9189" stroke-linecap="round" stroke-miterlimit="10" x1="492.093" y1="371.787" x2="510.83" y2="371.787"/>
<line fill="#010101" x1="510.83" y1="371.787" x2="510.83" y2="393.199"/>
<line fill="none" stroke="#010101" stroke-width="0.9189" stroke-linecap="round" stroke-miterlimit="10" x1="510.83" y1="371.787" x2="510.83" y2="393.199"/>
<line fill="#010101" x1="510.83" y1="393.199" x2="492.093" y2="393.199"/>
<line fill="none" stroke="#010101" stroke-width="0.9189" stroke-linecap="round" stroke-miterlimit="10" x1="510.83" y1="393.199" x2="492.093" y2="393.199"/>
<line fill="#010101" x1="492.093" y1="393.199" x2="492.093" y2="371.787"/>
<line fill="none" stroke="#010101" stroke-width="0.9189" stroke-linecap="round" stroke-miterlimit="10" x1="492.093" y1="393.199" x2="492.093" y2="371.787"/>
<line fill="#010101" x1="269.924" y1="252.226" x2="269.924" y2="266.502"/>
<line fill="none" stroke="#010101" stroke-width="0.9189" stroke-linecap="round" stroke-miterlimit="10" x1="269.924" y1="252.226" x2="269.924" y2="266.502"/>
<line fill="#010101" x1="517.969" y1="266.502" x2="517.969" y2="351.71"/>
<line fill="none" stroke="#010101" stroke-width="0.9189" stroke-linecap="round" stroke-miterlimit="10" x1="517.969" y1="266.502" x2="517.969" y2="351.71"/>
<line fill="#010101" x1="517.969" y1="266.502" x2="372.086" y2="266.502"/>
<line fill="none" stroke="#010101" stroke-width="0.9189" stroke-linecap="round" stroke-miterlimit="10" stroke-dasharray="0.4595,2.2973" x1="517.969" y1="266.502" x2="372.087" y2="266.502"/>
<line fill="#010101" x1="372.086" y1="253.564" x2="372.086" y2="266.502"/>
<line fill="none" stroke="#010101" stroke-width="0.9189" stroke-linecap="round" stroke-miterlimit="10" x1="372.087" y1="253.564" x2="372.087" y2="266.502"/>
<line fill="#010101" x1="372.086" y1="266.502" x2="372.086" y2="279.438"/>
<line fill="none" stroke="#010101" stroke-width="0.9189" stroke-linecap="round" stroke-miterlimit="10" x1="372.087" y1="266.502" x2="372.087" y2="279.438"/>
<line fill="#010101" x1="517.969" y1="85.822" x2="517.969" y2="167.462"/>
<line fill="none" stroke="#010101" stroke-width="0.9189" stroke-linecap="round" stroke-miterlimit="10" x1="517.969" y1="85.822" x2="517.969" y2="167.462"/>
<line fill="#010101" x1="517.969" y1="167.462" x2="517.969" y2="266.502"/>
<line fill="none" stroke="#010101" stroke-width="0.9189" stroke-linecap="round" stroke-miterlimit="10" x1="517.969" y1="167.462" x2="517.969" y2="266.502"/>
<line fill="#010101" x1="517.969" y1="167.462" x2="372.086" y2="167.462"/>
<line fill="none" stroke="#010101" stroke-width="0.9189" stroke-linecap="round" stroke-miterlimit="10" stroke-dasharray="0.4595,2.2973" x1="517.969" y1="167.462" x2="372.087" y2="167.462"/>
<line fill="#010101" x1="372.086" y1="167.462" x2="372.086" y2="179.508"/>
<line fill="none" stroke="#010101" stroke-width="0.9189" stroke-linecap="round" stroke-miterlimit="10" x1="372.087" y1="167.462" x2="372.087" y2="179.508"/>
<line fill="#010101" x1="372.086" y1="153.632" x2="372.086" y2="167.462"/>
<line fill="none" stroke="#010101" stroke-width="0.9189" stroke-linecap="round" stroke-miterlimit="10" x1="372.087" y1="153.632" x2="372.087" y2="167.462"/>
<line fill="#010101" x1="272.155" y1="182.63" x2="272.155" y2="165.232"/>
<line fill="none" stroke="#010101" stroke-width="0.9189" stroke-linecap="round" stroke-miterlimit="10" x1="272.155" y1="182.63" x2="272.155" y2="165.232"/>
<line fill="#010101" x1="272.155" y1="165.232" x2="272.155" y2="150.063"/>
<line fill="none" stroke="#010101" stroke-width="0.9189" stroke-linecap="round" stroke-miterlimit="10" x1="272.155" y1="165.232" x2="272.155" y2="150.063"/>
<line fill="#010101" x1="134.75" y1="4.181" x2="134.75" y2="6.858"/>
<line fill="none" stroke="#010101" stroke-width="0.9189" stroke-linecap="round" stroke-miterlimit="10" x1="134.75" y1="4.181" x2="134.75" y2="6.858"/>
<line fill="#010101" x1="134.75" y1="6.858" x2="125.381" y2="6.858"/>
<line fill="none" stroke="#010101" stroke-width="0.9189" stroke-linecap="round" stroke-miterlimit="10" x1="134.75" y1="6.858" x2="125.381" y2="6.858"/>
<line fill="#010101" x1="125.381" y1="6.858" x2="125.381" y2="16.227"/>
<line fill="none" stroke="#010101" stroke-width="0.9189" stroke-linecap="round" stroke-miterlimit="10" x1="125.381" y1="6.858" x2="125.381" y2="16.227"/>
<line fill="#010101" x1="125.381" y1="16.227" x2="115.12" y2="16.227"/>
<line fill="none" stroke="#010101" stroke-width="0.9189" stroke-linecap="round" stroke-miterlimit="10" x1="125.381" y1="16.227" x2="115.12" y2="16.227"/>
<line fill="#010101" x1="115.12" y1="16.227" x2="115.12" y2="27.379"/>
<line fill="none" stroke="#010101" stroke-width="0.9189" stroke-linecap="round" stroke-miterlimit="10" x1="115.12" y1="16.227" x2="115.12" y2="27.379"/>
<line fill="#010101" x1="115.12" y1="27.379" x2="111.998" y2="27.379"/>
<line fill="none" stroke="#010101" stroke-width="0.9189" stroke-linecap="round" stroke-miterlimit="10" x1="115.12" y1="27.379" x2="111.998" y2="27.379"/>
<line fill="#010101" x1="111.998" y1="27.379" x2="111.998" y2="63.07"/>
<line fill="none" stroke="#010101" stroke-width="0.9189" stroke-linecap="round" stroke-miterlimit="10" x1="111.998" y1="27.379" x2="111.998" y2="63.07"/>
<line fill="#010101" x1="111.998" y1="63.07" x2="125.827" y2="63.07"/>
<line fill="none" stroke="#010101" stroke-width="0.9189" stroke-linecap="round" stroke-miterlimit="10" x1="111.998" y1="63.07" x2="125.827" y2="63.07"/>
<line fill="#010101" x1="125.827" y1="307.1" x2="107.982" y2="307.1"/>
<line fill="none" stroke="#010101" stroke-width="0.9189" stroke-linecap="round" stroke-miterlimit="10" x1="125.827" y1="307.1" x2="107.982" y2="307.1"/>
<line fill="#010101" x1="107.982" y1="307.1" x2="107.982" y2="358.402"/>
<line fill="none" stroke="#010101" stroke-width="0.9189" stroke-linecap="round" stroke-miterlimit="10" x1="107.982" y1="307.1" x2="107.982" y2="358.402"/>
<line fill="#010101" x1="107.982" y1="358.402" x2="113.782" y2="358.402"/>
<line fill="none" stroke="#010101" stroke-width="0.9189" stroke-linecap="round" stroke-miterlimit="10" x1="107.982" y1="358.402" x2="113.782" y2="358.402"/>
<line fill="#010101" x1="113.782" y1="358.402" x2="113.782" y2="349.034"/>
<line fill="none" stroke="#010101" stroke-width="0.9189" stroke-linecap="round" stroke-miterlimit="10" x1="113.782" y1="358.402" x2="113.782" y2="349.034"/>
<line fill="#010101" x1="113.782" y1="349.034" x2="122.704" y2="349.034"/>
<line fill="none" stroke="#010101" stroke-width="0.9189" stroke-linecap="round" stroke-miterlimit="10" x1="113.782" y1="349.034" x2="122.704" y2="349.034"/>
<line fill="#010101" x1="122.704" y1="349.034" x2="122.704" y2="360.633"/>
<line fill="none" stroke="#010101" stroke-width="0.9189" stroke-linecap="round" stroke-miterlimit="10" x1="122.704" y1="349.034" x2="122.704" y2="360.633"/>
<line fill="#010101" x1="122.704" y1="360.633" x2="249.849" y2="360.633"/>
<line fill="none" stroke="#010101" stroke-width="0.9189" stroke-linecap="round" stroke-miterlimit="10" x1="122.704" y1="360.633" x2="249.849" y2="360.633"/>
<line fill="#010101" x1="249.849" y1="410.153" x2="249.849" y2="360.633"/>
<line fill="none" stroke="#010101" stroke-width="0.9189" stroke-linecap="round" stroke-miterlimit="10" x1="249.849" y1="410.153" x2="249.849" y2="360.633"/>
<line fill="#010101" x1="249.849" y1="360.633" x2="249.849" y2="350.371"/>
<line fill="none" stroke="#010101" stroke-width="0.9189" stroke-linecap="round" stroke-miterlimit="10" x1="249.849" y1="360.633" x2="249.849" y2="350.371"/>
<line fill="#010101" x1="269.924" y1="266.502" x2="125.827" y2="266.502"/>
<line fill="none" stroke="#010101" stroke-width="0.9189" stroke-linecap="round" stroke-miterlimit="10" stroke-dasharray="0.4595,2.2973" x1="269.924" y1="266.502" x2="125.827" y2="266.502"/>
<line fill="#010101" x1="125.827" y1="266.502" x2="125.827" y2="307.1"/>
<line fill="none" stroke="#010101" stroke-width="0.9189" stroke-linecap="round" stroke-miterlimit="10" x1="125.827" y1="266.502" x2="125.827" y2="307.1"/>
<line fill="#010101" x1="272.155" y1="165.232" x2="125.827" y2="165.232"/>
<line fill="none" stroke="#010101" stroke-width="0.9189" stroke-linecap="round" stroke-miterlimit="10" stroke-dasharray="0.4595,2.2973" x1="272.155" y1="165.232" x2="125.827" y2="165.232"/>
<line fill="#010101" x1="125.827" y1="63.07" x2="125.827" y2="165.232"/>
<line fill="none" stroke="#010101" stroke-width="0.9189" stroke-linecap="round" stroke-miterlimit="10" x1="125.827" y1="63.07" x2="125.827" y2="165.232"/>
<line fill="#010101" x1="125.827" y1="165.232" x2="125.827" y2="266.502"/>
<line fill="none" stroke="#010101" stroke-width="0.9189" stroke-linecap="round" stroke-miterlimit="10" x1="125.827" y1="165.232" x2="125.827" y2="266.502"/>
<line fill="#010101" x1="155.717" y1="8.643" x2="214.605" y2="8.643"/>
<line fill="none" stroke="#010101" stroke-width="0.9189" stroke-linecap="round" stroke-miterlimit="10" x1="155.717" y1="8.643" x2="214.605" y2="8.643"/>
<line fill="#010101" x1="130.288" y1="183.522" x2="130.288" y2="243.303"/>
<line fill="none" stroke="#010101" stroke-width="0.9189" stroke-linecap="round" stroke-miterlimit="10" x1="130.288" y1="183.522" x2="130.288" y2="243.303"/>
<line fill="#010101" x1="513.507" y1="281.224" x2="513.507" y2="339.666"/>
<line fill="none" stroke="#010101" stroke-width="0.9189" stroke-linecap="round" stroke-miterlimit="10" x1="513.507" y1="281.224" x2="513.507" y2="339.666"/>
<line fill="#010101" x1="513.507" y1="184.415" x2="513.507" y2="245.533"/>
<line fill="none" stroke="#010101" stroke-width="0.9189" stroke-linecap="round" stroke-miterlimit="10" x1="513.507" y1="184.415" x2="513.507" y2="245.533"/>
<line fill="#010101" x1="513.507" y1="93.852" x2="513.507" y2="153.186"/>
<line fill="none" stroke="#010101" stroke-width="0.9189" stroke-linecap="round" stroke-miterlimit="10" x1="513.507" y1="93.852" x2="513.507" y2="153.186"/>
<line fill="none" stroke="#FFFFFF" stroke-width="1.3784" stroke-linecap="round" stroke-miterlimit="10" x1="336.882" y1="73.777" x2="305.653" y2="73.777"/>
<path fill="none" stroke="#010101" stroke-width="0.9189" stroke-linecap="round" stroke-miterlimit="10" d="M337.328,73.777V57.494
	c-8.994,0-16.284,7.29-16.284,16.283c0-8.994-7.29-16.283-16.283-16.283v16.283"/>
<line fill="none" stroke="#FFFFFF" stroke-width="1.3784" stroke-linecap="round" stroke-miterlimit="10" x1="383.496" y1="410.153" x2="352.267" y2="410.153"/>
<path fill="none" stroke="#010101" stroke-width="0.9189" stroke-linecap="round" stroke-miterlimit="10" d="M383.943,410.153
	v16.282c-8.993,0-16.284-7.289-16.284-16.282c0,8.993-7.291,16.282-16.284,16.282v-16.282"/>
<line fill="none" stroke="#FFFFFF" stroke-width="1.3784" stroke-linecap="round" stroke-miterlimit="10" x1="343.831" y1="410.153" x2="312.602" y2="410.153"/>
<path fill="none" stroke="#010101" stroke-width="0.9189" stroke-linecap="round" stroke-miterlimit="10" d="M344.276,410.153
	v16.282c-8.993,0-16.282-7.289-16.282-16.282c0,8.993-7.291,16.282-16.284,16.282v-16.282"/>
<line fill="none" stroke="#FFFFFF" stroke-width="1.3784" stroke-linecap="round" stroke-miterlimit="10" x1="255.648" y1="332.091" x2="255.648" y2="346.812"/>
<path fill="none" stroke="#010101" stroke-width="0.9189" stroke-linecap="round" stroke-miterlimit="10" d="M255.648,331.645
	c8.87,0,16.061,7.188,16.061,16.061h-16.061"/>
<line fill="none" stroke="#FFFFFF" stroke-width="1.3784" stroke-linecap="round" stroke-miterlimit="10" x1="256.542" y1="231.916" x2="256.542" y2="246.637"/>
<path fill="none" stroke="#010101" stroke-width="0.9189" stroke-linecap="round" stroke-miterlimit="10" d="M256.542,231.469
	c8.869,0,16.061,7.191,16.061,16.061h-16.061"/>
<line fill="none" stroke="#FFFFFF" stroke-width="1.3784" stroke-linecap="round" stroke-miterlimit="10" x1="256.542" y1="105.699" x2="256.542" y2="90.977"/>
<path fill="none" stroke="#010101" stroke-width="0.9189" stroke-linecap="round" stroke-miterlimit="10" d="M256.542,106.144
	c8.869,0,16.061-7.189,16.061-16.061h-16.061"/>
<line fill="none" stroke="#FFFFFF" stroke-width="1.3784" stroke-linecap="round" stroke-miterlimit="10" x1="387.254" y1="105.699" x2="387.254" y2="90.975"/>
<path fill="none" stroke="#010101" stroke-width="0.9189" stroke-linecap="round" stroke-miterlimit="10" d="M387.254,106.144
	c-8.87,0-16.061-7.189-16.061-16.061h16.061"/>
<line fill="none" stroke="#FFFFFF" stroke-width="1.3784" stroke-linecap="round" stroke-miterlimit="10" x1="387.254" y1="231.196" x2="387.254" y2="245.919"/>
<path fill="none" stroke="#010101" stroke-width="0.9189" stroke-linecap="round" stroke-miterlimit="10" d="M387.254,230.751
	c-8.87,0-16.061,7.189-16.061,16.061h16.061"/>
<line fill="none" stroke="#FFFFFF" stroke-width="1.3784" stroke-linecap="round" stroke-miterlimit="10" x1="385.025" y1="332.609" x2="385.025" y2="347.333"/>
<path fill="none" stroke="#010101" stroke-width="0.9189" stroke-linecap="round" stroke-miterlimit="10" d="M385.025,332.164
	c-8.871,0-16.061,7.191-16.061,16.061h16.061"/>
<line fill="none" stroke="#FFFFFF" stroke-width="1.3784" stroke-linecap="round" stroke-miterlimit="10" x1="385.277" y1="380.718" x2="385.405" y2="395.439"/>
<path fill="none" stroke="#010101" stroke-width="0.9189" stroke-linecap="round" stroke-miterlimit="10" d="M385.273,380.271
	c8.869-0.078,16.121,7.051,16.199,15.921l-16.061,0.138"/>
<line fill="none" stroke="#FFFFFF" stroke-width="1.3784" stroke-linecap="round" stroke-miterlimit="10" x1="125.827" y1="130.446" x2="125.827" y2="115.725"/>
<path fill="none" stroke="#010101" stroke-width="0.9189" stroke-linecap="round" stroke-miterlimit="10" d="M125.827,130.891
	c-8.87,0-16.06-7.19-16.06-16.06h16.06"/>
<text transform="matrix(1 0 0 1 295.0068 439.8135)"><tspan x="0" y="0" fill="#010101" font-family="'NimbusSanL-Regu-Identity-H'" font-size="11.4588">A</tspan><tspan x="7.391" y="0" fill="#010101" font-family="'NimbusSanL-Regu-Identity-H'" font-size="11.4588">l</tspan><tspan x="9.843" y="0" fill="#010101" font-family="'NimbusSanL-Regu-Identity-H'" font-size="11.4588">u</tspan><tspan x="16.649" y="0" fill="#010101" font-family="'NimbusSanL-Regu-Identity-H'" font-size="11.4588">m</tspan><tspan x="25.828" y="0" fill="#010101" font-family="'NimbusSanL-Regu-Identity-H'" font-size="11.4588">n</tspan><tspan x="32.68" y="0" fill="#010101" font-family="'NimbusSanL-Regu-Identity-H'" font-size="11.4588">i</tspan><tspan x="35.109" y="0" fill="#010101" font-family="'NimbusSanL-Regu-Identity-H'" font-size="11.4588"> </tspan><tspan x="37.791" y="0" fill="#010101" font-family="'NimbusSanL-Regu-Identity-H'" font-size="11.4588">C</tspan><tspan x="44.185" y="0" fill="#010101" font-family="'NimbusSanL-Regu-Identity-H'" font-size="11.4588">en</tspan><tspan x="57.27" y="0" fill="#010101" font-family="'NimbusSanL-Regu-Identity-H'" font-size="11.4588">t</tspan><tspan x="61.315" y="0" fill="#010101" font-family="'NimbusSanL-Regu-Identity-H'" font-size="11.4588">e</tspan><tspan x="67.548" y="0" fill="#010101" font-family="'NimbusSanL-Regu-Identity-H'" font-size="11.4588">r</tspan><tspan x="70.917" y="0" fill="#010101" font-family="'NimbusSanL-Regu-Identity-H'" font-size="11.4588"> </tspan><tspan x="73.599" y="0" fill="#010101" font-family="'NimbusSanL-Regu-Identity-H'" font-size="11.4588">Lobb</tspan><tspan x="100.309" y="0" fill="#010101" font-family="'NimbusSanL-Regu-Identity-H'" font-size="11.4588">y</tspan></text>
<text transform="matrix(4.489659e-11 -1 1 4.489659e-11 537.2798 228.1357)"><tspan x="0" y="0" fill="#010101" font-family="'NimbusSanL-Regu-Identity-H'" font-size="15.4588">G</tspan><tspan x="10.326" y="0" fill="#010101" font-family="'NimbusSanL-Regu-Identity-H'" font-size="15.4588">a</tspan><tspan x="18.442" y="0" fill="#010101" font-family="'NimbusSanL-Regu-Identity-H'" font-size="15.4588">l</tspan><tspan x="21.75" y="0" fill="#010101" font-family="'NimbusSanL-Regu-Identity-H'" font-size="15.4588">v</tspan><tspan x="29.186" y="0" fill="#010101" font-family="'NimbusSanL-Regu-Identity-H'" font-size="15.4588">e</tspan><tspan x="37.596" y="0" fill="#010101" font-family="'NimbusSanL-Regu-Identity-H'" font-size="15.4588">z</tspan><tspan x="44.212" y="0" fill="#010101" font-family="'NimbusSanL-Regu-Identity-H'" font-size="15.4588"> </tspan><tspan x="47.829" y="0" fill="#010101" font-family="'NimbusSanL-Regu-Identity-H'" font-size="15.4588">S</tspan><tspan x="55.96" y="0" fill="#010101" font-family="'NimbusSanL-Regu-Identity-H'" font-size="15.4588">t</tspan><tspan x="61.417" y="0" fill="#010101" font-family="'NimbusSanL-Regu-Identity-H'" font-size="15.4588">r</tspan><tspan x="65.962" y="0" fill="#010101" font-family="'NimbusSanL-Regu-Identity-H'" font-size="15.4588">ee</tspan><tspan x="82.78" y="0" fill="#010101" font-family="'NimbusSanL-Regu-Identity-H'" font-size="15.4588">t</tspan></text>
<path fill="none" stroke="#6B6868" stroke-width="1.0338" stroke-miterlimit="10" d="M296.692,188.431h4.015
	c2.008,0,4.016-2.008,4.016-4.016s-2.008-4.016-4.016-4.016h-4.015V188.431z"/>
<path fill="none" stroke="#6B6868" stroke-width="1.0338" stroke-miterlimit="10" d="M296.692,209.843h4.015
	c2.008,0,4.016-2.007,4.016-4.016c0-2.006-2.008-4.015-4.016-4.015h-4.015V209.843z"/>
<path fill="none" stroke="#6B6868" stroke-width="1.0338" stroke-miterlimit="10" d="M283.308,201.813h-4.015
	c-2.008,0-4.015,2.008-4.015,4.015c0,2.008,2.007,4.016,4.015,4.016h4.015V201.813z"/>
<path fill="none" stroke="#6B6868" stroke-width="1.0338" stroke-miterlimit="10" d="M283.308,180.399h-4.015
	c-2.008,0-4.015,2.008-4.015,4.016s2.007,4.016,4.015,4.016h4.015V180.399z"/>
<path fill="#FFFFFF" d="M296.692,175.626v38.991c0,1.059-0.24,1.918-0.535,1.918h-12.313c-0.295,0-0.535-0.86-0.535-1.918v-38.991
	c0-1.06,0.24-1.919,0.535-1.919h12.313C296.452,173.707,296.692,174.567,296.692,175.626"/>
<path fill="none" stroke="#010101" stroke-width="0.6946" stroke-miterlimit="10" d="M296.692,175.626v38.991
	c0,1.059-0.24,1.918-0.535,1.918h-12.313c-0.295,0-0.535-0.86-0.535-1.918v-38.991c0-1.06,0.24-1.919,0.535-1.919h12.313
	C296.452,173.707,296.692,174.567,296.692,175.626z"/>
<path fill="none" stroke="#6B6868" stroke-width="1.0338" stroke-miterlimit="10" d="M495.662,148.725h4.016
	c2.008,0,4.016-2.007,4.016-4.015c0-2.008-2.008-4.016-4.016-4.016h-4.016V148.725z"/>
<path fill="none" stroke="#6B6868" stroke-width="1.0338" stroke-miterlimit="10" d="M495.662,170.14h4.016
	c2.008,0,4.016-2.008,4.016-4.017c0-2.006-2.008-4.015-4.016-4.015h-4.016V170.14z"/>
<path fill="none" stroke="#6B6868" stroke-width="1.0338" stroke-miterlimit="10" d="M482.279,162.108h-4.016
	c-2.006,0-4.015,2.008-4.015,4.015c0,2.008,2.009,4.017,4.015,4.017h4.016V162.108z"/>
<path fill="none" stroke="#6B6868" stroke-width="1.0338" stroke-miterlimit="10" d="M482.279,140.695h-4.016
	c-2.006,0-4.015,2.007-4.015,4.016c0,2.007,2.009,4.015,4.015,4.015h4.016V140.695z"/>
<path fill="#FFFFFF" d="M495.662,135.921v38.992c0,1.059-0.239,1.917-0.534,1.917h-12.312c-0.297,0-0.536-0.859-0.536-1.917v-38.992
	c0-1.058,0.239-1.918,0.536-1.918h12.312C495.422,134.003,495.662,134.863,495.662,135.921"/>
<path fill="none" stroke="#010101" stroke-width="0.6946" stroke-miterlimit="10" d="M495.662,135.921v38.992
	c0,1.059-0.239,1.917-0.534,1.917h-12.312c-0.297,0-0.536-0.859-0.536-1.917v-38.992c0-1.058,0.239-1.918,0.536-1.918h12.312
	C495.422,134.003,495.662,134.863,495.662,135.921z"/>
<path fill="none" stroke="#6B6868" stroke-width="1.0338" stroke-miterlimit="10" d="M495.215,99.651h4.016
	c2.008,0,4.015-2.006,4.015-4.015c0-2.007-2.007-4.015-4.015-4.015h-4.016V99.651z"/>
<path fill="none" stroke="#6B6868" stroke-width="1.0338" stroke-miterlimit="10" d="M495.215,121.065h4.016
	c2.008,0,4.015-2.006,4.015-4.015s-2.007-4.015-4.015-4.015h-4.016V121.065z"/>
<path fill="none" stroke="#6B6868" stroke-width="1.0338" stroke-miterlimit="10" d="M481.833,113.036h-4.016
	c-2.008,0-4.016,2.006-4.016,4.015s2.008,4.015,4.016,4.015h4.016V113.036z"/>
<path fill="none" stroke="#6B6868" stroke-width="1.0338" stroke-miterlimit="10" d="M481.833,91.622h-4.016
	c-2.008,0-4.016,2.007-4.016,4.015c0,2.008,2.008,4.015,4.016,4.015h4.016V91.622z"/>
<path fill="#FFFFFF" d="M495.215,86.849v38.992c0,1.058-0.239,1.917-0.535,1.917h-12.312c-0.296,0-0.535-0.859-0.535-1.917V86.849
	c0-1.06,0.239-1.919,0.535-1.919h12.312C494.976,84.93,495.215,85.789,495.215,86.849"/>
<path fill="none" stroke="#010101" stroke-width="0.6946" stroke-miterlimit="10" d="M495.215,86.849v38.992
	c0,1.058-0.239,1.917-0.534,1.917h-12.312c-0.296,0-0.535-0.859-0.535-1.917V86.849c0-1.06,0.239-1.919,0.535-1.919h12.312
	C494.976,84.93,495.215,85.789,495.215,86.849z"/>
<path fill="none" stroke="#6B6868" stroke-width="1.0338" stroke-miterlimit="10" d="M495.662,201.813h4.016
	c2.008,0,4.016-2.006,4.016-4.015c0-2.008-2.008-4.016-4.016-4.016h-4.016V201.813z"/>
<path fill="none" stroke="#6B6868" stroke-width="1.0338" stroke-miterlimit="10" d="M495.662,223.228h4.016
	c2.008,0,4.016-2.008,4.016-4.017c0-2.006-2.008-4.014-4.016-4.014h-4.016V223.228z"/>
<path fill="none" stroke="#6B6868" stroke-width="1.0338" stroke-miterlimit="10" d="M482.279,215.197h-4.016
	c-2.006,0-4.015,2.008-4.015,4.014c0,2.008,2.009,4.017,4.015,4.017h4.016V215.197z"/>
<path fill="none" stroke="#6B6868" stroke-width="1.0338" stroke-miterlimit="10" d="M482.279,193.783h-4.016
	c-2.006,0-4.015,2.008-4.015,4.016c0,2.008,2.009,4.015,4.015,4.015h4.016V193.783z"/>
<path fill="#FFFFFF" d="M495.662,189.01v38.991c0,1.059-0.239,1.92-0.534,1.92h-12.312c-0.297,0-0.536-0.861-0.536-1.92V189.01
	c0-1.059,0.239-1.918,0.536-1.918h12.312C495.422,187.092,495.662,187.951,495.662,189.01"/>
<path fill="none" stroke="#010101" stroke-width="0.6946" stroke-miterlimit="10" d="M495.662,189.01v38.991
	c0,1.059-0.239,1.92-0.534,1.92h-12.312c-0.297,0-0.536-0.861-0.536-1.92V189.01c0-1.059,0.239-1.918,0.536-1.918h12.312
	C495.422,187.092,495.662,187.951,495.662,189.01z"/>
<path fill="none" stroke="#6B6868" stroke-width="1.0338" stroke-miterlimit="10" d="M361.379,269.178h4.015
	c2.009,0,4.017-2.006,4.017-4.015c0-2.007-2.008-4.015-4.017-4.015h-4.015V269.178z"/>
<path fill="none" stroke="#6B6868" stroke-width="1.0338" stroke-miterlimit="10" d="M361.379,290.594h4.015
	c2.009,0,4.017-2.009,4.017-4.017c0-2.009-2.008-4.015-4.017-4.015h-4.015V290.594z"/>
<path fill="none" stroke="#6B6868" stroke-width="1.0338" stroke-miterlimit="10" d="M347.996,282.562h-4.015
	c-2.008,0-4.015,2.006-4.015,4.015c0,2.008,2.006,4.017,4.015,4.017h4.015V282.562z"/>
<path fill="none" stroke="#6B6868" stroke-width="1.0338" stroke-miterlimit="10" d="M347.996,261.148h-4.015
	c-2.008,0-4.015,2.008-4.015,4.015c0,2.009,2.006,4.015,4.015,4.015h4.015V261.148z"/>
<path fill="#FFFFFF" d="M361.379,256.375v38.992c0,1.058-0.239,1.917-0.534,1.917h-12.313c-0.296,0-0.536-0.859-0.536-1.917v-38.992
	c0-1.059,0.24-1.919,0.536-1.919h12.313C361.14,254.456,361.379,255.316,361.379,256.375"/>
<path fill="none" stroke="#010101" stroke-width="0.6946" stroke-miterlimit="10" d="M361.379,256.375v38.992
	c0,1.058-0.239,1.917-0.534,1.917h-12.313c-0.296,0-0.536-0.859-0.536-1.917v-38.992c0-1.059,0.24-1.919,0.536-1.919h12.313
	C361.14,254.456,361.379,255.316,361.379,256.375z"/>
<path fill="none" stroke="#6B6868" stroke-width="1.0338" stroke-miterlimit="10" d="M495.662,256.688h4.016
	c2.008,0,4.016-2.009,4.016-4.018c0-2.007-2.008-4.015-4.016-4.015h-4.016V256.688z"/>
<path fill="none" stroke="#6B6868" stroke-width="1.0338" stroke-miterlimit="10" d="M495.662,278.1h4.016
	c2.008,0,4.016-2.006,4.016-4.015c0-2.006-2.008-4.015-4.016-4.015h-4.016V278.1z"/>
<path fill="none" stroke="#6B6868" stroke-width="1.0338" stroke-miterlimit="10" d="M482.279,270.07h-4.016
	c-2.006,0-4.015,2.009-4.015,4.015c0,2.009,2.009,4.015,4.015,4.015h4.016V270.07z"/>
<path fill="none" stroke="#6B6868" stroke-width="1.0338" stroke-miterlimit="10" d="M482.279,248.656h-4.016
	c-2.006,0-4.015,2.008-4.015,4.015c0,2.009,2.009,4.018,4.015,4.018h4.016V248.656z"/>
<path fill="#FFFFFF" d="M495.662,243.884v38.991c0,1.059-0.239,1.918-0.534,1.918h-12.312c-0.297,0-0.536-0.859-0.536-1.918v-38.991
	c0-1.061,0.239-1.919,0.536-1.919h12.312C495.422,241.965,495.662,242.823,495.662,243.884"/>
<path fill="none" stroke="#010101" stroke-width="0.6946" stroke-miterlimit="10" d="M495.662,243.884v38.991
	c0,1.059-0.239,1.918-0.534,1.918h-12.312c-0.297,0-0.536-0.859-0.536-1.918v-38.991c0-1.061,0.239-1.919,0.536-1.919h12.312
	C495.422,241.965,495.662,242.823,495.662,243.884z"/>
<path fill="none" stroke="#6B6868" stroke-width="1.0338" stroke-miterlimit="10" d="M429.636,148.725h4.016
	c2.008,0,4.015-2.007,4.015-4.015c0-2.008-2.007-4.016-4.015-4.016h-4.016V148.725z"/>
<path fill="none" stroke="#6B6868" stroke-width="1.0338" stroke-miterlimit="10" d="M429.636,170.14h4.016
	c2.008,0,4.015-2.008,4.015-4.017c0-2.006-2.007-4.015-4.015-4.015h-4.016V170.14z"/>
<path fill="none" stroke="#6B6868" stroke-width="1.0338" stroke-miterlimit="10" d="M416.253,162.108h-4.016
	c-2.008,0-4.016,2.008-4.016,4.015c0,2.008,2.008,4.017,4.016,4.017h4.016V162.108z"/>
<path fill="none" stroke="#6B6868" stroke-width="1.0338" stroke-miterlimit="10" d="M416.253,140.695h-4.016
	c-2.008,0-4.016,2.007-4.016,4.016c0,2.007,2.008,4.015,4.016,4.015h4.016V140.695z"/>
<path fill="#FFFFFF" d="M429.636,135.921v38.992c0,1.059-0.24,1.917-0.535,1.917h-12.313c-0.296,0-0.534-0.859-0.534-1.917v-38.992
	c0-1.058,0.238-1.918,0.534-1.918h12.313C429.396,134.003,429.636,134.863,429.636,135.921"/>
<path fill="none" stroke="#010101" stroke-width="0.6946" stroke-miterlimit="10" d="M429.636,135.921v38.992
	c0,1.059-0.24,1.917-0.535,1.917h-12.313c-0.296,0-0.534-0.859-0.534-1.917v-38.992c0-1.058,0.238-1.918,0.534-1.918h12.313
	C429.396,134.003,429.636,134.863,429.636,135.921z"/>
<path fill="none" stroke="#6B6868" stroke-width="1.0338" stroke-miterlimit="10" d="M429.636,201.813h4.016
	c2.008,0,4.015-2.006,4.015-4.015c0-2.008-2.007-4.016-4.015-4.016h-4.016V201.813z"/>
<path fill="none" stroke="#6B6868" stroke-width="1.0338" stroke-miterlimit="10" d="M429.636,223.228h4.016
	c2.008,0,4.015-2.008,4.015-4.017c0-2.006-2.007-4.014-4.015-4.014h-4.016V223.228z"/>
<path fill="none" stroke="#6B6868" stroke-width="1.0338" stroke-miterlimit="10" d="M416.253,215.197h-4.016
	c-2.008,0-4.016,2.008-4.016,4.014c0,2.008,2.008,4.017,4.016,4.017h4.016V215.197z"/>
<path fill="none" stroke="#6B6868" stroke-width="1.0338" stroke-miterlimit="10" d="M416.253,193.783h-4.016
	c-2.008,0-4.016,2.008-4.016,4.016c0,2.008,2.008,4.015,4.016,4.015h4.016V193.783z"/>
<path fill="#FFFFFF" d="M429.636,189.01v38.991c0,1.059-0.24,1.92-0.535,1.92h-12.313c-0.296,0-0.534-0.861-0.534-1.92V189.01
	c0-1.059,0.238-1.918,0.534-1.918h12.313C429.396,187.092,429.636,187.951,429.636,189.01"/>
<path fill="none" stroke="#010101" stroke-width="0.6946" stroke-miterlimit="10" d="M429.636,189.01v38.991
	c0,1.059-0.24,1.92-0.535,1.92h-12.313c-0.296,0-0.534-0.861-0.534-1.92V189.01c0-1.059,0.238-1.918,0.534-1.918h12.313
	C429.396,187.092,429.636,187.951,429.636,189.01z"/>
<path fill="none" stroke="#6B6868" stroke-width="1.0338" stroke-miterlimit="10" d="M429.19,99.651h4.017
	c2.006,0,4.015-2.006,4.015-4.015c0-2.007-2.009-4.015-4.015-4.015h-4.017V99.651z"/>
<path fill="none" stroke="#6B6868" stroke-width="1.0338" stroke-miterlimit="10" d="M429.19,121.065h4.017
	c2.006,0,4.015-2.006,4.015-4.015s-2.009-4.015-4.015-4.015h-4.017V121.065z"/>
<path fill="none" stroke="#6B6868" stroke-width="1.0338" stroke-miterlimit="10" d="M415.805,113.036h-4.015
	c-2.006,0-4.015,2.006-4.015,4.015s2.009,4.015,4.015,4.015h4.015V113.036z"/>
<path fill="none" stroke="#6B6868" stroke-width="1.0338" stroke-miterlimit="10" d="M415.805,91.622h-4.015
	c-2.006,0-4.015,2.007-4.015,4.015c0,2.008,2.009,4.015,4.015,4.015h4.015V91.622z"/>
<path fill="#FFFFFF" d="M429.19,86.849v38.992c0,1.058-0.24,1.917-0.535,1.917h-12.312c-0.297,0-0.537-0.859-0.537-1.917V86.849
	c0-1.06,0.24-1.919,0.537-1.919h12.312C428.95,84.93,429.19,85.789,429.19,86.849"/>
<path fill="none" stroke="#010101" stroke-width="0.6946" stroke-miterlimit="10" d="M429.19,86.849v38.992
	c0,1.058-0.24,1.917-0.535,1.917h-12.312c-0.297,0-0.537-0.859-0.537-1.917V86.849c0-1.06,0.24-1.919,0.537-1.919h12.312
	C428.95,84.93,429.19,85.789,429.19,86.849z"/>
<path fill="none" stroke="#6B6868" stroke-width="1.0338" stroke-miterlimit="10" d="M429.636,256.688h4.016
	c2.008,0,4.015-2.009,4.015-4.018c0-2.007-2.007-4.015-4.015-4.015h-4.016V256.688z"/>
<path fill="none" stroke="#6B6868" stroke-width="1.0338" stroke-miterlimit="10" d="M429.636,278.1h4.016
	c2.008,0,4.015-2.006,4.015-4.015c0-2.006-2.007-4.015-4.015-4.015h-4.016V278.1z"/>
<path fill="none" stroke="#6B6868" stroke-width="1.0338" stroke-miterlimit="10" d="M416.253,270.07h-4.016
	c-2.008,0-4.016,2.009-4.016,4.015c0,2.009,2.008,4.015,4.016,4.015h4.016V270.07z"/>
<path fill="none" stroke="#6B6868" stroke-width="1.0338" stroke-miterlimit="10" d="M416.253,248.656h-4.016
	c-2.008,0-4.016,2.008-4.016,4.015c0,2.009,2.008,4.018,4.016,4.018h4.016V248.656z"/>
<path fill="#FFFFFF" d="M429.636,243.884v38.991c0,1.059-0.24,1.918-0.535,1.918h-12.313c-0.296,0-0.534-0.859-0.534-1.918v-38.991
	c0-1.061,0.238-1.919,0.534-1.919h12.313C429.396,241.965,429.636,242.823,429.636,243.884"/>
<path fill="none" stroke="#010101" stroke-width="0.6946" stroke-miterlimit="10" d="M429.636,243.884v38.991
	c0,1.059-0.24,1.918-0.535,1.918h-12.313c-0.296,0-0.534-0.859-0.534-1.918v-38.991c0-1.061,0.238-1.919,0.534-1.919h12.313
	C429.396,241.965,429.636,242.823,429.636,243.884z"/>
<path fill="none" stroke="#6B6868" stroke-width="1.0338" stroke-miterlimit="10" d="M275.724,376.248h4.015
	c2.008,0,4.016-2.01,4.016-4.015c0-2.008-2.008-4.017-4.016-4.017h-4.015V376.248z"/>
<path fill="none" stroke="#6B6868" stroke-width="1.0338" stroke-miterlimit="10" d="M275.724,397.661h4.015
	c2.008,0,4.016-2.008,4.016-4.014c0-2.009-2.008-4.017-4.016-4.017h-4.015V397.661z"/>
<path fill="none" stroke="#6B6868" stroke-width="1.0338" stroke-miterlimit="10" d="M262.341,389.631h-4.015
	c-2.008,0-4.015,2.008-4.015,4.017c0,2.006,2.007,4.014,4.015,4.014h4.015V389.631z"/>
<path fill="none" stroke="#6B6868" stroke-width="1.0338" stroke-miterlimit="10" d="M262.341,368.217h-4.015
	c-2.008,0-4.015,2.009-4.015,4.017c0,2.005,2.007,4.015,4.015,4.015h4.015V368.217z"/>
<path fill="#FFFFFF" d="M275.724,363.443v38.991c0,1.059-0.24,1.92-0.535,1.92h-12.313c-0.295,0-0.535-0.861-0.535-1.92v-38.991
	c0-1.059,0.239-1.917,0.535-1.917h12.313C275.484,361.526,275.724,362.385,275.724,363.443"/>
<path fill="none" stroke="#010101" stroke-width="0.6946" stroke-miterlimit="10" d="M275.724,363.443v38.991
	c0,1.059-0.24,1.92-0.535,1.92h-12.313c-0.295,0-0.535-0.861-0.535-1.92v-38.991c0-1.059,0.239-1.917,0.535-1.917h12.313
	C275.484,361.526,275.724,362.385,275.724,363.443z"/>
<path fill="none" stroke="#6B6868" stroke-width="1.0338" stroke-miterlimit="10" d="M429.636,313.79h4.016
	c2.008,0,4.015-2.008,4.015-4.015c0-2.008-2.007-4.015-4.015-4.015h-4.016V313.79z"/>
<path fill="none" stroke="#6B6868" stroke-width="1.0338" stroke-miterlimit="10" d="M429.636,335.204h4.016
	c2.008,0,4.015-2.007,4.015-4.015c0-2.007-2.007-4.015-4.015-4.015h-4.016V335.204z"/>
<path fill="none" stroke="#6B6868" stroke-width="1.0338" stroke-miterlimit="10" d="M416.253,327.175h-4.016
	c-2.008,0-4.016,2.008-4.016,4.015c0,2.008,2.008,4.015,4.016,4.015h4.016V327.175z"/>
<path fill="none" stroke="#6B6868" stroke-width="1.0338" stroke-miterlimit="10" d="M416.253,305.761h-4.016
	c-2.008,0-4.016,2.007-4.016,4.015c0,2.007,2.008,4.015,4.016,4.015h4.016V305.761z"/>
<path fill="#FFFFFF" d="M429.636,300.987v38.99c0,1.06-0.24,1.919-0.535,1.919h-12.313c-0.296,0-0.534-0.859-0.534-1.919v-38.99
	c0-1.06,0.238-1.919,0.534-1.919h12.313C429.396,299.068,429.636,299.928,429.636,300.987"/>
<path fill="none" stroke="#010101" stroke-width="0.6946" stroke-miterlimit="10" d="M429.636,300.987v38.99
	c0,1.06-0.24,1.919-0.535,1.919h-12.313c-0.296,0-0.534-0.859-0.534-1.919v-38.99c0-1.06,0.238-1.919,0.534-1.919h12.313
	C429.396,299.068,429.636,299.928,429.636,300.987z"/>
<path fill="none" stroke="#6B6868" stroke-width="1.0338" stroke-miterlimit="10" d="M361.379,368.217h4.015
	c2.009,0,4.017-2.007,4.017-4.016c0-2.006-2.008-4.014-4.017-4.014h-4.015V368.217z"/>
<path fill="none" stroke="#6B6868" stroke-width="1.0338" stroke-miterlimit="10" d="M361.379,389.631h4.015
	c2.009,0,4.017-2.007,4.017-4.015c0-2.007-2.008-4.015-4.017-4.015h-4.015V389.631z"/>
<path fill="none" stroke="#6B6868" stroke-width="1.0338" stroke-miterlimit="10" d="M347.996,381.602h-4.015
	c-2.008,0-4.015,2.008-4.015,4.015c0,2.008,2.006,4.015,4.015,4.015h4.015V381.602z"/>
<path fill="none" stroke="#6B6868" stroke-width="1.0338" stroke-miterlimit="10" d="M347.996,360.188h-4.015
	c-2.008,0-4.015,2.008-4.015,4.014c0,2.009,2.006,4.016,4.015,4.016h4.015V360.188z"/>
<path fill="#FFFFFF" d="M361.379,355.414v38.991c0,1.059-0.239,1.918-0.534,1.918h-12.313c-0.296,0-0.536-0.859-0.536-1.918v-38.991
	c0-1.059,0.24-1.917,0.536-1.917h12.313C361.14,353.497,361.379,354.355,361.379,355.414"/>
<path fill="none" stroke="#010101" stroke-width="0.6946" stroke-miterlimit="10" d="M361.379,355.414v38.991
	c0,1.059-0.239,1.918-0.534,1.918h-12.313c-0.296,0-0.536-0.859-0.536-1.918v-38.991c0-1.059,0.24-1.917,0.536-1.917h12.313
	C361.14,353.497,361.379,354.355,361.379,355.414z"/>
<path fill="none" stroke="#6B6868" stroke-width="1.0338" stroke-miterlimit="10" d="M361.379,129.542h4.015
	c2.009,0,4.017-2.007,4.017-4.015c0-2.008-2.008-4.017-4.017-4.017h-4.015V129.542z"/>
<path fill="none" stroke="#6B6868" stroke-width="1.0338" stroke-miterlimit="10" d="M361.379,150.955h4.015
	c2.009,0,4.017-2.007,4.017-4.015s-2.008-4.016-4.017-4.016h-4.015V150.955z"/>
<path fill="none" stroke="#6B6868" stroke-width="1.0338" stroke-miterlimit="10" d="M347.996,142.925h-4.015
	c-2.008,0-4.015,2.008-4.015,4.016s2.006,4.015,4.015,4.015h4.015V142.925z"/>
<path fill="none" stroke="#6B6868" stroke-width="1.0338" stroke-miterlimit="10" d="M347.996,121.511h-4.015
	c-2.008,0-4.015,2.008-4.015,4.017c0,2.007,2.006,4.015,4.015,4.015h4.015V121.511z"/>
<path fill="#FFFFFF" d="M361.379,116.738v38.992c0,1.058-0.239,1.919-0.534,1.919h-12.313c-0.296,0-0.536-0.861-0.536-1.919v-38.992
	c0-1.058,0.24-1.917,0.536-1.917h12.313C361.14,114.82,361.379,115.68,361.379,116.738"/>
<path fill="none" stroke="#010101" stroke-width="0.6946" stroke-miterlimit="10" d="M361.379,116.738v38.992
	c0,1.058-0.239,1.919-0.534,1.919h-12.313c-0.296,0-0.536-0.861-0.536-1.919v-38.992c0-1.058,0.24-1.917,0.536-1.917h12.313
	C361.14,114.82,361.379,115.68,361.379,116.738z"/>
<path fill="none" stroke="#6B6868" stroke-width="1.0338" stroke-miterlimit="10" d="M300.261,269.178h4.015
	c2.008,0,4.015-2.006,4.015-4.015c0-2.007-2.007-4.015-4.015-4.015h-4.015V269.178z"/>
<path fill="none" stroke="#6B6868" stroke-width="1.0338" stroke-miterlimit="10" d="M300.261,290.594h4.015
	c2.008,0,4.015-2.009,4.015-4.017c0-2.009-2.007-4.015-4.015-4.015h-4.015V290.594z"/>
<path fill="none" stroke="#6B6868" stroke-width="1.0338" stroke-miterlimit="10" d="M286.877,282.562h-4.016
	c-2.007,0-4.015,2.006-4.015,4.015c0,2.008,2.008,4.017,4.015,4.017h4.016V282.562z"/>
<path fill="none" stroke="#6B6868" stroke-width="1.0338" stroke-miterlimit="10" d="M286.877,261.148h-4.016
	c-2.007,0-4.015,2.008-4.015,4.015c0,2.009,2.008,4.015,4.015,4.015h4.016V261.148z"/>
<path fill="#FFFFFF" d="M300.261,256.375v38.992c0,1.058-0.24,1.917-0.536,1.917h-12.312c-0.295,0-0.535-0.859-0.535-1.917v-38.992
	c0-1.059,0.24-1.919,0.535-1.919h12.312C300.021,254.456,300.261,255.316,300.261,256.375"/>
<path fill="none" stroke="#010101" stroke-width="0.6946" stroke-miterlimit="10" d="M300.261,256.375v38.992
	c0,1.058-0.24,1.917-0.536,1.917h-12.312c-0.295,0-0.535-0.859-0.535-1.917v-38.992c0-1.059,0.24-1.919,0.535-1.919h12.312
	C300.021,254.456,300.261,255.316,300.261,256.375z"/>
<path fill="none" stroke="#6B6868" stroke-width="1.0338" stroke-miterlimit="10" d="M296.692,129.542h4.015
	c2.008,0,4.016-2.007,4.016-4.015c0-2.008-2.008-4.017-4.016-4.017h-4.015V129.542z"/>
<path fill="none" stroke="#6B6868" stroke-width="1.0338" stroke-miterlimit="10" d="M296.692,150.955h4.015
	c2.008,0,4.016-2.007,4.016-4.015s-2.008-4.016-4.016-4.016h-4.015V150.955z"/>
<path fill="none" stroke="#6B6868" stroke-width="1.0338" stroke-miterlimit="10" d="M283.308,142.925h-4.015
	c-2.008,0-4.015,2.008-4.015,4.016s2.007,4.015,4.015,4.015h4.015V142.925z"/>
<path fill="none" stroke="#6B6868" stroke-width="1.0338" stroke-miterlimit="10" d="M283.308,121.511h-4.015
	c-2.008,0-4.015,2.008-4.015,4.017c0,2.007,2.007,4.015,4.015,4.015h4.015V121.511z"/>
<path fill="#FFFFFF" d="M296.692,116.738v38.992c0,1.058-0.24,1.919-0.535,1.919h-12.313c-0.295,0-0.535-0.861-0.535-1.919v-38.992
	c0-1.058,0.24-1.917,0.535-1.917h12.313C296.452,114.82,296.692,115.68,296.692,116.738"/>
<path fill="none" stroke="#010101" stroke-width="0.6946" stroke-miterlimit="10" d="M296.692,116.738v38.992
	c0,1.058-0.24,1.919-0.535,1.919h-12.313c-0.295,0-0.535-0.861-0.535-1.919v-38.992c0-1.058,0.24-1.917,0.535-1.917h12.313
	C296.452,114.82,296.692,115.68,296.692,116.738z"/>
<path fill="none" stroke="#6B6868" stroke-width="1.0338" stroke-miterlimit="10" d="M361.379,181.738h4.015
	c2.009,0,4.017-2.008,4.017-4.015c0-2.008-2.008-4.016-4.017-4.016h-4.015V181.738z"/>
<path fill="none" stroke="#6B6868" stroke-width="1.0338" stroke-miterlimit="10" d="M361.379,203.151h4.015
	c2.009,0,4.017-2.006,4.017-4.015c0-2.007-2.008-4.015-4.017-4.015h-4.015V203.151z"/>
<path fill="none" stroke="#6B6868" stroke-width="1.0338" stroke-miterlimit="10" d="M347.996,195.122h-4.015
	c-2.008,0-4.015,2.007-4.015,4.015c0,2.008,2.006,4.015,4.015,4.015h4.015V195.122z"/>
<path fill="none" stroke="#6B6868" stroke-width="1.0338" stroke-miterlimit="10" d="M347.996,173.707h-4.015
	c-2.008,0-4.015,2.008-4.015,4.016c0,2.007,2.006,4.015,4.015,4.015h4.015V173.707z"/>
<path fill="#FFFFFF" d="M361.379,168.934v38.992c0,1.058-0.239,1.918-0.534,1.918h-12.313c-0.296,0-0.536-0.86-0.536-1.918v-38.992
	c0-1.058,0.24-1.918,0.536-1.918h12.313C361.14,167.016,361.379,167.875,361.379,168.934"/>
<path fill="none" stroke="#010101" stroke-width="0.6946" stroke-miterlimit="10" d="M361.379,168.934v38.992
	c0,1.058-0.239,1.918-0.534,1.918h-12.313c-0.296,0-0.536-0.86-0.536-1.918v-38.992c0-1.058,0.24-1.918,0.536-1.918h12.313
	C361.14,167.016,361.379,167.875,361.379,168.934z"/>
<path fill="none" stroke="#6B6868" stroke-width="1.0338" stroke-miterlimit="10" d="M495.662,313.79h4.016
	c2.008,0,4.016-2.008,4.016-4.015c0-2.008-2.008-4.015-4.016-4.015h-4.016V313.79z"/>
<path fill="none" stroke="#6B6868" stroke-width="1.0338" stroke-miterlimit="10" d="M495.662,335.204h4.016
	c2.008,0,4.016-2.007,4.016-4.015c0-2.007-2.008-4.015-4.016-4.015h-4.016V335.204z"/>
<path fill="none" stroke="#6B6868" stroke-width="1.0338" stroke-miterlimit="10" d="M482.279,327.175h-4.016
	c-2.006,0-4.015,2.008-4.015,4.015c0,2.008,2.009,4.015,4.015,4.015h4.016V327.175z"/>
<path fill="none" stroke="#6B6868" stroke-width="1.0338" stroke-miterlimit="10" d="M482.279,305.761h-4.016
	c-2.006,0-4.015,2.007-4.015,4.015c0,2.007,2.009,4.015,4.015,4.015h4.016V305.761z"/>
<path fill="#FFFFFF" d="M495.662,300.987v38.99c0,1.06-0.239,1.919-0.534,1.919h-12.312c-0.297,0-0.536-0.859-0.536-1.919v-38.99
	c0-1.06,0.239-1.919,0.536-1.919h12.312C495.422,299.068,495.662,299.928,495.662,300.987"/>
<path fill="none" stroke="#010101" stroke-width="0.6946" stroke-miterlimit="10" d="M495.662,300.987v38.99
	c0,1.06-0.239,1.919-0.534,1.919h-12.312c-0.297,0-0.536-0.859-0.536-1.919v-38.99c0-1.06,0.239-1.919,0.536-1.919h12.312
	C495.422,299.068,495.662,299.928,495.662,300.987z"/>
<line fill="#010101" x1="267.965" y1="266.055" x2="126.719" y2="266.055"/>
<line fill="none" stroke="#676767" stroke-width="2.2973" stroke-miterlimit="10" x1="267.965" y1="266.055" x2="126.719" y2="266.055"/>
<path fill="none" stroke="#6B6868" stroke-width="1.0338" stroke-miterlimit="10" d="M170.439,45.225v4.015
	c0,2.008,2.008,4.015,4.016,4.015c2.007,0,4.015-2.007,4.015-4.015v-4.015H170.439z"/>
<path fill="none" stroke="#6B6868" stroke-width="1.0338" stroke-miterlimit="10" d="M161.071,45.225v4.015
	c0,2.008,2.007,4.015,4.015,4.015s4.015-2.007,4.015-4.015v-4.015H161.071z"/>
<path fill="none" stroke="#6B6868" stroke-width="1.0338" stroke-miterlimit="10" d="M151.702,45.225v4.015
	c0,2.008,2.008,4.015,4.016,4.015s4.015-2.007,4.015-4.015v-4.015H151.702z"/>
<path fill="none" stroke="#6B6868" stroke-width="1.0338" stroke-miterlimit="10" d="M142.334,45.225v4.015
	c0,2.008,2.007,4.015,4.015,4.015s4.015-2.007,4.015-4.015v-4.015H142.334z"/>
<path fill="none" stroke="#6B6868" stroke-width="1.0338" stroke-miterlimit="10" d="M132.965,45.225v4.015
	c0,2.008,2.007,4.015,4.015,4.015s4.015-2.007,4.015-4.015v-4.015H132.965z"/>
<path fill="none" stroke="#6B6868" stroke-width="1.0338" stroke-miterlimit="10" d="M238.696,44.778v4.015
	c0,2.008,2.008,4.015,4.015,4.015c2.008,0,4.016-2.007,4.016-4.015v-4.015H238.696z"/>
<path fill="none" stroke="#6B6868" stroke-width="1.0338" stroke-miterlimit="10" d="M229.327,44.778v4.015
	c0,2.008,2.008,4.015,4.016,4.015c2.007,0,4.015-2.007,4.015-4.015v-4.015H229.327z"/>
<path fill="none" stroke="#6B6868" stroke-width="1.0338" stroke-miterlimit="10" d="M219.958,44.778v4.015
	c0,2.008,2.008,4.015,4.015,4.015c2.008,0,4.016-2.007,4.016-4.015v-4.015H219.958z"/>
<path fill="none" stroke="#6B6868" stroke-width="1.0338" stroke-miterlimit="10" d="M210.59,44.778v4.015
	c0,2.008,2.008,4.015,4.015,4.015s4.015-2.007,4.015-4.015v-4.015H210.59z"/>
<path fill="none" stroke="#6B6868" stroke-width="1.0338" stroke-miterlimit="10" d="M201.222,44.778v4.015
	c0,2.008,2.007,4.015,4.015,4.015c2.007,0,4.015-2.007,4.015-4.015v-4.015H201.222z"/>
<path fill="none" stroke="#6B6868" stroke-width="1.0338" stroke-miterlimit="10" d="M170.439,63.962v4.015
	c0,2.007,2.008,4.016,4.016,4.016c2.007,0,4.015-2.008,4.015-4.016v-4.015H170.439z"/>
<path fill="none" stroke="#6B6868" stroke-width="1.0338" stroke-miterlimit="10" d="M161.071,63.962v4.015
	c0,2.007,2.007,4.016,4.015,4.016s4.015-2.008,4.015-4.016v-4.015H161.071z"/>
<path fill="none" stroke="#6B6868" stroke-width="1.0338" stroke-miterlimit="10" d="M151.702,63.962v4.015
	c0,2.007,2.008,4.016,4.016,4.016s4.015-2.008,4.015-4.016v-4.015H151.702z"/>
<path fill="none" stroke="#6B6868" stroke-width="1.0338" stroke-miterlimit="10" d="M142.334,63.962v4.015
	c0,2.007,2.007,4.016,4.015,4.016s4.015-2.008,4.015-4.016v-4.015H142.334z"/>
<path fill="none" stroke="#6B6868" stroke-width="1.0338" stroke-miterlimit="10" d="M132.965,63.962v4.015
	c0,2.007,2.007,4.016,4.015,4.016s4.015-2.008,4.015-4.016v-4.015H132.965z"/>
<path fill="none" stroke="#6B6868" stroke-width="1.0338" stroke-miterlimit="10" d="M238.696,63.517v4.015
	c0,2.007,2.008,4.016,4.015,4.016c2.008,0,4.016-2.008,4.016-4.016v-4.015H238.696z"/>
<path fill="none" stroke="#6B6868" stroke-width="1.0338" stroke-miterlimit="10" d="M229.327,63.517v4.015
	c0,2.007,2.008,4.016,4.016,4.016c2.007,0,4.015-2.008,4.015-4.016v-4.015H229.327z"/>
<path fill="none" stroke="#6B6868" stroke-width="1.0338" stroke-miterlimit="10" d="M219.958,63.517v4.015
	c0,2.007,2.008,4.016,4.015,4.016c2.008,0,4.016-2.008,4.016-4.016v-4.015H219.958z"/>
<path fill="none" stroke="#6B6868" stroke-width="1.0338" stroke-miterlimit="10" d="M210.59,63.517v4.015
	c0,2.007,2.008,4.016,4.015,4.016s4.015-2.008,4.015-4.016v-4.015H210.59z"/>
<path fill="none" stroke="#6B6868" stroke-width="1.0338" stroke-miterlimit="10" d="M201.222,63.517v4.015
	c0,2.007,2.007,4.016,4.015,4.016c2.007,0,4.015-2.008,4.015-4.016v-4.015H201.222z"/>
<path fill="none" stroke="#6B6868" stroke-width="1.0338" stroke-miterlimit="10" d="M170.439,82.252v4.015
	c0,2.008,2.008,4.016,4.016,4.016c2.007,0,4.015-2.007,4.015-4.016v-4.015H170.439z"/>
<path fill="none" stroke="#6B6868" stroke-width="1.0338" stroke-miterlimit="10" d="M161.071,82.252v4.015
	c0,2.008,2.007,4.016,4.015,4.016s4.015-2.007,4.015-4.016v-4.015H161.071z"/>
<path fill="none" stroke="#6B6868" stroke-width="1.0338" stroke-miterlimit="10" d="M151.702,82.252v4.015
	c0,2.008,2.008,4.016,4.016,4.016s4.015-2.007,4.015-4.016v-4.015H151.702z"/>
<path fill="none" stroke="#6B6868" stroke-width="1.0338" stroke-miterlimit="10" d="M142.334,82.252v4.015
	c0,2.008,2.007,4.016,4.015,4.016s4.015-2.007,4.015-4.016v-4.015H142.334z"/>
<path fill="none" stroke="#6B6868" stroke-width="1.0338" stroke-miterlimit="10" d="M132.965,82.252v4.015
	c0,2.008,2.007,4.016,4.015,4.016s4.015-2.007,4.015-4.016v-4.015H132.965z"/>
<path fill="none" stroke="#6B6868" stroke-width="1.0338" stroke-miterlimit="10" d="M239.143,82.7v4.015
	c0,2.007,2.007,4.015,4.015,4.015c2.007,0,4.015-2.007,4.015-4.015V82.7H239.143z"/>
<path fill="none" stroke="#6B6868" stroke-width="1.0338" stroke-miterlimit="10" d="M229.773,82.7v4.015
	c0,2.007,2.007,4.015,4.015,4.015c2.008,0,4.015-2.007,4.015-4.015V82.7H229.773z"/>
<path fill="none" stroke="#6B6868" stroke-width="1.0338" stroke-miterlimit="10" d="M220.405,82.7v4.015
	c0,2.007,2.008,4.015,4.015,4.015c2.008,0,4.015-2.007,4.015-4.015V82.7H220.405z"/>
<path fill="none" stroke="#6B6868" stroke-width="1.0338" stroke-miterlimit="10" d="M211.037,82.7v4.015
	c0,2.007,2.008,4.015,4.015,4.015c2.008,0,4.016-2.007,4.016-4.015V82.7H211.037z"/>
<path fill="none" stroke="#6B6868" stroke-width="1.0338" stroke-miterlimit="10" d="M201.668,82.7v4.015
	c0,2.007,2.008,4.015,4.016,4.015c2.007,0,4.015-2.007,4.015-4.015V82.7H201.668z"/>
<path fill="none" stroke="#6B6868" stroke-width="1.0338" stroke-miterlimit="10" d="M170.439,100.99v4.015
	c0,2.008,2.008,4.015,4.016,4.015c2.007,0,4.015-2.006,4.015-4.015v-4.015H170.439z"/>
<path fill="none" stroke="#6B6868" stroke-width="1.0338" stroke-miterlimit="10" d="M161.071,100.99v4.015
	c0,2.008,2.007,4.015,4.015,4.015s4.015-2.006,4.015-4.015v-4.015H161.071z"/>
<path fill="none" stroke="#6B6868" stroke-width="1.0338" stroke-miterlimit="10" d="M151.702,100.99v4.015
	c0,2.008,2.008,4.015,4.016,4.015s4.015-2.006,4.015-4.015v-4.015H151.702z"/>
<path fill="none" stroke="#6B6868" stroke-width="1.0338" stroke-miterlimit="10" d="M142.334,100.99v4.015
	c0,2.008,2.007,4.015,4.015,4.015s4.015-2.006,4.015-4.015v-4.015H142.334z"/>
<path fill="none" stroke="#6B6868" stroke-width="1.0338" stroke-miterlimit="10" d="M132.965,100.99v4.015
	c0,2.008,2.007,4.015,4.015,4.015s4.015-2.006,4.015-4.015v-4.015H132.965z"/>
<path fill="none" stroke="#6B6868" stroke-width="1.0338" stroke-miterlimit="10" d="M239.143,101.436v4.017
	c0,2.006,2.007,4.015,4.015,4.015c2.007,0,4.015-2.008,4.015-4.015v-4.017H239.143z"/>
<path fill="none" stroke="#6B6868" stroke-width="1.0338" stroke-miterlimit="10" d="M229.773,101.436v4.017
	c0,2.006,2.007,4.015,4.015,4.015c2.008,0,4.015-2.008,4.015-4.015v-4.017H229.773z"/>
<path fill="none" stroke="#6B6868" stroke-width="1.0338" stroke-miterlimit="10" d="M220.405,101.436v4.017
	c0,2.006,2.008,4.015,4.015,4.015c2.008,0,4.015-2.008,4.015-4.015v-4.017H220.405z"/>
<path fill="none" stroke="#6B6868" stroke-width="1.0338" stroke-miterlimit="10" d="M211.037,101.436v4.017
	c0,2.006,2.008,4.015,4.015,4.015c2.008,0,4.016-2.008,4.016-4.015v-4.017H211.037z"/>
<path fill="none" stroke="#6B6868" stroke-width="1.0338" stroke-miterlimit="10" d="M201.668,101.436v4.017
	c0,2.006,2.008,4.015,4.016,4.015c2.007,0,4.015-2.008,4.015-4.015v-4.017H201.668z"/>
<path fill="none" stroke="#6B6868" stroke-width="1.0338" stroke-miterlimit="10" d="M170.439,120.173v4.016
	c0,2.007,2.008,4.016,4.016,4.016c2.007,0,4.015-2.008,4.015-4.016v-4.016H170.439z"/>
<path fill="none" stroke="#6B6868" stroke-width="1.0338" stroke-miterlimit="10" d="M161.071,120.173v4.016
	c0,2.007,2.007,4.016,4.015,4.016s4.015-2.008,4.015-4.016v-4.016H161.071z"/>
<path fill="none" stroke="#6B6868" stroke-width="1.0338" stroke-miterlimit="10" d="M151.702,120.173v4.016
	c0,2.007,2.008,4.016,4.016,4.016s4.015-2.008,4.015-4.016v-4.016H151.702z"/>
<path fill="none" stroke="#6B6868" stroke-width="1.0338" stroke-miterlimit="10" d="M142.334,120.173v4.016
	c0,2.007,2.007,4.016,4.015,4.016s4.015-2.008,4.015-4.016v-4.016H142.334z"/>
<path fill="none" stroke="#6B6868" stroke-width="1.0338" stroke-miterlimit="10" d="M132.965,120.173v4.016
	c0,2.007,2.007,4.016,4.015,4.016s4.015-2.008,4.015-4.016v-4.016H132.965z"/>
<path fill="none" stroke="#6B6868" stroke-width="1.0338" stroke-miterlimit="10" d="M239.143,120.173v4.016
	c0,2.007,2.007,4.016,4.015,4.016c2.007,0,4.015-2.008,4.015-4.016v-4.016H239.143z"/>
<path fill="none" stroke="#6B6868" stroke-width="1.0338" stroke-miterlimit="10" d="M229.773,120.173v4.016
	c0,2.007,2.007,4.016,4.015,4.016c2.008,0,4.015-2.008,4.015-4.016v-4.016H229.773z"/>
<path fill="none" stroke="#6B6868" stroke-width="1.0338" stroke-miterlimit="10" d="M220.405,120.173v4.016
	c0,2.007,2.008,4.016,4.015,4.016c2.008,0,4.015-2.008,4.015-4.016v-4.016H220.405z"/>
<path fill="none" stroke="#6B6868" stroke-width="1.0338" stroke-miterlimit="10" d="M211.037,120.173v4.016
	c0,2.007,2.008,4.016,4.015,4.016c2.008,0,4.016-2.008,4.016-4.016v-4.016H211.037z"/>
<path fill="none" stroke="#6B6868" stroke-width="1.0338" stroke-miterlimit="10" d="M201.668,120.173v4.016
	c0,2.007,2.008,4.016,4.016,4.016c2.007,0,4.015-2.008,4.015-4.016v-4.016H201.668z"/>
<path fill="none" stroke="#6B6868" stroke-width="1.0338" stroke-miterlimit="10" d="M170.439,138.91v4.015
	c0,2.008,2.008,4.016,4.016,4.016c2.007,0,4.015-2.007,4.015-4.016v-4.015H170.439z"/>
<path fill="none" stroke="#6B6868" stroke-width="1.0338" stroke-miterlimit="10" d="M161.071,138.91v4.015
	c0,2.008,2.007,4.016,4.015,4.016s4.015-2.007,4.015-4.016v-4.015H161.071z"/>
<path fill="none" stroke="#6B6868" stroke-width="1.0338" stroke-miterlimit="10" d="M151.702,138.91v4.015
	c0,2.008,2.008,4.016,4.016,4.016s4.015-2.007,4.015-4.016v-4.015H151.702z"/>
<path fill="none" stroke="#6B6868" stroke-width="1.0338" stroke-miterlimit="10" d="M142.334,138.91v4.015
	c0,2.008,2.007,4.016,4.015,4.016s4.015-2.007,4.015-4.016v-4.015H142.334z"/>
<path fill="none" stroke="#6B6868" stroke-width="1.0338" stroke-miterlimit="10" d="M132.965,138.91v4.015
	c0,2.008,2.007,4.016,4.015,4.016s4.015-2.007,4.015-4.016v-4.015H132.965z"/>
<path fill="none" stroke="#6B6868" stroke-width="1.0338" stroke-miterlimit="10" d="M239.143,138.91v4.015
	c0,2.008,2.007,4.016,4.015,4.016c2.007,0,4.015-2.007,4.015-4.016v-4.015H239.143z"/>
<path fill="none" stroke="#6B6868" stroke-width="1.0338" stroke-miterlimit="10" d="M229.773,138.91v4.015
	c0,2.008,2.007,4.016,4.015,4.016c2.008,0,4.015-2.007,4.015-4.016v-4.015H229.773z"/>
<path fill="none" stroke="#6B6868" stroke-width="1.0338" stroke-miterlimit="10" d="M220.405,138.91v4.015
	c0,2.008,2.008,4.016,4.015,4.016c2.008,0,4.015-2.007,4.015-4.016v-4.015H220.405z"/>
<path fill="none" stroke="#6B6868" stroke-width="1.0338" stroke-miterlimit="10" d="M211.037,138.91v4.015
	c0,2.008,2.008,4.016,4.015,4.016c2.008,0,4.016-2.007,4.016-4.016v-4.015H211.037z"/>
<path fill="none" stroke="#6B6868" stroke-width="1.0338" stroke-miterlimit="10" d="M201.668,138.91v4.015
	c0,2.008,2.008,4.016,4.016,4.016c2.007,0,4.015-2.007,4.015-4.016v-4.015H201.668z"/>
<path fill="none" stroke="#6B6868" stroke-width="1.0338" stroke-miterlimit="10" d="M170.439,157.648v4.015
	c0,2.006,2.008,4.015,4.016,4.015c2.007,0,4.015-2.008,4.015-4.015v-4.015H170.439z"/>
<path fill="none" stroke="#6B6868" stroke-width="1.0338" stroke-miterlimit="10" d="M161.071,157.648v4.015
	c0,2.006,2.007,4.015,4.015,4.015s4.015-2.008,4.015-4.015v-4.015H161.071z"/>
<path fill="none" stroke="#6B6868" stroke-width="1.0338" stroke-miterlimit="10" d="M151.702,157.648v4.015
	c0,2.006,2.008,4.015,4.016,4.015s4.015-2.008,4.015-4.015v-4.015H151.702z"/>
<path fill="none" stroke="#6B6868" stroke-width="1.0338" stroke-miterlimit="10" d="M142.334,157.648v4.015
	c0,2.006,2.007,4.015,4.015,4.015s4.015-2.008,4.015-4.015v-4.015H142.334z"/>
<path fill="none" stroke="#6B6868" stroke-width="1.0338" stroke-miterlimit="10" d="M132.965,157.648v4.015
	c0,2.006,2.007,4.015,4.015,4.015s4.015-2.008,4.015-4.015v-4.015H132.965z"/>
<path fill="none" stroke="#6B6868" stroke-width="1.0338" stroke-miterlimit="10" d="M239.143,157.648v4.015
	c0,2.006,2.007,4.015,4.015,4.015c2.007,0,4.015-2.008,4.015-4.015v-4.015H239.143z"/>
<path fill="none" stroke="#6B6868" stroke-width="1.0338" stroke-miterlimit="10" d="M229.773,157.648v4.015
	c0,2.006,2.007,4.015,4.015,4.015c2.008,0,4.015-2.008,4.015-4.015v-4.015H229.773z"/>
<path fill="none" stroke="#6B6868" stroke-width="1.0338" stroke-miterlimit="10" d="M220.405,157.648v4.015
	c0,2.006,2.008,4.015,4.015,4.015c2.008,0,4.015-2.008,4.015-4.015v-4.015H220.405z"/>
<path fill="none" stroke="#6B6868" stroke-width="1.0338" stroke-miterlimit="10" d="M211.037,157.648v4.015
	c0,2.006,2.008,4.015,4.015,4.015c2.008,0,4.016-2.008,4.016-4.015v-4.015H211.037z"/>
<path fill="none" stroke="#6B6868" stroke-width="1.0338" stroke-miterlimit="10" d="M201.668,157.648v4.015
	c0,2.006,2.008,4.015,4.016,4.015c2.007,0,4.015-2.008,4.015-4.015v-4.015H201.668z"/>
<path fill="none" stroke="#6B6868" stroke-width="1.0338" stroke-miterlimit="10" d="M170.439,176.385v4.015
	c0,2.008,2.008,4.016,4.016,4.016c2.007,0,4.015-2.007,4.015-4.016v-4.015H170.439z"/>
<path fill="none" stroke="#6B6868" stroke-width="1.0338" stroke-miterlimit="10" d="M161.071,176.385v4.015
	c0,2.008,2.007,4.016,4.015,4.016s4.015-2.007,4.015-4.016v-4.015H161.071z"/>
<path fill="none" stroke="#6B6868" stroke-width="1.0338" stroke-miterlimit="10" d="M151.702,176.385v4.015
	c0,2.008,2.008,4.016,4.016,4.016s4.015-2.007,4.015-4.016v-4.015H151.702z"/>
<path fill="none" stroke="#6B6868" stroke-width="1.0338" stroke-miterlimit="10" d="M142.334,176.385v4.015
	c0,2.008,2.007,4.016,4.015,4.016s4.015-2.007,4.015-4.016v-4.015H142.334z"/>
<path fill="none" stroke="#6B6868" stroke-width="1.0338" stroke-miterlimit="10" d="M132.965,176.385v4.015
	c0,2.008,2.007,4.016,4.015,4.016s4.015-2.007,4.015-4.016v-4.015H132.965z"/>
<path fill="none" stroke="#6B6868" stroke-width="1.0338" stroke-miterlimit="10" d="M239.143,176.385v4.015
	c0,2.008,2.007,4.016,4.015,4.016c2.007,0,4.015-2.007,4.015-4.016v-4.015H239.143z"/>
<path fill="none" stroke="#6B6868" stroke-width="1.0338" stroke-miterlimit="10" d="M229.773,176.385v4.015
	c0,2.008,2.007,4.016,4.015,4.016c2.008,0,4.015-2.007,4.015-4.016v-4.015H229.773z"/>
<path fill="none" stroke="#6B6868" stroke-width="1.0338" stroke-miterlimit="10" d="M220.405,176.385v4.015
	c0,2.008,2.008,4.016,4.015,4.016c2.008,0,4.015-2.007,4.015-4.016v-4.015H220.405z"/>
<path fill="none" stroke="#6B6868" stroke-width="1.0338" stroke-miterlimit="10" d="M211.037,176.385v4.015
	c0,2.008,2.008,4.016,4.015,4.016c2.008,0,4.016-2.007,4.016-4.016v-4.015H211.037z"/>
<path fill="none" stroke="#6B6868" stroke-width="1.0338" stroke-miterlimit="10" d="M201.668,176.385v4.015
	c0,2.008,2.008,4.016,4.016,4.016c2.007,0,4.015-2.007,4.015-4.016v-4.015H201.668z"/>
<path fill="none" stroke="#6B6868" stroke-width="1.0338" stroke-miterlimit="10" d="M170.439,195.122v4.015
	c0,2.008,2.008,4.015,4.016,4.015c2.007,0,4.015-2.006,4.015-4.015v-4.015H170.439z"/>
<path fill="none" stroke="#6B6868" stroke-width="1.0338" stroke-miterlimit="10" d="M161.071,195.122v4.015
	c0,2.008,2.007,4.015,4.015,4.015s4.015-2.006,4.015-4.015v-4.015H161.071z"/>
<path fill="none" stroke="#6B6868" stroke-width="1.0338" stroke-miterlimit="10" d="M151.702,195.122v4.015
	c0,2.008,2.008,4.015,4.016,4.015s4.015-2.006,4.015-4.015v-4.015H151.702z"/>
<path fill="none" stroke="#6B6868" stroke-width="1.0338" stroke-miterlimit="10" d="M142.334,195.122v4.015
	c0,2.008,2.007,4.015,4.015,4.015s4.015-2.006,4.015-4.015v-4.015H142.334z"/>
<path fill="none" stroke="#6B6868" stroke-width="1.0338" stroke-miterlimit="10" d="M132.965,195.122v4.015
	c0,2.008,2.007,4.015,4.015,4.015s4.015-2.006,4.015-4.015v-4.015H132.965z"/>
<path fill="none" stroke="#6B6868" stroke-width="1.0338" stroke-miterlimit="10" d="M239.143,195.122v4.015
	c0,2.008,2.007,4.015,4.015,4.015c2.007,0,4.015-2.006,4.015-4.015v-4.015H239.143z"/>
<path fill="none" stroke="#6B6868" stroke-width="1.0338" stroke-miterlimit="10" d="M229.773,195.122v4.015
	c0,2.008,2.007,4.015,4.015,4.015c2.008,0,4.015-2.006,4.015-4.015v-4.015H229.773z"/>
<path fill="none" stroke="#6B6868" stroke-width="1.0338" stroke-miterlimit="10" d="M220.405,195.122v4.015
	c0,2.008,2.008,4.015,4.015,4.015c2.008,0,4.015-2.006,4.015-4.015v-4.015H220.405z"/>
<path fill="none" stroke="#6B6868" stroke-width="1.0338" stroke-miterlimit="10" d="M211.037,195.122v4.015
	c0,2.008,2.008,4.015,4.015,4.015c2.008,0,4.016-2.006,4.016-4.015v-4.015H211.037z"/>
<path fill="none" stroke="#6B6868" stroke-width="1.0338" stroke-miterlimit="10" d="M201.668,195.122v4.015
	c0,2.008,2.008,4.015,4.016,4.015c2.007,0,4.015-2.006,4.015-4.015v-4.015H201.668z"/>
<path fill="none" stroke="#6B6868" stroke-width="1.0338" stroke-miterlimit="10" d="M170.439,213.859v4.015
	c0,2.007,2.008,4.015,4.016,4.015c2.007,0,4.015-2.008,4.015-4.015v-4.015H170.439z"/>
<path fill="none" stroke="#6B6868" stroke-width="1.0338" stroke-miterlimit="10" d="M161.071,213.859v4.015
	c0,2.007,2.007,4.015,4.015,4.015s4.015-2.008,4.015-4.015v-4.015H161.071z"/>
<path fill="none" stroke="#6B6868" stroke-width="1.0338" stroke-miterlimit="10" d="M151.702,213.859v4.015
	c0,2.007,2.008,4.015,4.016,4.015s4.015-2.008,4.015-4.015v-4.015H151.702z"/>
<path fill="none" stroke="#6B6868" stroke-width="1.0338" stroke-miterlimit="10" d="M142.334,213.859v4.015
	c0,2.007,2.007,4.015,4.015,4.015s4.015-2.008,4.015-4.015v-4.015H142.334z"/>
<path fill="none" stroke="#6B6868" stroke-width="1.0338" stroke-miterlimit="10" d="M132.965,213.859v4.015
	c0,2.007,2.007,4.015,4.015,4.015s4.015-2.008,4.015-4.015v-4.015H132.965z"/>
<path fill="none" stroke="#6B6868" stroke-width="1.0338" stroke-miterlimit="10" d="M239.143,213.859v4.015
	c0,2.007,2.007,4.015,4.015,4.015c2.007,0,4.015-2.008,4.015-4.015v-4.015H239.143z"/>
<path fill="none" stroke="#6B6868" stroke-width="1.0338" stroke-miterlimit="10" d="M229.773,213.859v4.015
	c0,2.007,2.007,4.015,4.015,4.015c2.008,0,4.015-2.008,4.015-4.015v-4.015H229.773z"/>
<path fill="none" stroke="#6B6868" stroke-width="1.0338" stroke-miterlimit="10" d="M220.405,213.859v4.015
	c0,2.007,2.008,4.015,4.015,4.015c2.008,0,4.015-2.008,4.015-4.015v-4.015H220.405z"/>
<path fill="none" stroke="#6B6868" stroke-width="1.0338" stroke-miterlimit="10" d="M211.037,213.859v4.015
	c0,2.007,2.008,4.015,4.015,4.015c2.008,0,4.016-2.008,4.016-4.015v-4.015H211.037z"/>
<path fill="none" stroke="#6B6868" stroke-width="1.0338" stroke-miterlimit="10" d="M201.668,213.859v4.015
	c0,2.007,2.008,4.015,4.016,4.015c2.007,0,4.015-2.008,4.015-4.015v-4.015H201.668z"/>
<path fill="none" stroke="#6B6868" stroke-width="1.0338" stroke-miterlimit="10" d="M170.439,232.596v4.015
	c0,2.008,2.008,4.017,4.016,4.017c2.007,0,4.015-2.009,4.015-4.017v-4.015H170.439z"/>
<path fill="none" stroke="#6B6868" stroke-width="1.0338" stroke-miterlimit="10" d="M161.071,232.596v4.015
	c0,2.008,2.007,4.017,4.015,4.017s4.015-2.009,4.015-4.017v-4.015H161.071z"/>
<path fill="none" stroke="#6B6868" stroke-width="1.0338" stroke-miterlimit="10" d="M151.702,232.596v4.015
	c0,2.008,2.008,4.017,4.016,4.017s4.015-2.009,4.015-4.017v-4.015H151.702z"/>
<path fill="none" stroke="#6B6868" stroke-width="1.0338" stroke-miterlimit="10" d="M142.334,232.596v4.015
	c0,2.008,2.007,4.017,4.015,4.017s4.015-2.009,4.015-4.017v-4.015H142.334z"/>
<path fill="none" stroke="#6B6868" stroke-width="1.0338" stroke-miterlimit="10" d="M132.965,232.596v4.015
	c0,2.008,2.007,4.017,4.015,4.017s4.015-2.009,4.015-4.017v-4.015H132.965z"/>
<path fill="none" stroke="#6B6868" stroke-width="1.0338" stroke-miterlimit="10" d="M239.143,232.596v4.015
	c0,2.008,2.007,4.017,4.015,4.017c2.007,0,4.015-2.009,4.015-4.017v-4.015H239.143z"/>
<path fill="none" stroke="#6B6868" stroke-width="1.0338" stroke-miterlimit="10" d="M229.773,232.596v4.015
	c0,2.008,2.007,4.017,4.015,4.017c2.008,0,4.015-2.009,4.015-4.017v-4.015H229.773z"/>
<path fill="none" stroke="#6B6868" stroke-width="1.0338" stroke-miterlimit="10" d="M220.405,232.596v4.015
	c0,2.008,2.008,4.017,4.015,4.017c2.008,0,4.015-2.009,4.015-4.017v-4.015H220.405z"/>
<path fill="none" stroke="#6B6868" stroke-width="1.0338" stroke-miterlimit="10" d="M211.037,232.596v4.015
	c0,2.008,2.008,4.017,4.015,4.017c2.008,0,4.016-2.009,4.016-4.017v-4.015H211.037z"/>
<path fill="none" stroke="#6B6868" stroke-width="1.0338" stroke-miterlimit="10" d="M201.668,232.596v4.015
	c0,2.008,2.008,4.017,4.016,4.017c2.007,0,4.015-2.009,4.015-4.017v-4.015H201.668z"/>
<path fill="none" stroke="#6B6868" stroke-width="1.0338" stroke-miterlimit="10" d="M170.439,251.332v4.017
	c0,2.007,2.008,4.015,4.016,4.015c2.007,0,4.015-2.008,4.015-4.015v-4.017H170.439z"/>
<path fill="none" stroke="#6B6868" stroke-width="1.0338" stroke-miterlimit="10" d="M161.071,251.332v4.017
	c0,2.007,2.007,4.015,4.015,4.015s4.015-2.008,4.015-4.015v-4.017H161.071z"/>
<path fill="none" stroke="#6B6868" stroke-width="1.0338" stroke-miterlimit="10" d="M151.702,251.332v4.017
	c0,2.007,2.008,4.015,4.016,4.015s4.015-2.008,4.015-4.015v-4.017H151.702z"/>
<path fill="none" stroke="#6B6868" stroke-width="1.0338" stroke-miterlimit="10" d="M142.334,251.332v4.017
	c0,2.007,2.007,4.015,4.015,4.015s4.015-2.008,4.015-4.015v-4.017H142.334z"/>
<path fill="none" stroke="#6B6868" stroke-width="1.0338" stroke-miterlimit="10" d="M132.965,251.332v4.017
	c0,2.007,2.007,4.015,4.015,4.015s4.015-2.008,4.015-4.015v-4.017H132.965z"/>
<path fill="none" stroke="#6B6868" stroke-width="1.0338" stroke-miterlimit="10" d="M239.143,251.332v4.017
	c0,2.007,2.007,4.015,4.015,4.015c2.007,0,4.015-2.008,4.015-4.015v-4.017H239.143z"/>
<path fill="none" stroke="#6B6868" stroke-width="1.0338" stroke-miterlimit="10" d="M229.773,251.332v4.017
	c0,2.007,2.007,4.015,4.015,4.015c2.008,0,4.015-2.008,4.015-4.015v-4.017H229.773z"/>
<path fill="none" stroke="#6B6868" stroke-width="1.0338" stroke-miterlimit="10" d="M220.405,251.332v4.017
	c0,2.007,2.008,4.015,4.015,4.015c2.008,0,4.015-2.008,4.015-4.015v-4.017H220.405z"/>
<path fill="none" stroke="#6B6868" stroke-width="1.0338" stroke-miterlimit="10" d="M211.037,251.332v4.017
	c0,2.007,2.008,4.015,4.015,4.015c2.008,0,4.016-2.008,4.016-4.015v-4.017H211.037z"/>
<path fill="none" stroke="#6B6868" stroke-width="1.0338" stroke-miterlimit="10" d="M201.668,251.332v4.017
	c0,2.007,2.008,4.015,4.016,4.015c2.007,0,4.015-2.008,4.015-4.015v-4.017H201.668z"/>
<rect x="137.061" y="18.333" fill="none" width="96.667" height="17.333"/>
<text transform="matrix(1 0 0 1 156.4663 26.4692)" font-family="'MyriadPro-Regular'" font-size="11.4588">TECH TALKS</text>
<rect x="147.061" y="299.068" fill="none" width="91.333" height="45.932"/>
<text transform="matrix(1 0 0 1 174.1523 307.2041)"><tspan x="0" y="0" font-family="'MyriadPro-Regular'" font-size="11.4588">Storage</tspan><tspan x="4.423" y="13.751" font-family="'MyriadPro-Regular'" font-size="11.4588">Room</tspan></text>
</svg>
