<?xml version="1.0" encoding="utf-8"?>
<!-- Generator: Adobe Illustrator 15.1.0, SVG Export Plug-In . SVG Version: 6.00 Build 0)  -->
<!DOCTYPE svg PUBLIC "-//W3C//DTD SVG 1.1//EN" "http://www.w3.org/Graphics/SVG/1.1/DTD/svg11.dtd">
<svg version="1.1" id="Layer_1" xmlns="http://www.w3.org/2000/svg" xmlns:xlink="http://www.w3.org/1999/xlink" x="0px" y="0px"
	 width="655.653px" height="444.579px" viewBox="0 0 655.653 444.579" enable-background="new 0 0 655.653 444.579"
	 xml:space="preserve">
<g>
	<line fill="#010101" x1="580.356" y1="136.4" x2="580.356" y2="141.241"/>
	
		<line fill="none" stroke="#010101" stroke-width="0.7991" stroke-linecap="round" stroke-miterlimit="10" x1="580.356" y1="136.4" x2="580.356" y2="141.241"/>
	<line fill="#010101" x1="615.855" y1="136.4" x2="580.356" y2="136.4"/>
	
		<line fill="none" stroke="#010101" stroke-width="0.7991" stroke-linecap="round" stroke-miterlimit="10" x1="615.855" y1="136.4" x2="580.356" y2="136.4"/>
	<line fill="#010101" x1="615.855" y1="68.093" x2="615.855" y2="136.4"/>
	
		<line fill="none" stroke="#010101" stroke-width="0.7991" stroke-linecap="round" stroke-miterlimit="10" x1="615.855" y1="68.093" x2="615.855" y2="136.4"/>
	<line fill="#010101" x1="528.721" y1="68.093" x2="615.855" y2="68.093"/>
	
		<line fill="none" stroke="#010101" stroke-width="0.7991" stroke-linecap="round" stroke-miterlimit="10" x1="528.721" y1="68.093" x2="615.855" y2="68.093"/>
	<line fill="#010101" x1="528.721" y1="134.788" x2="528.721" y2="68.093"/>
	
		<line fill="none" stroke="#010101" stroke-width="0.7991" stroke-linecap="round" stroke-miterlimit="10" x1="528.721" y1="134.788" x2="528.721" y2="68.093"/>
	<line fill="#010101" x1="561.53" y1="134.788" x2="528.721" y2="134.788"/>
	
		<line fill="none" stroke="#010101" stroke-width="0.7991" stroke-linecap="round" stroke-miterlimit="10" x1="561.53" y1="134.788" x2="528.721" y2="134.788"/>
	<line fill="#010101" x1="561.53" y1="141.241" x2="561.53" y2="134.788"/>
	
		<line fill="none" stroke="#010101" stroke-width="0.7991" stroke-linecap="round" stroke-miterlimit="10" x1="561.53" y1="141.241" x2="561.53" y2="134.788"/>
	<line fill="#010101" x1="561.53" y1="141.241" x2="477.086" y2="141.241"/>
	
		<line fill="none" stroke="#010101" stroke-width="0.7991" stroke-linecap="round" stroke-miterlimit="10" x1="561.53" y1="141.241" x2="477.086" y2="141.241"/>
	<line fill="#010101" x1="604.023" y1="141.241" x2="561.53" y2="141.241"/>
	
		<line fill="none" stroke="#010101" stroke-width="0.7991" stroke-linecap="round" stroke-miterlimit="10" x1="604.023" y1="141.241" x2="561.53" y2="141.241"/>
	<line fill="#010101" x1="320.032" y1="139.63" x2="285.071" y2="139.63"/>
	
		<line fill="none" stroke="#010101" stroke-width="0.7991" stroke-linecap="round" stroke-miterlimit="10" x1="320.032" y1="139.63" x2="285.071" y2="139.63"/>
	<line fill="#010101" x1="320.032" y1="202.021" x2="320.032" y2="139.63"/>
	
		<line fill="none" stroke="#010101" stroke-width="0.7991" stroke-linecap="round" stroke-miterlimit="10" x1="320.032" y1="202.021" x2="320.032" y2="139.63"/>
	<line fill="#010101" x1="322.72" y1="202.021" x2="320.032" y2="202.021"/>
	
		<line fill="none" stroke="#010101" stroke-width="0.7991" stroke-linecap="round" stroke-miterlimit="10" x1="322.72" y1="202.021" x2="320.032" y2="202.021"/>
	<line fill="#010101" x1="320.032" y1="240.748" x2="322.72" y2="240.748"/>
	
		<line fill="none" stroke="#010101" stroke-width="0.7991" stroke-linecap="round" stroke-miterlimit="10" x1="320.032" y1="240.748" x2="322.72" y2="240.748"/>
	<line fill="#010101" x1="320.032" y1="267.64" x2="320.032" y2="240.748"/>
	
		<line fill="none" stroke="#010101" stroke-width="0.7991" stroke-linecap="round" stroke-miterlimit="10" x1="320.032" y1="267.64" x2="320.032" y2="240.748"/>
	<line fill="#010101" x1="192.021" y1="267.64" x2="320.032" y2="267.64"/>
	
		<line fill="none" stroke="#010101" stroke-width="0.7991" stroke-linecap="round" stroke-miterlimit="10" x1="192.021" y1="267.64" x2="320.032" y2="267.64"/>
	<line fill="#010101" x1="192.021" y1="240.748" x2="192.021" y2="267.64"/>
	
		<line fill="none" stroke="#010101" stroke-width="0.7991" stroke-linecap="round" stroke-miterlimit="10" x1="192.021" y1="240.748" x2="192.021" y2="267.64"/>
	<line fill="#010101" x1="190.405" y1="240.748" x2="192.021" y2="240.748"/>
	
		<line fill="none" stroke="#010101" stroke-width="0.7991" stroke-linecap="round" stroke-miterlimit="10" x1="190.405" y1="240.748" x2="192.021" y2="240.748"/>
	<line fill="#010101" x1="190.405" y1="240.748" x2="190.405" y2="175.129"/>
	
		<line fill="none" stroke="#010101" stroke-width="0.7991" stroke-linecap="round" stroke-miterlimit="10" x1="190.405" y1="240.748" x2="190.405" y2="175.129"/>
	<line fill="#010101" x1="190.405" y1="275.707" x2="190.405" y2="240.748"/>
	
		<line fill="none" stroke="#010101" stroke-width="0.7991" stroke-linecap="round" stroke-miterlimit="10" x1="190.405" y1="275.707" x2="190.405" y2="240.748"/>
	<line fill="#010101" x1="192.021" y1="202.021" x2="190.405" y2="202.021"/>
	
		<line fill="none" stroke="#010101" stroke-width="0.7991" stroke-linecap="round" stroke-miterlimit="10" x1="192.021" y1="202.021" x2="190.405" y2="202.021"/>
	<line fill="#010101" x1="192.021" y1="139.63" x2="192.021" y2="202.021"/>
	
		<line fill="none" stroke="#010101" stroke-width="0.7991" stroke-linecap="round" stroke-miterlimit="10" x1="192.021" y1="139.63" x2="192.021" y2="202.021"/>
	<line fill="#010101" x1="228.595" y1="139.63" x2="192.021" y2="139.63"/>
	
		<line fill="none" stroke="#010101" stroke-width="0.7991" stroke-linecap="round" stroke-miterlimit="10" x1="228.595" y1="139.63" x2="192.021" y2="139.63"/>
	<line fill="#010101" x1="179.112" y1="175.129" x2="179.112" y2="139.63"/>
	
		<line fill="none" stroke="#010101" stroke-width="0.7991" stroke-linecap="round" stroke-miterlimit="10" x1="179.112" y1="175.129" x2="179.112" y2="139.63"/>
	<line fill="#010101" x1="190.405" y1="175.129" x2="179.112" y2="175.129"/>
	
		<line fill="none" stroke="#010101" stroke-width="0.7991" stroke-linecap="round" stroke-miterlimit="10" x1="190.405" y1="175.129" x2="179.112" y2="175.129"/>
	<line fill="#010101" x1="179.112" y1="275.707" x2="190.405" y2="275.707"/>
	
		<line fill="none" stroke="#010101" stroke-width="0.7991" stroke-linecap="round" stroke-miterlimit="10" x1="179.112" y1="275.707" x2="190.405" y2="275.707"/>
	<line fill="#010101" x1="179.112" y1="310.668" x2="179.112" y2="275.707"/>
	
		<line fill="none" stroke="#010101" stroke-width="0.7991" stroke-linecap="round" stroke-miterlimit="10" x1="179.112" y1="310.668" x2="179.112" y2="275.707"/>
	<line fill="#010101" x1="50.56" y1="310.668" x2="179.112" y2="310.668"/>
	
		<line fill="none" stroke="#010101" stroke-width="0.7991" stroke-linecap="round" stroke-miterlimit="10" x1="50.56" y1="310.668" x2="179.112" y2="310.668"/>
	<line fill="#010101" x1="50.56" y1="275.707" x2="50.56" y2="310.668"/>
	
		<line fill="none" stroke="#010101" stroke-width="0.7991" stroke-linecap="round" stroke-miterlimit="10" x1="50.56" y1="275.707" x2="50.56" y2="310.668"/>
	<line fill="#010101" x1="40.339" y1="275.707" x2="50.56" y2="275.707"/>
	
		<line fill="none" stroke="#010101" stroke-width="0.7991" stroke-linecap="round" stroke-miterlimit="10" x1="40.339" y1="275.707" x2="50.56" y2="275.707"/>
	<line fill="#010101" x1="40.34" y1="175.129" x2="40.339" y2="275.707"/>
	
		<line fill="none" stroke="#010101" stroke-width="0.7991" stroke-linecap="round" stroke-miterlimit="10" x1="40.34" y1="175.129" x2="40.339" y2="275.707"/>
	<line fill="#010101" x1="50.561" y1="175.129" x2="40.34" y2="175.129"/>
	
		<line fill="none" stroke="#010101" stroke-width="0.7991" stroke-linecap="round" stroke-miterlimit="10" x1="50.561" y1="175.129" x2="40.34" y2="175.129"/>
	<line fill="#010101" x1="50.561" y1="139.63" x2="50.561" y2="175.129"/>
	
		<line fill="none" stroke="#010101" stroke-width="0.7991" stroke-linecap="round" stroke-miterlimit="10" x1="50.561" y1="139.63" x2="50.561" y2="175.129"/>
	<line fill="#010101" x1="179.112" y1="139.63" x2="50.561" y2="139.63"/>
	
		<line fill="none" stroke="#010101" stroke-width="0.7991" stroke-linecap="round" stroke-miterlimit="10" x1="179.112" y1="139.63" x2="50.561" y2="139.63"/>
	<line fill="#010101" x1="322.72" y1="202.021" x2="322.72" y2="240.748"/>
	
		<line fill="none" stroke="#010101" stroke-width="0.7991" stroke-linecap="round" stroke-miterlimit="10" x1="322.72" y1="202.021" x2="322.72" y2="240.748"/>
	<line fill="#010101" x1="604.023" y1="310.668" x2="604.023" y2="141.241"/>
	
		<line fill="none" stroke="#010101" stroke-width="0.7991" stroke-linecap="round" stroke-miterlimit="10" x1="604.023" y1="310.668" x2="604.023" y2="141.241"/>
	<line fill="#010101" x1="477.086" y1="310.668" x2="604.023" y2="310.668"/>
	
		<line fill="none" stroke="#010101" stroke-width="0.7991" stroke-linecap="round" stroke-miterlimit="10" x1="477.086" y1="310.668" x2="604.023" y2="310.668"/>
	<line fill="#010101" x1="477.086" y1="301.525" x2="477.086" y2="310.668"/>
	
		<line fill="none" stroke="#010101" stroke-width="0.7991" stroke-linecap="round" stroke-miterlimit="10" x1="477.086" y1="301.525" x2="477.086" y2="310.668"/>
	<line fill="#010101" x1="464.714" y1="301.525" x2="477.086" y2="301.525"/>
	
		<line fill="none" stroke="#010101" stroke-width="0.7991" stroke-linecap="round" stroke-miterlimit="10" x1="464.714" y1="301.525" x2="477.086" y2="301.525"/>
	<line fill="#010101" x1="464.714" y1="310.668" x2="464.714" y2="301.525"/>
	
		<line fill="none" stroke="#010101" stroke-width="0.7991" stroke-linecap="round" stroke-miterlimit="10" x1="464.714" y1="310.668" x2="464.714" y2="301.525"/>
	<line fill="#010101" x1="416.307" y1="310.668" x2="464.714" y2="310.668"/>
	
		<line fill="none" stroke="#010101" stroke-width="0.7991" stroke-linecap="round" stroke-miterlimit="10" x1="416.307" y1="310.668" x2="464.714" y2="310.668"/>
	<line fill="#010101" x1="416.307" y1="315.51" x2="416.307" y2="310.668"/>
	
		<line fill="none" stroke="#010101" stroke-width="0.7991" stroke-linecap="round" stroke-miterlimit="10" x1="416.307" y1="315.51" x2="416.307" y2="310.668"/>
	<line fill="#010101" x1="378.658" y1="315.51" x2="416.307" y2="315.51"/>
	
		<line fill="none" stroke="#010101" stroke-width="0.7991" stroke-linecap="round" stroke-miterlimit="10" x1="378.658" y1="315.51" x2="416.307" y2="315.51"/>
	<line fill="#010101" x1="378.658" y1="310.668" x2="378.658" y2="315.51"/>
	
		<line fill="none" stroke="#010101" stroke-width="0.7991" stroke-linecap="round" stroke-miterlimit="10" x1="378.658" y1="310.668" x2="378.658" y2="315.51"/>
	<line fill="#010101" x1="336.705" y1="310.668" x2="378.658" y2="310.668"/>
	
		<line fill="none" stroke="#010101" stroke-width="0.7991" stroke-linecap="round" stroke-miterlimit="10" x1="336.705" y1="310.668" x2="378.658" y2="310.668"/>
	<line fill="#010101" x1="336.705" y1="275.707" x2="336.705" y2="310.668"/>
	
		<line fill="none" stroke="#010101" stroke-width="0.7991" stroke-linecap="round" stroke-miterlimit="10" x1="336.705" y1="275.707" x2="336.705" y2="310.668"/>
	<line fill="#010101" x1="322.72" y1="275.707" x2="336.705" y2="275.707"/>
	
		<line fill="none" stroke="#010101" stroke-width="0.7991" stroke-linecap="round" stroke-miterlimit="10" x1="322.72" y1="275.707" x2="336.705" y2="275.707"/>
	<line fill="#010101" x1="322.72" y1="184.271" x2="322.72" y2="275.707"/>
	
		<line fill="none" stroke="#010101" stroke-width="0.7991" stroke-linecap="round" stroke-miterlimit="10" x1="322.72" y1="184.271" x2="322.72" y2="275.707"/>
	<line fill="#010101" x1="336.705" y1="184.271" x2="322.72" y2="184.271"/>
	
		<line fill="none" stroke="#010101" stroke-width="0.7991" stroke-linecap="round" stroke-miterlimit="10" x1="336.705" y1="184.271" x2="322.72" y2="184.271"/>
	<line fill="#010101" x1="336.705" y1="141.243" x2="336.705" y2="184.271"/>
	
		<line fill="none" stroke="#010101" stroke-width="0.7991" stroke-linecap="round" stroke-miterlimit="10" x1="336.705" y1="141.243" x2="336.705" y2="184.271"/>
	<line fill="#010101" x1="462.564" y1="141.241" x2="336.705" y2="141.243"/>
	
		<line fill="none" stroke="#010101" stroke-width="0.7991" stroke-linecap="round" stroke-miterlimit="10" x1="462.564" y1="141.241" x2="336.705" y2="141.243"/>
	<line fill="#010101" x1="462.564" y1="152.538" x2="462.564" y2="141.241"/>
	
		<line fill="none" stroke="#010101" stroke-width="0.7991" stroke-linecap="round" stroke-miterlimit="10" x1="462.564" y1="152.538" x2="462.564" y2="141.241"/>
	<line fill="#010101" x1="477.086" y1="152.538" x2="462.564" y2="152.538"/>
	
		<line fill="none" stroke="#010101" stroke-width="0.7991" stroke-linecap="round" stroke-miterlimit="10" x1="477.086" y1="152.538" x2="462.564" y2="152.538"/>
	<line fill="#010101" x1="477.086" y1="141.241" x2="477.086" y2="152.538"/>
	
		<line fill="none" stroke="#010101" stroke-width="0.7991" stroke-linecap="round" stroke-miterlimit="10" x1="477.086" y1="141.241" x2="477.086" y2="152.538"/>
	
		<line fill="none" stroke="#FFFFFF" stroke-width="1.1986" stroke-linecap="round" stroke-miterlimit="10" x1="528.721" y1="89.598" x2="528.721" y2="107.348"/>
	<path fill="none" stroke="#010101" stroke-width="0.7991" stroke-linecap="round" stroke-miterlimit="10" d="M528.721,89.061
		c10.693,0,19.362,8.67,19.362,19.362h-19.362"/>
	
		<line fill="none" stroke="#FFFFFF" stroke-width="1.1986" stroke-linecap="round" stroke-miterlimit="10" x1="500.469" y1="141.241" x2="518.217" y2="141.241"/>
	<path fill="none" stroke="#010101" stroke-width="0.7991" stroke-linecap="round" stroke-miterlimit="10" d="M499.93,141.241
		c0,10.694,8.67,19.363,19.364,19.363v-19.363"/>
	
		<line fill="none" stroke="#FFFFFF" stroke-width="1.1986" stroke-linecap="round" stroke-miterlimit="10" x1="561.259" y1="141.241" x2="579.009" y2="141.241"/>
	<path fill="none" stroke="#010101" stroke-width="0.7991" stroke-linecap="round" stroke-miterlimit="10" d="M560.722,141.241
		c0,10.694,8.669,19.363,19.363,19.363v-19.363"/>
	
		<line fill="none" stroke="#FFFFFF" stroke-width="1.1986" stroke-linecap="round" stroke-miterlimit="10" x1="274.487" y1="267.64" x2="237.376" y2="267.64"/>
	<path fill="none" stroke="#010101" stroke-width="0.7991" stroke-linecap="round" stroke-miterlimit="10" d="M275.027,267.64
		v19.363c-10.695,0-19.364-8.668-19.364-19.363c0,10.695-8.671,19.363-19.362,19.363V267.64"/>
	
		<line fill="none" stroke="#FFFFFF" stroke-width="1.1986" stroke-linecap="round" stroke-miterlimit="10" x1="190.405" y1="203.99" x2="190.405" y2="238.95"/>
	<path fill="none" stroke="#010101" stroke-width="0.7991" stroke-linecap="round" stroke-miterlimit="10" d="M190.405,203.451
		h18.287c0,10.1-8.187,18.288-18.287,18.288c10.101,0,18.287,8.187,18.287,18.285h-18.287"/>
	
		<line fill="none" stroke="#FFFFFF" stroke-width="1.1986" stroke-linecap="round" stroke-miterlimit="10" x1="137.248" y1="310.668" x2="100.674" y2="310.668"/>
	<path fill="none" stroke="#010101" stroke-width="0.7991" stroke-linecap="round" stroke-miterlimit="10" d="M137.786,310.668
		v19.097c-10.545,0-19.094-8.552-19.094-19.097c0,10.545-8.551,19.097-19.096,19.097v-19.097"/>
	
		<line fill="none" stroke="#FFFFFF" stroke-width="1.1986" stroke-linecap="round" stroke-miterlimit="10" x1="50.561" y1="156.799" x2="50.561" y2="141.2"/>
	<path fill="none" stroke="#010101" stroke-width="0.7991" stroke-linecap="round" stroke-miterlimit="10" d="M50.561,157.337
		c9.507,0,17.213-7.706,17.213-17.211H50.561"/>
	
		<line fill="none" stroke="#FFFFFF" stroke-width="1.1986" stroke-linecap="round" stroke-miterlimit="10" x1="322.72" y1="240.07" x2="322.72" y2="202.958"/>
	<path fill="none" stroke="#010101" stroke-width="0.7991" stroke-linecap="round" stroke-miterlimit="10" d="M322.72,240.608
		h-19.364c0-10.693,8.67-19.362,19.364-19.362c-10.694,0-19.364-8.67-19.364-19.365h19.364"/>
	
		<line fill="none" stroke="#FFFFFF" stroke-width="1.1986" stroke-linecap="round" stroke-miterlimit="10" x1="562.038" y1="310.668" x2="524.925" y2="310.668"/>
	<path fill="none" stroke="#010101" stroke-width="0.7991" stroke-linecap="round" stroke-miterlimit="10" d="M562.575,310.668
		v19.364c-10.693,0-19.362-8.67-19.362-19.364c0,10.694-8.67,19.364-19.362,19.364v-19.364"/>
	
		<line fill="none" stroke="#FFFFFF" stroke-width="1.1986" stroke-linecap="round" stroke-miterlimit="10" x1="415.232" y1="315.51" x2="380.809" y2="315.51"/>
	<path fill="none" stroke="#010101" stroke-width="0.7991" stroke-linecap="round" stroke-miterlimit="10" d="M415.771,315.51v18.02
		c-9.952,0-18.018-8.068-18.018-18.02c0,9.951-8.068,18.02-18.02,18.02v-18.02"/>
</g>
<rect x="84.259" y="374.579" fill="none" width="201" height="70"/>
<text transform="matrix(1 0 0 1 109.6602 394.0742)" font-family="'MyriadPro-Regular'" font-size="27.4588">Galvez Street</text>
<rect x="373.105" y="374.579" fill="none" width="225" height="62"/>
<text transform="matrix(1 0 0 1 414.8892 391.2344)" font-family="'MyriadPro-Regular'" font-size="23.4588">Alumni Center</text>
<g>
	<g>
		<line fill="none" stroke="#010101" stroke-width="3" stroke-miterlimit="10" x1="622.21" y1="383" x2="571.134" y2="383"/>
		<g>
			<polygon fill="#010101" points="643.392,383 613.544,370.804 620.626,383 613.544,395.193 			"/>
		</g>
	</g>
</g>
<path fill="none" stroke="#010101" stroke-width="0.67" stroke-miterlimit="10" d="M91.954,185.135v79.452
	c0,2.16-0.491,3.91-1.094,3.91h-25.09c-0.603,0-1.09-1.75-1.09-3.91v-79.452c0-2.157,0.487-3.908,1.09-3.908h25.09
	C91.463,181.227,91.954,182.978,91.954,185.135z"/>
<path fill="none" stroke="#010101" stroke-width="0.67" stroke-miterlimit="10" d="M151.422,184.278v79.452
	c0,2.16-0.491,3.91-1.094,3.91h-25.09c-0.603,0-1.09-1.75-1.09-3.91v-79.452c0-2.157,0.487-3.908,1.09-3.908h25.09
	C150.932,180.37,151.422,182.121,151.422,184.278z"/>
<path fill="none" stroke="#010101" stroke-width="0.67" stroke-miterlimit="10" d="M400.378,182.992v79.452
	c0,2.16-0.49,3.91-1.094,3.91h-25.09c-0.603,0-1.09-1.75-1.09-3.91v-79.452c0-2.157,0.487-3.908,1.09-3.908h25.09
	C399.888,179.083,400.378,180.834,400.378,182.992z"/>
<path fill="none" stroke="#010101" stroke-width="0.67" stroke-miterlimit="10" d="M457.847,182.134v79.452
	c0,2.16-0.49,3.91-1.094,3.91h-25.09c-0.604,0-1.09-1.75-1.09-3.91v-79.452c0-2.157,0.486-3.908,1.09-3.908h25.09
	C457.357,178.226,457.847,179.977,457.847,182.134z"/>
<path fill="none" stroke="#010101" stroke-width="0.67" stroke-miterlimit="10" d="M513.624,183.42v79.452
	c0,2.16-0.49,3.91-1.094,3.91h-25.09c-0.603,0-1.09-1.75-1.09-3.91V183.42c0-2.157,0.487-3.908,1.09-3.908h25.09
	C513.133,179.512,513.624,181.263,513.624,183.42z"/>
<path fill="none" stroke="#010101" stroke-width="0.67" stroke-miterlimit="10" d="M571.092,182.563v79.452
	c0,2.16-0.49,3.91-1.094,3.91h-25.09c-0.604,0-1.09-1.75-1.09-3.91v-79.452c0-2.157,0.486-3.908,1.09-3.908h25.09
	C570.602,178.655,571.092,180.406,571.092,182.563z"/>
<path fill="none" stroke="#6B6868" stroke-width="0.8863" stroke-miterlimit="10" d="M64.65,211.081h-3.545
	c-1.772,0-3.545,1.773-3.545,3.545c0,1.773,1.773,3.546,3.545,3.546h3.545V211.081z"/>
<path fill="none" stroke="#6B6868" stroke-width="0.8863" stroke-miterlimit="10" d="M64.65,189.809h-3.545
	c-1.772,0-3.545,1.773-3.545,3.545c0,1.773,1.773,3.546,3.545,3.546h3.545V189.809z"/>
<path fill="none" stroke="#6B6868" stroke-width="0.8863" stroke-miterlimit="10" d="M64.65,251.262h-3.545
	c-1.772,0-3.545,1.772-3.545,3.545s1.773,3.545,3.545,3.545h3.545V251.262z"/>
<path fill="none" stroke="#6B6868" stroke-width="0.8863" stroke-miterlimit="10" d="M64.65,229.989h-3.545
	c-1.772,0-3.545,1.772-3.545,3.545s1.773,3.546,3.545,3.546h3.545V229.989z"/>
<path fill="none" stroke="#6B6868" stroke-width="0.8863" stroke-miterlimit="10" d="M91.954,237.004h3.545
	c1.772,0,3.545-1.773,3.545-3.545c0-1.773-1.773-3.546-3.545-3.546h-3.545V237.004z"/>
<path fill="none" stroke="#6B6868" stroke-width="0.8863" stroke-miterlimit="10" d="M91.954,258.275h3.545
	c1.772,0,3.545-1.772,3.545-3.545s-1.773-3.545-3.545-3.545h-3.545V258.275z"/>
<path fill="none" stroke="#6B6868" stroke-width="0.8863" stroke-miterlimit="10" d="M91.954,196.823h3.545
	c1.772,0,3.545-1.772,3.545-3.545s-1.773-3.545-3.545-3.545h-3.545V196.823z"/>
<path fill="none" stroke="#6B6868" stroke-width="0.8863" stroke-miterlimit="10" d="M91.954,218.096h3.545
	c1.772,0,3.545-1.772,3.545-3.545s-1.773-3.546-3.545-3.546h-3.545V218.096z"/>
<path fill="none" stroke="#6B6868" stroke-width="0.8863" stroke-miterlimit="10" d="M124.134,211.9h-3.545
	c-1.772,0-3.545,1.773-3.545,3.545c0,1.773,1.773,3.546,3.545,3.546h3.545V211.9z"/>
<path fill="none" stroke="#6B6868" stroke-width="0.8863" stroke-miterlimit="10" d="M124.134,190.628h-3.545
	c-1.772,0-3.545,1.773-3.545,3.545c0,1.773,1.773,3.546,3.545,3.546h3.545V190.628z"/>
<path fill="none" stroke="#6B6868" stroke-width="0.8863" stroke-miterlimit="10" d="M124.134,252.081h-3.545
	c-1.772,0-3.545,1.772-3.545,3.545s1.773,3.545,3.545,3.545h3.545V252.081z"/>
<path fill="none" stroke="#6B6868" stroke-width="0.8863" stroke-miterlimit="10" d="M124.134,230.809h-3.545
	c-1.772,0-3.545,1.772-3.545,3.545s1.773,3.546,3.545,3.546h3.545V230.809z"/>
<path fill="none" stroke="#6B6868" stroke-width="0.8863" stroke-miterlimit="10" d="M151.438,237.823h3.545
	c1.772,0,3.545-1.773,3.545-3.545c0-1.773-1.773-3.546-3.545-3.546h-3.545V237.823z"/>
<path fill="none" stroke="#6B6868" stroke-width="0.8863" stroke-miterlimit="10" d="M151.438,259.095h3.545
	c1.772,0,3.545-1.772,3.545-3.545s-1.773-3.545-3.545-3.545h-3.545V259.095z"/>
<path fill="none" stroke="#6B6868" stroke-width="0.8863" stroke-miterlimit="10" d="M151.438,197.643h3.545
	c1.772,0,3.545-1.772,3.545-3.545s-1.773-3.545-3.545-3.545h-3.545V197.643z"/>
<path fill="none" stroke="#6B6868" stroke-width="0.8863" stroke-miterlimit="10" d="M151.438,218.915h3.545
	c1.772,0,3.545-1.772,3.545-3.545s-1.773-3.546-3.545-3.546h-3.545V218.915z"/>
<path fill="none" stroke="#6B6868" stroke-width="0.8863" stroke-miterlimit="10" d="M373.09,212.457h-3.545
	c-1.772,0-3.545,1.773-3.545,3.545c0,1.773,1.772,3.546,3.545,3.546h3.545V212.457z"/>
<path fill="none" stroke="#6B6868" stroke-width="0.8863" stroke-miterlimit="10" d="M373.09,191.185h-3.545
	c-1.772,0-3.545,1.773-3.545,3.545c0,1.773,1.772,3.546,3.545,3.546h3.545V191.185z"/>
<path fill="none" stroke="#6B6868" stroke-width="0.8863" stroke-miterlimit="10" d="M373.09,252.637h-3.545
	c-1.772,0-3.545,1.773-3.545,3.545c0,1.773,1.772,3.545,3.545,3.545h3.545V252.637z"/>
<path fill="none" stroke="#6B6868" stroke-width="0.8863" stroke-miterlimit="10" d="M373.09,231.365h-3.545
	c-1.772,0-3.545,1.771-3.545,3.545c0,1.771,1.772,3.545,3.545,3.545h3.545V231.365z"/>
<path fill="none" stroke="#6B6868" stroke-width="0.8863" stroke-miterlimit="10" d="M400.394,238.379h3.545
	c1.771,0,3.545-1.773,3.545-3.545c0-1.773-1.773-3.545-3.545-3.545h-3.545V238.379z"/>
<path fill="none" stroke="#6B6868" stroke-width="0.8863" stroke-miterlimit="10" d="M400.394,259.65h3.545
	c1.771,0,3.545-1.771,3.545-3.545c0-1.771-1.773-3.545-3.545-3.545h-3.545V259.65z"/>
<path fill="none" stroke="#6B6868" stroke-width="0.8863" stroke-miterlimit="10" d="M400.394,198.199h3.545
	c1.771,0,3.545-1.772,3.545-3.545s-1.773-3.545-3.545-3.545h-3.545V198.199z"/>
<path fill="none" stroke="#6B6868" stroke-width="0.8863" stroke-miterlimit="10" d="M400.394,219.471h3.545
	c1.771,0,3.545-1.772,3.545-3.545s-1.773-3.546-3.545-3.546h-3.545V219.471z"/>
<path fill="none" stroke="#6B6868" stroke-width="0.8863" stroke-miterlimit="10" d="M430.559,212.457h-3.545
	c-1.772,0-3.545,1.773-3.545,3.545c0,1.773,1.772,3.546,3.545,3.546h3.545V212.457z"/>
<path fill="none" stroke="#6B6868" stroke-width="0.8863" stroke-miterlimit="10" d="M430.559,191.185h-3.545
	c-1.772,0-3.545,1.773-3.545,3.545c0,1.773,1.772,3.546,3.545,3.546h3.545V191.185z"/>
<path fill="none" stroke="#6B6868" stroke-width="0.8863" stroke-miterlimit="10" d="M430.559,252.637h-3.545
	c-1.772,0-3.545,1.773-3.545,3.545c0,1.773,1.772,3.545,3.545,3.545h3.545V252.637z"/>
<path fill="none" stroke="#6B6868" stroke-width="0.8863" stroke-miterlimit="10" d="M430.559,231.365h-3.545
	c-1.772,0-3.545,1.771-3.545,3.545c0,1.771,1.772,3.545,3.545,3.545h3.545V231.365z"/>
<path fill="none" stroke="#6B6868" stroke-width="0.8863" stroke-miterlimit="10" d="M457.863,238.379h3.545
	c1.771,0,3.545-1.773,3.545-3.545c0-1.773-1.773-3.545-3.545-3.545h-3.545V238.379z"/>
<path fill="none" stroke="#6B6868" stroke-width="0.8863" stroke-miterlimit="10" d="M457.863,259.65h3.545
	c1.771,0,3.545-1.771,3.545-3.545c0-1.771-1.773-3.545-3.545-3.545h-3.545V259.65z"/>
<path fill="none" stroke="#6B6868" stroke-width="0.8863" stroke-miterlimit="10" d="M457.863,198.199h3.545
	c1.771,0,3.545-1.772,3.545-3.545s-1.773-3.545-3.545-3.545h-3.545V198.199z"/>
<path fill="none" stroke="#6B6868" stroke-width="0.8863" stroke-miterlimit="10" d="M457.863,219.471h3.545
	c1.771,0,3.545-1.772,3.545-3.545s-1.773-3.546-3.545-3.546h-3.545V219.471z"/>
<path fill="none" stroke="#6B6868" stroke-width="0.8863" stroke-miterlimit="10" d="M486.278,212.457h-3.545
	c-1.772,0-3.545,1.773-3.545,3.545c0,1.773,1.772,3.546,3.545,3.546h3.545V212.457z"/>
<path fill="none" stroke="#6B6868" stroke-width="0.8863" stroke-miterlimit="10" d="M486.278,191.185h-3.545
	c-1.772,0-3.545,1.773-3.545,3.545c0,1.773,1.772,3.546,3.545,3.546h3.545V191.185z"/>
<path fill="none" stroke="#6B6868" stroke-width="0.8863" stroke-miterlimit="10" d="M486.278,252.637h-3.545
	c-1.772,0-3.545,1.773-3.545,3.545c0,1.773,1.772,3.545,3.545,3.545h3.545V252.637z"/>
<path fill="none" stroke="#6B6868" stroke-width="0.8863" stroke-miterlimit="10" d="M486.278,231.365h-3.545
	c-1.772,0-3.545,1.771-3.545,3.545c0,1.771,1.772,3.545,3.545,3.545h3.545V231.365z"/>
<path fill="none" stroke="#6B6868" stroke-width="0.8863" stroke-miterlimit="10" d="M513.582,238.379h3.545
	c1.771,0,3.545-1.773,3.545-3.545c0-1.773-1.773-3.545-3.545-3.545h-3.545V238.379z"/>
<path fill="none" stroke="#6B6868" stroke-width="0.8863" stroke-miterlimit="10" d="M513.582,259.65h3.545
	c1.771,0,3.545-1.771,3.545-3.545c0-1.771-1.773-3.545-3.545-3.545h-3.545V259.65z"/>
<path fill="none" stroke="#6B6868" stroke-width="0.8863" stroke-miterlimit="10" d="M513.582,198.199h3.545
	c1.771,0,3.545-1.772,3.545-3.545s-1.773-3.545-3.545-3.545h-3.545V198.199z"/>
<path fill="none" stroke="#6B6868" stroke-width="0.8863" stroke-miterlimit="10" d="M513.582,219.471h3.545
	c1.771,0,3.545-1.772,3.545-3.545s-1.773-3.546-3.545-3.546h-3.545V219.471z"/>
<path fill="none" stroke="#6B6868" stroke-width="0.8863" stroke-miterlimit="10" d="M543.803,212.457h-3.545
	c-1.772,0-3.545,1.773-3.545,3.545c0,1.773,1.772,3.546,3.545,3.546h3.545V212.457z"/>
<path fill="none" stroke="#6B6868" stroke-width="0.8863" stroke-miterlimit="10" d="M543.803,191.185h-3.545
	c-1.772,0-3.545,1.773-3.545,3.545c0,1.773,1.772,3.546,3.545,3.546h3.545V191.185z"/>
<path fill="none" stroke="#6B6868" stroke-width="0.8863" stroke-miterlimit="10" d="M543.803,252.637h-3.545
	c-1.772,0-3.545,1.773-3.545,3.545c0,1.773,1.772,3.545,3.545,3.545h3.545V252.637z"/>
<path fill="none" stroke="#6B6868" stroke-width="0.8863" stroke-miterlimit="10" d="M543.803,231.365h-3.545
	c-1.772,0-3.545,1.771-3.545,3.545c0,1.771,1.772,3.545,3.545,3.545h3.545V231.365z"/>
<path fill="none" stroke="#6B6868" stroke-width="0.8863" stroke-miterlimit="10" d="M571.107,238.379h3.545
	c1.771,0,3.545-1.773,3.545-3.545c0-1.773-1.773-3.545-3.545-3.545h-3.545V238.379z"/>
<path fill="none" stroke="#6B6868" stroke-width="0.8863" stroke-miterlimit="10" d="M571.107,259.65h3.545
	c1.771,0,3.545-1.771,3.545-3.545c0-1.771-1.773-3.545-3.545-3.545h-3.545V259.65z"/>
<path fill="none" stroke="#6B6868" stroke-width="0.8863" stroke-miterlimit="10" d="M571.107,198.199h3.545
	c1.771,0,3.545-1.772,3.545-3.545s-1.773-3.545-3.545-3.545h-3.545V198.199z"/>
<path fill="none" stroke="#6B6868" stroke-width="0.8863" stroke-miterlimit="10" d="M571.107,219.471h3.545
	c1.771,0,3.545-1.772,3.545-3.545s-1.773-3.546-3.545-3.546h-3.545V219.471z"/>
</svg>
