<?xml version="1.0" encoding="utf-8"?>
<!-- Generator: Adobe Illustrator 15.1.0, SVG Export Plug-In . SVG Version: 6.00 Build 0)  -->
<!DOCTYPE svg PUBLIC "-//W3C//DTD SVG 1.1//EN" "http://www.w3.org/Graphics/SVG/1.1/DTD/svg11.dtd">
<svg version="1.1" id="Layer_1" xmlns="http://www.w3.org/2000/svg" xmlns:xlink="http://www.w3.org/1999/xlink" x="0px" y="0px"
	 width="655.653px" height="444.579px" viewBox="0 0 655.653 444.579" enable-background="new 0 0 655.653 444.579"
	 xml:space="preserve">
<path fill="none" stroke="#6B6868" stroke-width="0.8863" stroke-miterlimit="10" d="M85.949,110.31h3.546
	c1.772,0,3.545-1.772,3.545-3.545c0-1.773-1.772-3.545-3.545-3.545h-3.546V110.31z"/>
<path fill="none" stroke="#6B6868" stroke-width="0.8863" stroke-miterlimit="10" d="M85.949,131.582h3.546
	c1.772,0,3.545-1.772,3.545-3.545c0-1.773-1.772-3.545-3.545-3.545h-3.546V131.582z"/>
<path fill="none" stroke="#6B6868" stroke-width="0.8863" stroke-miterlimit="10" d="M72.654,124.492h-3.546
	c-1.772,0-3.545,1.772-3.545,3.545c0,1.773,1.773,3.545,3.545,3.545h3.546V124.492z"/>
<path fill="none" stroke="#6B6868" stroke-width="0.8863" stroke-miterlimit="10" d="M72.654,103.22h-3.546
	c-1.772,0-3.545,1.772-3.545,3.545c0,1.773,1.773,3.545,3.545,3.545h3.546V103.22z"/>
<path fill="#FFFFFF" d="M85.949,98.035v38.732c0,1.052-0.238,1.906-0.531,1.906H73.186c-0.293,0-0.531-0.854-0.531-1.906V98.035
	c0-1.052,0.238-1.906,0.531-1.906h12.232C85.71,96.129,85.949,96.983,85.949,98.035"/>
<path fill="none" stroke="#010101" stroke-width="0.67" stroke-miterlimit="10" d="M85.949,98.035v38.732
	c0,1.052-0.238,1.906-0.531,1.906H73.186c-0.293,0-0.531-0.854-0.531-1.906V98.035c0-1.052,0.238-1.906,0.531-1.906h12.232
	C85.71,96.129,85.949,96.983,85.949,98.035z"/>
<path fill="none" stroke="#6B6868" stroke-width="0.8863" stroke-miterlimit="10" d="M86.392,152.854h3.545
	c1.773,0,3.545-1.772,3.545-3.545s-1.771-3.546-3.545-3.546h-3.545V152.854z"/>
<path fill="none" stroke="#6B6868" stroke-width="0.8863" stroke-miterlimit="10" d="M86.392,174.126h3.545
	c1.773,0,3.545-1.773,3.545-3.545c0-1.773-1.771-3.546-3.545-3.546h-3.545V174.126z"/>
<path fill="none" stroke="#6B6868" stroke-width="0.8863" stroke-miterlimit="10" d="M73.097,167.035h-3.546
	c-1.772,0-3.545,1.772-3.545,3.546c0,1.771,1.773,3.545,3.545,3.545h3.546V167.035z"/>
<path fill="none" stroke="#6B6868" stroke-width="0.8863" stroke-miterlimit="10" d="M73.097,145.763h-3.546
	c-1.772,0-3.545,1.773-3.545,3.546s1.773,3.545,3.545,3.545h3.546V145.763z"/>
<path fill="#FFFFFF" d="M86.392,140.578v38.733c0,1.053-0.238,1.906-0.531,1.906H73.628c-0.293,0-0.531-0.854-0.531-1.906v-38.733
	c0-1.052,0.238-1.905,0.531-1.905h12.232C86.154,138.673,86.392,139.526,86.392,140.578"/>
<path fill="none" stroke="#010101" stroke-width="0.67" stroke-miterlimit="10" d="M86.392,140.578v38.733
	c0,1.053-0.238,1.906-0.531,1.906H73.628c-0.293,0-0.531-0.854-0.531-1.906v-38.733c0-1.052,0.238-1.905,0.531-1.905h12.232
	C86.154,138.673,86.392,139.526,86.392,140.578z"/>
<path fill="none" stroke="#6B6868" stroke-width="0.8863" stroke-miterlimit="10" d="M85.949,196.727h3.546
	c1.772,0,3.545-1.773,3.545-3.545c0-1.773-1.772-3.546-3.545-3.546h-3.546V196.727z"/>
<path fill="none" stroke="#6B6868" stroke-width="0.8863" stroke-miterlimit="10" d="M85.949,217.999h3.546
	c1.772,0,3.545-1.773,3.545-3.545c0-1.773-1.772-3.545-3.545-3.545h-3.546V217.999z"/>
<path fill="none" stroke="#6B6868" stroke-width="0.8863" stroke-miterlimit="10" d="M72.654,210.909h-3.546
	c-1.772,0-3.545,1.771-3.545,3.545c0,1.771,1.773,3.545,3.545,3.545h3.546V210.909z"/>
<path fill="none" stroke="#6B6868" stroke-width="0.8863" stroke-miterlimit="10" d="M72.654,189.636h-3.546
	c-1.772,0-3.545,1.773-3.545,3.546c0,1.771,1.773,3.545,3.545,3.545h3.546V189.636z"/>
<path fill="#FFFFFF" d="M85.949,184.452v38.731c0,1.053-0.238,1.906-0.531,1.906H73.186c-0.293,0-0.531-0.854-0.531-1.906v-38.731
	c0-1.053,0.238-1.906,0.531-1.906h12.232C85.71,182.546,85.949,183.399,85.949,184.452"/>
<path fill="none" stroke="#010101" stroke-width="0.67" stroke-miterlimit="10" d="M85.949,184.452v38.731
	c0,1.053-0.238,1.906-0.531,1.906H73.186c-0.293,0-0.531-0.854-0.531-1.906v-38.731c0-1.053,0.238-1.906,0.531-1.906h12.232
	C85.71,182.546,85.949,183.399,85.949,184.452z"/>
<path fill="none" stroke="#6B6868" stroke-width="0.8863" stroke-miterlimit="10" d="M85.949,241.486h3.546
	c1.772,0,3.545-1.773,3.545-3.545c0-1.773-1.772-3.547-3.545-3.547h-3.546V241.486z"/>
<path fill="none" stroke="#6B6868" stroke-width="0.8863" stroke-miterlimit="10" d="M85.949,262.758h3.546
	c1.772,0,3.545-1.771,3.545-3.545s-1.772-3.545-3.545-3.545h-3.546V262.758z"/>
<path fill="none" stroke="#6B6868" stroke-width="0.8863" stroke-miterlimit="10" d="M72.654,255.668h-3.546
	c-1.772,0-3.545,1.771-3.545,3.545s1.773,3.545,3.545,3.545h3.546V255.668z"/>
<path fill="none" stroke="#6B6868" stroke-width="0.8863" stroke-miterlimit="10" d="M72.654,234.395h-3.546
	c-1.772,0-3.545,1.773-3.545,3.547c0,1.771,1.773,3.545,3.545,3.545h3.546V234.395z"/>
<path fill="#FFFFFF" d="M85.949,229.211v38.732c0,1.051-0.238,1.904-0.531,1.904H73.186c-0.293,0-0.531-0.854-0.531-1.904v-38.732
	c0-1.053,0.238-1.906,0.531-1.906h12.232C85.71,227.305,85.949,228.158,85.949,229.211"/>
<path fill="none" stroke="#010101" stroke-width="0.67" stroke-miterlimit="10" d="M85.949,229.211v38.732
	c0,1.051-0.238,1.904-0.531,1.904H73.186c-0.293,0-0.531-0.854-0.531-1.904v-38.732c0-1.053,0.238-1.906,0.531-1.906h12.232
	C85.71,227.305,85.949,228.158,85.949,229.211z"/>
<path fill="none" stroke="#6B6868" stroke-width="0.8863" stroke-miterlimit="10" d="M85.949,284.916h3.546
	c1.772,0,3.545-1.773,3.545-3.545c0-1.773-1.772-3.545-3.545-3.545h-3.546V284.916z"/>
<path fill="none" stroke="#6B6868" stroke-width="0.8863" stroke-miterlimit="10" d="M85.949,306.188h3.546
	c1.772,0,3.545-1.771,3.545-3.545c0-1.771-1.772-3.545-3.545-3.545h-3.546V306.188z"/>
<path fill="none" stroke="#6B6868" stroke-width="0.8863" stroke-miterlimit="10" d="M72.654,299.098h-3.546
	c-1.772,0-3.545,1.773-3.545,3.545c0,1.773,1.773,3.545,3.545,3.545h3.546V299.098z"/>
<path fill="none" stroke="#6B6868" stroke-width="0.8863" stroke-miterlimit="10" d="M72.654,277.826h-3.546
	c-1.772,0-3.545,1.771-3.545,3.545c0,1.771,1.773,3.545,3.545,3.545h3.546V277.826z"/>
<path fill="#FFFFFF" d="M85.949,272.641v38.732c0,1.053-0.238,1.906-0.531,1.906H73.186c-0.293,0-0.531-0.854-0.531-1.906v-38.732
	c0-1.053,0.238-1.904,0.531-1.904h12.232C85.71,270.736,85.949,271.588,85.949,272.641"/>
<path fill="none" stroke="#010101" stroke-width="0.67" stroke-miterlimit="10" d="M85.949,272.641v38.732
	c0,1.053-0.238,1.906-0.531,1.906H73.186c-0.293,0-0.531-0.854-0.531-1.906v-38.732c0-1.053,0.238-1.904,0.531-1.904h12.232
	C85.71,270.736,85.949,271.588,85.949,272.641z"/>
<path fill="none" stroke="#6B6868" stroke-width="0.8863" stroke-miterlimit="10" d="M135.949,110.424h3.546
	c1.772,0,3.545-1.772,3.545-3.545c0-1.773-1.772-3.545-3.545-3.545h-3.546V110.424z"/>
<path fill="none" stroke="#6B6868" stroke-width="0.8863" stroke-miterlimit="10" d="M135.949,131.696h3.546
	c1.772,0,3.545-1.772,3.545-3.545c0-1.773-1.772-3.545-3.545-3.545h-3.546V131.696z"/>
<path fill="none" stroke="#6B6868" stroke-width="0.8863" stroke-miterlimit="10" d="M122.654,124.606h-3.546
	c-1.772,0-3.545,1.772-3.545,3.545c0,1.773,1.773,3.545,3.545,3.545h3.546V124.606z"/>
<path fill="none" stroke="#6B6868" stroke-width="0.8863" stroke-miterlimit="10" d="M122.654,103.334h-3.546
	c-1.772,0-3.545,1.772-3.545,3.545c0,1.773,1.773,3.545,3.545,3.545h3.546V103.334z"/>
<path fill="#FFFFFF" d="M135.949,98.149v38.732c0,1.052-0.238,1.906-0.531,1.906h-12.232c-0.293,0-0.531-0.854-0.531-1.906V98.149
	c0-1.052,0.238-1.906,0.531-1.906h12.232C135.71,96.243,135.949,97.097,135.949,98.149"/>
<path fill="none" stroke="#010101" stroke-width="0.67" stroke-miterlimit="10" d="M135.949,98.149v38.732
	c0,1.052-0.238,1.906-0.531,1.906h-12.232c-0.293,0-0.531-0.854-0.531-1.906V98.149c0-1.052,0.238-1.906,0.531-1.906h12.232
	C135.71,96.243,135.949,97.097,135.949,98.149z"/>
<path fill="none" stroke="#6B6868" stroke-width="0.8863" stroke-miterlimit="10" d="M136.392,152.968h3.545
	c1.773,0,3.545-1.772,3.545-3.545s-1.771-3.546-3.545-3.546h-3.545V152.968z"/>
<path fill="none" stroke="#6B6868" stroke-width="0.8863" stroke-miterlimit="10" d="M136.392,174.24h3.545
	c1.773,0,3.545-1.773,3.545-3.545c0-1.773-1.771-3.546-3.545-3.546h-3.545V174.24z"/>
<path fill="none" stroke="#6B6868" stroke-width="0.8863" stroke-miterlimit="10" d="M123.097,167.149h-3.546
	c-1.772,0-3.545,1.772-3.545,3.546c0,1.771,1.773,3.545,3.545,3.545h3.546V167.149z"/>
<path fill="none" stroke="#6B6868" stroke-width="0.8863" stroke-miterlimit="10" d="M123.097,145.877h-3.546
	c-1.772,0-3.545,1.773-3.545,3.546s1.773,3.545,3.545,3.545h3.546V145.877z"/>
<path fill="#FFFFFF" d="M136.392,140.692v38.733c0,1.053-0.238,1.906-0.531,1.906h-12.232c-0.293,0-0.531-0.854-0.531-1.906v-38.733
	c0-1.052,0.238-1.905,0.531-1.905h12.232C136.154,138.787,136.392,139.64,136.392,140.692"/>
<path fill="none" stroke="#010101" stroke-width="0.67" stroke-miterlimit="10" d="M136.392,140.692v38.733
	c0,1.053-0.238,1.906-0.531,1.906h-12.232c-0.293,0-0.531-0.854-0.531-1.906v-38.733c0-1.052,0.238-1.905,0.531-1.905h12.232
	C136.154,138.787,136.392,139.64,136.392,140.692z"/>
<path fill="none" stroke="#6B6868" stroke-width="0.8863" stroke-miterlimit="10" d="M135.949,196.841h3.546
	c1.772,0,3.545-1.773,3.545-3.545c0-1.773-1.772-3.546-3.545-3.546h-3.546V196.841z"/>
<path fill="none" stroke="#6B6868" stroke-width="0.8863" stroke-miterlimit="10" d="M135.949,218.112h3.546
	c1.772,0,3.545-1.773,3.545-3.545c0-1.773-1.772-3.544-3.545-3.544h-3.546V218.112z"/>
<path fill="none" stroke="#6B6868" stroke-width="0.8863" stroke-miterlimit="10" d="M122.654,211.023h-3.546
	c-1.772,0-3.545,1.771-3.545,3.544c0,1.771,1.773,3.545,3.545,3.545h3.546V211.023z"/>
<path fill="none" stroke="#6B6868" stroke-width="0.8863" stroke-miterlimit="10" d="M122.654,189.75h-3.546
	c-1.772,0-3.545,1.773-3.545,3.546c0,1.771,1.773,3.545,3.545,3.545h3.546V189.75z"/>
<path fill="#FFFFFF" d="M135.949,184.566v38.731c0,1.053-0.238,1.906-0.531,1.906h-12.232c-0.293,0-0.531-0.854-0.531-1.906v-38.731
	c0-1.053,0.238-1.906,0.531-1.906h12.232C135.71,182.66,135.949,183.514,135.949,184.566"/>
<path fill="none" stroke="#010101" stroke-width="0.67" stroke-miterlimit="10" d="M135.949,184.566v38.731
	c0,1.053-0.238,1.906-0.531,1.906h-12.232c-0.293,0-0.531-0.854-0.531-1.906v-38.731c0-1.053,0.238-1.906,0.531-1.906h12.232
	C135.71,182.66,135.949,183.514,135.949,184.566z"/>
<path fill="none" stroke="#6B6868" stroke-width="0.8863" stroke-miterlimit="10" d="M135.949,241.601h3.546
	c1.772,0,3.545-1.773,3.545-3.545c0-1.773-1.772-3.547-3.545-3.547h-3.546V241.601z"/>
<path fill="none" stroke="#6B6868" stroke-width="0.8863" stroke-miterlimit="10" d="M135.949,262.872h3.546
	c1.772,0,3.545-1.771,3.545-3.545s-1.772-3.545-3.545-3.545h-3.546V262.872z"/>
<path fill="none" stroke="#6B6868" stroke-width="0.8863" stroke-miterlimit="10" d="M122.654,255.782h-3.546
	c-1.772,0-3.545,1.771-3.545,3.545s1.773,3.545,3.545,3.545h3.546V255.782z"/>
<path fill="none" stroke="#6B6868" stroke-width="0.8863" stroke-miterlimit="10" d="M122.654,234.509h-3.546
	c-1.772,0-3.545,1.773-3.545,3.547c0,1.771,1.773,3.545,3.545,3.545h3.546V234.509z"/>
<path fill="#FFFFFF" d="M135.949,229.325v38.732c0,1.051-0.238,1.904-0.531,1.904h-12.232c-0.293,0-0.531-0.854-0.531-1.904v-38.732
	c0-1.053,0.238-1.906,0.531-1.906h12.232C135.71,227.419,135.949,228.272,135.949,229.325"/>
<path fill="none" stroke="#010101" stroke-width="0.67" stroke-miterlimit="10" d="M135.949,229.325v38.732
	c0,1.051-0.238,1.904-0.531,1.904h-12.232c-0.293,0-0.531-0.854-0.531-1.904v-38.732c0-1.053,0.238-1.906,0.531-1.906h12.232
	C135.71,227.419,135.949,228.272,135.949,229.325z"/>
<path fill="none" stroke="#6B6868" stroke-width="0.8863" stroke-miterlimit="10" d="M135.949,285.03h3.546
	c1.772,0,3.545-1.773,3.545-3.545c0-1.773-1.772-3.545-3.545-3.545h-3.546V285.03z"/>
<path fill="none" stroke="#6B6868" stroke-width="0.8863" stroke-miterlimit="10" d="M135.949,306.302h3.546
	c1.772,0,3.545-1.771,3.545-3.545c0-1.771-1.772-3.545-3.545-3.545h-3.546V306.302z"/>
<path fill="none" stroke="#6B6868" stroke-width="0.8863" stroke-miterlimit="10" d="M122.654,299.212h-3.546
	c-1.772,0-3.545,1.773-3.545,3.545c0,1.773,1.773,3.545,3.545,3.545h3.546V299.212z"/>
<path fill="none" stroke="#6B6868" stroke-width="0.8863" stroke-miterlimit="10" d="M122.654,277.94h-3.546
	c-1.772,0-3.545,1.771-3.545,3.545c0,1.771,1.773,3.545,3.545,3.545h3.546V277.94z"/>
<path fill="#FFFFFF" d="M135.949,272.755v38.732c0,1.053-0.238,1.906-0.531,1.906h-12.232c-0.293,0-0.531-0.854-0.531-1.906v-38.732
	c0-1.053,0.238-1.904,0.531-1.904h12.232C135.71,270.851,135.949,271.702,135.949,272.755"/>
<path fill="none" stroke="#010101" stroke-width="0.67" stroke-miterlimit="10" d="M135.949,272.755v38.732
	c0,1.053-0.238,1.906-0.531,1.906h-12.232c-0.293,0-0.531-0.854-0.531-1.906v-38.732c0-1.053,0.238-1.904,0.531-1.904h12.232
	C135.71,270.851,135.949,271.702,135.949,272.755z"/>
<path fill="none" stroke="#6B6868" stroke-width="0.8863" stroke-miterlimit="10" d="M185.949,109.367h3.546
	c1.772,0,3.545-1.772,3.545-3.545c0-1.773-1.772-3.545-3.545-3.545h-3.546V109.367z"/>
<path fill="none" stroke="#6B6868" stroke-width="0.8863" stroke-miterlimit="10" d="M185.949,130.639h3.546
	c1.772,0,3.545-1.772,3.545-3.545c0-1.773-1.772-3.545-3.545-3.545h-3.546V130.639z"/>
<path fill="none" stroke="#6B6868" stroke-width="0.8863" stroke-miterlimit="10" d="M172.654,123.548h-3.546
	c-1.772,0-3.545,1.772-3.545,3.545c0,1.773,1.773,3.545,3.545,3.545h3.546V123.548z"/>
<path fill="none" stroke="#6B6868" stroke-width="0.8863" stroke-miterlimit="10" d="M172.654,102.276h-3.546
	c-1.772,0-3.545,1.772-3.545,3.545c0,1.773,1.773,3.545,3.545,3.545h3.546V102.276z"/>
<path fill="#FFFFFF" d="M185.949,97.091v38.732c0,1.052-0.238,1.906-0.531,1.906h-12.232c-0.293,0-0.531-0.854-0.531-1.906V97.091
	c0-1.052,0.238-1.906,0.531-1.906h12.232C185.71,95.186,185.949,96.04,185.949,97.091"/>
<path fill="none" stroke="#010101" stroke-width="0.67" stroke-miterlimit="10" d="M185.949,97.091v38.732
	c0,1.052-0.238,1.906-0.531,1.906h-12.232c-0.293,0-0.531-0.854-0.531-1.906V97.091c0-1.052,0.238-1.906,0.531-1.906h12.232
	C185.71,95.186,185.949,96.04,185.949,97.091z"/>
<path fill="none" stroke="#6B6868" stroke-width="0.8863" stroke-miterlimit="10" d="M186.392,151.91h3.545
	c1.773,0,3.545-1.772,3.545-3.545s-1.771-3.546-3.545-3.546h-3.545V151.91z"/>
<path fill="none" stroke="#6B6868" stroke-width="0.8863" stroke-miterlimit="10" d="M186.392,173.183h3.545
	c1.773,0,3.545-1.773,3.545-3.545c0-1.773-1.771-3.546-3.545-3.546h-3.545V173.183z"/>
<path fill="none" stroke="#6B6868" stroke-width="0.8863" stroke-miterlimit="10" d="M173.097,166.092h-3.546
	c-1.772,0-3.545,1.772-3.545,3.546c0,1.771,1.773,3.545,3.545,3.545h3.546V166.092z"/>
<path fill="none" stroke="#6B6868" stroke-width="0.8863" stroke-miterlimit="10" d="M173.097,144.819h-3.546
	c-1.772,0-3.545,1.773-3.545,3.546s1.773,3.545,3.545,3.545h3.546V144.819z"/>
<path fill="#FFFFFF" d="M186.392,139.634v38.733c0,1.053-0.238,1.906-0.531,1.906h-12.232c-0.293,0-0.531-0.854-0.531-1.906v-38.733
	c0-1.052,0.238-1.905,0.531-1.905h12.232C186.154,137.729,186.392,138.583,186.392,139.634"/>
<path fill="none" stroke="#010101" stroke-width="0.67" stroke-miterlimit="10" d="M186.392,139.634v38.733
	c0,1.053-0.238,1.906-0.531,1.906h-12.232c-0.293,0-0.531-0.854-0.531-1.906v-38.733c0-1.052,0.238-1.905,0.531-1.905h12.232
	C186.154,137.729,186.392,138.583,186.392,139.634z"/>
<path fill="none" stroke="#6B6868" stroke-width="0.8863" stroke-miterlimit="10" d="M185.949,195.784h3.546
	c1.772,0,3.545-1.773,3.545-3.545c0-1.773-1.772-3.546-3.545-3.546h-3.546V195.784z"/>
<path fill="none" stroke="#6B6868" stroke-width="0.8863" stroke-miterlimit="10" d="M185.949,217.055h3.546
	c1.772,0,3.545-1.773,3.545-3.545c0-1.773-1.772-3.544-3.545-3.544h-3.546V217.055z"/>
<path fill="none" stroke="#6B6868" stroke-width="0.8863" stroke-miterlimit="10" d="M172.654,209.965h-3.546
	c-1.772,0-3.545,1.771-3.545,3.544c0,1.771,1.773,3.545,3.545,3.545h3.546V209.965z"/>
<path fill="none" stroke="#6B6868" stroke-width="0.8863" stroke-miterlimit="10" d="M172.654,188.692h-3.546
	c-1.772,0-3.545,1.773-3.545,3.546c0,1.771,1.773,3.545,3.545,3.545h3.546V188.692z"/>
<path fill="#FFFFFF" d="M185.949,183.509v38.731c0,1.053-0.238,1.906-0.531,1.906h-12.232c-0.293,0-0.531-0.854-0.531-1.906v-38.731
	c0-1.053,0.238-1.906,0.531-1.906h12.232C185.71,181.603,185.949,182.456,185.949,183.509"/>
<path fill="none" stroke="#010101" stroke-width="0.67" stroke-miterlimit="10" d="M185.949,183.509v38.731
	c0,1.053-0.238,1.906-0.531,1.906h-12.232c-0.293,0-0.531-0.854-0.531-1.906v-38.731c0-1.053,0.238-1.906,0.531-1.906h12.232
	C185.71,181.603,185.949,182.456,185.949,183.509z"/>
<path fill="none" stroke="#6B6868" stroke-width="0.8863" stroke-miterlimit="10" d="M185.949,240.543h3.546
	c1.772,0,3.545-1.773,3.545-3.545c0-1.773-1.772-3.547-3.545-3.547h-3.546V240.543z"/>
<path fill="none" stroke="#6B6868" stroke-width="0.8863" stroke-miterlimit="10" d="M185.949,261.814h3.546
	c1.772,0,3.545-1.771,3.545-3.545s-1.772-3.545-3.545-3.545h-3.546V261.814z"/>
<path fill="none" stroke="#6B6868" stroke-width="0.8863" stroke-miterlimit="10" d="M172.654,254.725h-3.546
	c-1.772,0-3.545,1.771-3.545,3.545s1.773,3.545,3.545,3.545h3.546V254.725z"/>
<path fill="none" stroke="#6B6868" stroke-width="0.8863" stroke-miterlimit="10" d="M172.654,233.451h-3.546
	c-1.772,0-3.545,1.773-3.545,3.547c0,1.771,1.773,3.545,3.545,3.545h3.546V233.451z"/>
<path fill="#FFFFFF" d="M185.949,228.268V267c0,1.051-0.238,1.904-0.531,1.904h-12.232c-0.293,0-0.531-0.854-0.531-1.904v-38.732
	c0-1.053,0.238-1.906,0.531-1.906h12.232C185.71,226.361,185.949,227.215,185.949,228.268"/>
<path fill="none" stroke="#010101" stroke-width="0.67" stroke-miterlimit="10" d="M185.949,228.268V267
	c0,1.051-0.238,1.904-0.531,1.904h-12.232c-0.293,0-0.531-0.854-0.531-1.904v-38.732c0-1.053,0.238-1.906,0.531-1.906h12.232
	C185.71,226.361,185.949,227.215,185.949,228.268z"/>
<path fill="none" stroke="#6B6868" stroke-width="0.8863" stroke-miterlimit="10" d="M185.949,283.973h3.546
	c1.772,0,3.545-1.773,3.545-3.545c0-1.773-1.772-3.545-3.545-3.545h-3.546V283.973z"/>
<path fill="none" stroke="#6B6868" stroke-width="0.8863" stroke-miterlimit="10" d="M185.949,305.244h3.546
	c1.772,0,3.545-1.771,3.545-3.545c0-1.771-1.772-3.545-3.545-3.545h-3.546V305.244z"/>
<path fill="none" stroke="#6B6868" stroke-width="0.8863" stroke-miterlimit="10" d="M172.654,298.154h-3.546
	c-1.772,0-3.545,1.773-3.545,3.545c0,1.773,1.773,3.545,3.545,3.545h3.546V298.154z"/>
<path fill="none" stroke="#6B6868" stroke-width="0.8863" stroke-miterlimit="10" d="M172.654,276.883h-3.546
	c-1.772,0-3.545,1.771-3.545,3.545c0,1.771,1.773,3.545,3.545,3.545h3.546V276.883z"/>
<path fill="#FFFFFF" d="M185.949,271.697v38.732c0,1.053-0.238,1.906-0.531,1.906h-12.232c-0.293,0-0.531-0.854-0.531-1.906v-38.732
	c0-1.053,0.238-1.904,0.531-1.904h12.232C185.71,269.793,185.949,270.645,185.949,271.697"/>
<path fill="none" stroke="#010101" stroke-width="0.67" stroke-miterlimit="10" d="M185.949,271.697v38.732
	c0,1.053-0.238,1.906-0.531,1.906h-12.232c-0.293,0-0.531-0.854-0.531-1.906v-38.732c0-1.053,0.238-1.904,0.531-1.904h12.232
	C185.71,269.793,185.949,270.645,185.949,271.697z"/>
<path fill="none" stroke="#6B6868" stroke-width="0.8863" stroke-miterlimit="10" d="M235.949,109.481h3.546
	c1.772,0,3.545-1.772,3.545-3.545c0-1.773-1.772-3.545-3.545-3.545h-3.546V109.481z"/>
<path fill="none" stroke="#6B6868" stroke-width="0.8863" stroke-miterlimit="10" d="M235.949,130.753h3.546
	c1.772,0,3.545-1.772,3.545-3.545c0-1.773-1.772-3.545-3.545-3.545h-3.546V130.753z"/>
<path fill="none" stroke="#6B6868" stroke-width="0.8863" stroke-miterlimit="10" d="M222.654,123.663h-3.545
	c-1.772,0-3.545,1.772-3.545,3.545c0,1.773,1.772,3.545,3.545,3.545h3.545V123.663z"/>
<path fill="none" stroke="#6B6868" stroke-width="0.8863" stroke-miterlimit="10" d="M222.654,102.391h-3.545
	c-1.772,0-3.545,1.772-3.545,3.545c0,1.773,1.772,3.545,3.545,3.545h3.545V102.391z"/>
<path fill="#FFFFFF" d="M235.949,97.206v38.732c0,1.052-0.238,1.906-0.531,1.906h-12.232c-0.293,0-0.531-0.854-0.531-1.906V97.206
	c0-1.052,0.238-1.906,0.531-1.906h12.232C235.71,95.3,235.949,96.154,235.949,97.206"/>
<path fill="none" stroke="#010101" stroke-width="0.67" stroke-miterlimit="10" d="M235.949,97.206v38.732
	c0,1.052-0.238,1.906-0.531,1.906h-12.232c-0.293,0-0.531-0.854-0.531-1.906V97.206c0-1.052,0.238-1.906,0.531-1.906h12.232
	C235.71,95.3,235.949,96.154,235.949,97.206z"/>
<path fill="none" stroke="#6B6868" stroke-width="0.8863" stroke-miterlimit="10" d="M236.392,152.024h3.545
	c1.773,0,3.545-1.772,3.545-3.545s-1.771-3.546-3.545-3.546h-3.545V152.024z"/>
<path fill="none" stroke="#6B6868" stroke-width="0.8863" stroke-miterlimit="10" d="M236.392,173.297h3.545
	c1.773,0,3.545-1.773,3.545-3.545c0-1.773-1.771-3.546-3.545-3.546h-3.545V173.297z"/>
<path fill="none" stroke="#6B6868" stroke-width="0.8863" stroke-miterlimit="10" d="M223.097,166.206h-3.546
	c-1.772,0-3.545,1.772-3.545,3.546c0,1.771,1.772,3.545,3.545,3.545h3.546V166.206z"/>
<path fill="none" stroke="#6B6868" stroke-width="0.8863" stroke-miterlimit="10" d="M223.097,144.934h-3.546
	c-1.772,0-3.545,1.773-3.545,3.546s1.772,3.545,3.545,3.545h3.546V144.934z"/>
<path fill="#FFFFFF" d="M236.392,139.749v38.733c0,1.053-0.238,1.906-0.531,1.906h-12.232c-0.293,0-0.531-0.854-0.531-1.906v-38.733
	c0-1.052,0.238-1.905,0.531-1.905h12.232C236.154,137.844,236.392,138.697,236.392,139.749"/>
<path fill="none" stroke="#010101" stroke-width="0.67" stroke-miterlimit="10" d="M236.392,139.749v38.733
	c0,1.053-0.238,1.906-0.531,1.906h-12.232c-0.293,0-0.531-0.854-0.531-1.906v-38.733c0-1.052,0.238-1.905,0.531-1.905h12.232
	C236.154,137.844,236.392,138.697,236.392,139.749z"/>
<path fill="none" stroke="#6B6868" stroke-width="0.8863" stroke-miterlimit="10" d="M235.949,195.898h3.546
	c1.772,0,3.545-1.773,3.545-3.545c0-1.773-1.772-3.546-3.545-3.546h-3.546V195.898z"/>
<path fill="none" stroke="#6B6868" stroke-width="0.8863" stroke-miterlimit="10" d="M235.949,217.169h3.546
	c1.772,0,3.545-1.773,3.545-3.545c0-1.773-1.772-3.544-3.545-3.544h-3.546V217.169z"/>
<path fill="none" stroke="#6B6868" stroke-width="0.8863" stroke-miterlimit="10" d="M222.654,210.08h-3.545
	c-1.772,0-3.545,1.771-3.545,3.544c0,1.771,1.772,3.545,3.545,3.545h3.545V210.08z"/>
<path fill="none" stroke="#6B6868" stroke-width="0.8863" stroke-miterlimit="10" d="M222.654,188.807h-3.545
	c-1.772,0-3.545,1.773-3.545,3.546c0,1.771,1.772,3.545,3.545,3.545h3.545V188.807z"/>
<path fill="#FFFFFF" d="M235.949,183.623v38.731c0,1.053-0.238,1.906-0.531,1.906h-12.232c-0.293,0-0.531-0.854-0.531-1.906v-38.731
	c0-1.053,0.238-1.906,0.531-1.906h12.232C235.71,181.717,235.949,182.57,235.949,183.623"/>
<path fill="none" stroke="#010101" stroke-width="0.67" stroke-miterlimit="10" d="M235.949,183.623v38.731
	c0,1.053-0.238,1.906-0.531,1.906h-12.232c-0.293,0-0.531-0.854-0.531-1.906v-38.731c0-1.053,0.238-1.906,0.531-1.906h12.232
	C235.71,181.717,235.949,182.57,235.949,183.623z"/>
<path fill="none" stroke="#6B6868" stroke-width="0.8863" stroke-miterlimit="10" d="M235.949,240.657h3.546
	c1.772,0,3.545-1.773,3.545-3.545c0-1.773-1.772-3.547-3.545-3.547h-3.546V240.657z"/>
<path fill="none" stroke="#6B6868" stroke-width="0.8863" stroke-miterlimit="10" d="M235.949,261.929h3.546
	c1.772,0,3.545-1.771,3.545-3.545s-1.772-3.545-3.545-3.545h-3.546V261.929z"/>
<path fill="none" stroke="#6B6868" stroke-width="0.8863" stroke-miterlimit="10" d="M222.654,254.839h-3.545
	c-1.772,0-3.545,1.771-3.545,3.545s1.772,3.545,3.545,3.545h3.545V254.839z"/>
<path fill="none" stroke="#6B6868" stroke-width="0.8863" stroke-miterlimit="10" d="M222.654,233.565h-3.545
	c-1.772,0-3.545,1.773-3.545,3.547c0,1.771,1.772,3.545,3.545,3.545h3.545V233.565z"/>
<path fill="#FFFFFF" d="M235.949,228.382v38.732c0,1.051-0.238,1.904-0.531,1.904h-12.232c-0.293,0-0.531-0.854-0.531-1.904v-38.732
	c0-1.053,0.238-1.906,0.531-1.906h12.232C235.71,226.476,235.949,227.329,235.949,228.382"/>
<path fill="none" stroke="#010101" stroke-width="0.67" stroke-miterlimit="10" d="M235.949,228.382v38.732
	c0,1.051-0.238,1.904-0.531,1.904h-12.232c-0.293,0-0.531-0.854-0.531-1.904v-38.732c0-1.053,0.238-1.906,0.531-1.906h12.232
	C235.71,226.476,235.949,227.329,235.949,228.382z"/>
<path fill="none" stroke="#6B6868" stroke-width="0.8863" stroke-miterlimit="10" d="M235.949,284.087h3.546
	c1.772,0,3.545-1.773,3.545-3.545c0-1.773-1.772-3.545-3.545-3.545h-3.546V284.087z"/>
<path fill="none" stroke="#6B6868" stroke-width="0.8863" stroke-miterlimit="10" d="M235.949,305.358h3.546
	c1.772,0,3.545-1.771,3.545-3.545c0-1.771-1.772-3.545-3.545-3.545h-3.546V305.358z"/>
<path fill="none" stroke="#6B6868" stroke-width="0.8863" stroke-miterlimit="10" d="M222.654,298.269h-3.545
	c-1.772,0-3.545,1.773-3.545,3.545c0,1.773,1.772,3.545,3.545,3.545h3.545V298.269z"/>
<path fill="none" stroke="#6B6868" stroke-width="0.8863" stroke-miterlimit="10" d="M222.654,276.997h-3.545
	c-1.772,0-3.545,1.771-3.545,3.545c0,1.771,1.772,3.545,3.545,3.545h3.545V276.997z"/>
<path fill="#FFFFFF" d="M235.949,271.812v38.732c0,1.053-0.238,1.906-0.531,1.906h-12.232c-0.293,0-0.531-0.854-0.531-1.906v-38.732
	c0-1.053,0.238-1.904,0.531-1.904h12.232C235.71,269.907,235.949,270.759,235.949,271.812"/>
<path fill="none" stroke="#010101" stroke-width="0.67" stroke-miterlimit="10" d="M235.949,271.812v38.732
	c0,1.053-0.238,1.906-0.531,1.906h-12.232c-0.293,0-0.531-0.854-0.531-1.906v-38.732c0-1.053,0.238-1.904,0.531-1.904h12.232
	C235.71,269.907,235.949,270.759,235.949,271.812z"/>
<path fill="none" stroke="#6B6868" stroke-width="0.8863" stroke-miterlimit="10" d="M284.949,109.31h3.546
	c1.772,0,3.545-1.772,3.545-3.545c0-1.773-1.772-3.545-3.545-3.545h-3.546V109.31z"/>
<path fill="none" stroke="#6B6868" stroke-width="0.8863" stroke-miterlimit="10" d="M284.949,130.582h3.546
	c1.772,0,3.545-1.772,3.545-3.545c0-1.773-1.772-3.545-3.545-3.545h-3.546V130.582z"/>
<path fill="none" stroke="#6B6868" stroke-width="0.8863" stroke-miterlimit="10" d="M271.654,123.492h-3.546
	c-1.772,0-3.545,1.772-3.545,3.545c0,1.773,1.773,3.545,3.545,3.545h3.546V123.492z"/>
<path fill="none" stroke="#6B6868" stroke-width="0.8863" stroke-miterlimit="10" d="M271.654,102.22h-3.546
	c-1.772,0-3.545,1.772-3.545,3.545c0,1.773,1.773,3.545,3.545,3.545h3.546V102.22z"/>
<path fill="#FFFFFF" d="M284.949,97.035v38.732c0,1.052-0.238,1.906-0.531,1.906h-12.232c-0.293,0-0.531-0.854-0.531-1.906V97.035
	c0-1.052,0.238-1.906,0.531-1.906h12.232C284.71,95.129,284.949,95.983,284.949,97.035"/>
<path fill="none" stroke="#010101" stroke-width="0.67" stroke-miterlimit="10" d="M284.949,97.035v38.732
	c0,1.052-0.238,1.906-0.531,1.906h-12.232c-0.293,0-0.531-0.854-0.531-1.906V97.035c0-1.052,0.238-1.906,0.531-1.906h12.232
	C284.71,95.129,284.949,95.983,284.949,97.035z"/>
<path fill="none" stroke="#6B6868" stroke-width="0.8863" stroke-miterlimit="10" d="M285.392,151.854h3.545
	c1.773,0,3.545-1.772,3.545-3.545s-1.771-3.546-3.545-3.546h-3.545V151.854z"/>
<path fill="none" stroke="#6B6868" stroke-width="0.8863" stroke-miterlimit="10" d="M285.392,173.126h3.545
	c1.773,0,3.545-1.773,3.545-3.545c0-1.773-1.771-3.546-3.545-3.546h-3.545V173.126z"/>
<path fill="none" stroke="#6B6868" stroke-width="0.8863" stroke-miterlimit="10" d="M272.097,166.035h-3.546
	c-1.772,0-3.545,1.772-3.545,3.546c0,1.771,1.773,3.545,3.545,3.545h3.546V166.035z"/>
<path fill="none" stroke="#6B6868" stroke-width="0.8863" stroke-miterlimit="10" d="M272.097,144.763h-3.546
	c-1.772,0-3.545,1.773-3.545,3.546s1.773,3.545,3.545,3.545h3.546V144.763z"/>
<path fill="#FFFFFF" d="M285.392,139.578v38.733c0,1.053-0.238,1.906-0.531,1.906h-12.232c-0.293,0-0.531-0.854-0.531-1.906v-38.733
	c0-1.052,0.238-1.905,0.531-1.905h12.232C285.154,137.673,285.392,138.526,285.392,139.578"/>
<path fill="none" stroke="#010101" stroke-width="0.67" stroke-miterlimit="10" d="M285.392,139.578v38.733
	c0,1.053-0.238,1.906-0.531,1.906h-12.232c-0.293,0-0.531-0.854-0.531-1.906v-38.733c0-1.052,0.238-1.905,0.531-1.905h12.232
	C285.154,137.673,285.392,138.526,285.392,139.578z"/>
<path fill="none" stroke="#6B6868" stroke-width="0.8863" stroke-miterlimit="10" d="M284.949,195.727h3.546
	c1.772,0,3.545-1.773,3.545-3.545c0-1.773-1.772-3.546-3.545-3.546h-3.546V195.727z"/>
<path fill="none" stroke="#6B6868" stroke-width="0.8863" stroke-miterlimit="10" d="M284.949,216.998h3.546
	c1.772,0,3.545-1.773,3.545-3.545c0-1.773-1.772-3.544-3.545-3.544h-3.546V216.998z"/>
<path fill="none" stroke="#6B6868" stroke-width="0.8863" stroke-miterlimit="10" d="M271.654,209.909h-3.546
	c-1.772,0-3.545,1.771-3.545,3.544c0,1.771,1.773,3.545,3.545,3.545h3.546V209.909z"/>
<path fill="none" stroke="#6B6868" stroke-width="0.8863" stroke-miterlimit="10" d="M271.654,188.636h-3.546
	c-1.772,0-3.545,1.773-3.545,3.546c0,1.771,1.773,3.545,3.545,3.545h3.546V188.636z"/>
<path fill="#FFFFFF" d="M284.949,183.452v38.731c0,1.053-0.238,1.906-0.531,1.906h-12.232c-0.293,0-0.531-0.854-0.531-1.906v-38.731
	c0-1.053,0.238-1.906,0.531-1.906h12.232C284.71,181.546,284.949,182.399,284.949,183.452"/>
<path fill="none" stroke="#010101" stroke-width="0.67" stroke-miterlimit="10" d="M284.949,183.452v38.731
	c0,1.053-0.238,1.906-0.531,1.906h-12.232c-0.293,0-0.531-0.854-0.531-1.906v-38.731c0-1.053,0.238-1.906,0.531-1.906h12.232
	C284.71,181.546,284.949,182.399,284.949,183.452z"/>
<path fill="none" stroke="#6B6868" stroke-width="0.8863" stroke-miterlimit="10" d="M284.949,240.486h3.546
	c1.772,0,3.545-1.773,3.545-3.545c0-1.773-1.772-3.547-3.545-3.547h-3.546V240.486z"/>
<path fill="none" stroke="#6B6868" stroke-width="0.8863" stroke-miterlimit="10" d="M284.949,261.758h3.546
	c1.772,0,3.545-1.771,3.545-3.545s-1.772-3.545-3.545-3.545h-3.546V261.758z"/>
<path fill="none" stroke="#6B6868" stroke-width="0.8863" stroke-miterlimit="10" d="M271.654,254.668h-3.546
	c-1.772,0-3.545,1.771-3.545,3.545s1.773,3.545,3.545,3.545h3.546V254.668z"/>
<path fill="none" stroke="#6B6868" stroke-width="0.8863" stroke-miterlimit="10" d="M271.654,233.395h-3.546
	c-1.772,0-3.545,1.773-3.545,3.547c0,1.771,1.773,3.545,3.545,3.545h3.546V233.395z"/>
<path fill="#FFFFFF" d="M284.949,228.211v38.732c0,1.051-0.238,1.904-0.531,1.904h-12.232c-0.293,0-0.531-0.854-0.531-1.904v-38.732
	c0-1.053,0.238-1.906,0.531-1.906h12.232C284.71,226.305,284.949,227.158,284.949,228.211"/>
<path fill="none" stroke="#010101" stroke-width="0.67" stroke-miterlimit="10" d="M284.949,228.211v38.732
	c0,1.051-0.238,1.904-0.531,1.904h-12.232c-0.293,0-0.531-0.854-0.531-1.904v-38.732c0-1.053,0.238-1.906,0.531-1.906h12.232
	C284.71,226.305,284.949,227.158,284.949,228.211z"/>
<path fill="none" stroke="#6B6868" stroke-width="0.8863" stroke-miterlimit="10" d="M284.949,283.916h3.546
	c1.772,0,3.545-1.773,3.545-3.545c0-1.773-1.772-3.545-3.545-3.545h-3.546V283.916z"/>
<path fill="none" stroke="#6B6868" stroke-width="0.8863" stroke-miterlimit="10" d="M284.949,305.188h3.546
	c1.772,0,3.545-1.771,3.545-3.545c0-1.771-1.772-3.545-3.545-3.545h-3.546V305.188z"/>
<path fill="none" stroke="#6B6868" stroke-width="0.8863" stroke-miterlimit="10" d="M271.654,298.098h-3.546
	c-1.772,0-3.545,1.773-3.545,3.545c0,1.773,1.773,3.545,3.545,3.545h3.546V298.098z"/>
<path fill="none" stroke="#6B6868" stroke-width="0.8863" stroke-miterlimit="10" d="M271.654,276.826h-3.546
	c-1.772,0-3.545,1.771-3.545,3.545c0,1.771,1.773,3.545,3.545,3.545h3.546V276.826z"/>
<path fill="#FFFFFF" d="M284.949,271.641v38.732c0,1.053-0.238,1.906-0.531,1.906h-12.232c-0.293,0-0.531-0.854-0.531-1.906v-38.732
	c0-1.053,0.238-1.904,0.531-1.904h12.232C284.71,269.736,284.949,270.588,284.949,271.641"/>
<path fill="none" stroke="#010101" stroke-width="0.67" stroke-miterlimit="10" d="M284.949,271.641v38.732
	c0,1.053-0.238,1.906-0.531,1.906h-12.232c-0.293,0-0.531-0.854-0.531-1.906v-38.732c0-1.053,0.238-1.904,0.531-1.904h12.232
	C284.71,269.736,284.949,270.588,284.949,271.641z"/>
<path fill="none" stroke="#6B6868" stroke-width="0.8863" stroke-miterlimit="10" d="M334.949,109.424h3.546
	c1.772,0,3.545-1.772,3.545-3.545c0-1.773-1.772-3.545-3.545-3.545h-3.546V109.424z"/>
<path fill="none" stroke="#6B6868" stroke-width="0.8863" stroke-miterlimit="10" d="M334.949,130.696h3.546
	c1.772,0,3.545-1.772,3.545-3.545c0-1.773-1.772-3.545-3.545-3.545h-3.546V130.696z"/>
<path fill="none" stroke="#6B6868" stroke-width="0.8863" stroke-miterlimit="10" d="M321.654,123.606h-3.546
	c-1.772,0-3.545,1.772-3.545,3.545c0,1.773,1.773,3.545,3.545,3.545h3.546V123.606z"/>
<path fill="none" stroke="#6B6868" stroke-width="0.8863" stroke-miterlimit="10" d="M321.654,102.334h-3.546
	c-1.772,0-3.545,1.772-3.545,3.545c0,1.773,1.773,3.545,3.545,3.545h3.546V102.334z"/>
<path fill="#FFFFFF" d="M334.949,97.149v38.732c0,1.052-0.238,1.906-0.531,1.906h-12.232c-0.293,0-0.531-0.854-0.531-1.906V97.149
	c0-1.052,0.238-1.906,0.531-1.906h12.232C334.71,95.243,334.949,96.097,334.949,97.149"/>
<path fill="none" stroke="#010101" stroke-width="0.67" stroke-miterlimit="10" d="M334.949,97.149v38.732
	c0,1.052-0.238,1.906-0.531,1.906h-12.232c-0.293,0-0.531-0.854-0.531-1.906V97.149c0-1.052,0.238-1.906,0.531-1.906h12.232
	C334.71,95.243,334.949,96.097,334.949,97.149z"/>
<path fill="none" stroke="#6B6868" stroke-width="0.8863" stroke-miterlimit="10" d="M335.392,151.968h3.545
	c1.773,0,3.545-1.772,3.545-3.545s-1.771-3.546-3.545-3.546h-3.545V151.968z"/>
<path fill="none" stroke="#6B6868" stroke-width="0.8863" stroke-miterlimit="10" d="M335.392,173.24h3.545
	c1.773,0,3.545-1.773,3.545-3.545c0-1.773-1.771-3.546-3.545-3.546h-3.545V173.24z"/>
<path fill="none" stroke="#6B6868" stroke-width="0.8863" stroke-miterlimit="10" d="M322.097,166.149h-3.546
	c-1.772,0-3.545,1.772-3.545,3.546c0,1.771,1.773,3.545,3.545,3.545h3.546V166.149z"/>
<path fill="none" stroke="#6B6868" stroke-width="0.8863" stroke-miterlimit="10" d="M322.097,144.877h-3.546
	c-1.772,0-3.545,1.773-3.545,3.546s1.773,3.545,3.545,3.545h3.546V144.877z"/>
<path fill="#FFFFFF" d="M335.392,139.692v38.733c0,1.053-0.238,1.906-0.531,1.906h-12.232c-0.293,0-0.531-0.854-0.531-1.906v-38.733
	c0-1.052,0.238-1.905,0.531-1.905h12.232C335.154,137.787,335.392,138.64,335.392,139.692"/>
<path fill="none" stroke="#010101" stroke-width="0.67" stroke-miterlimit="10" d="M335.392,139.692v38.733
	c0,1.053-0.238,1.906-0.531,1.906h-12.232c-0.293,0-0.531-0.854-0.531-1.906v-38.733c0-1.052,0.238-1.905,0.531-1.905h12.232
	C335.154,137.787,335.392,138.64,335.392,139.692z"/>
<path fill="none" stroke="#6B6868" stroke-width="0.8863" stroke-miterlimit="10" d="M334.949,195.841h3.546
	c1.772,0,3.545-1.773,3.545-3.545c0-1.773-1.772-3.546-3.545-3.546h-3.546V195.841z"/>
<path fill="none" stroke="#6B6868" stroke-width="0.8863" stroke-miterlimit="10" d="M334.949,217.112h3.546
	c1.772,0,3.545-1.773,3.545-3.545c0-1.773-1.772-3.544-3.545-3.544h-3.546V217.112z"/>
<path fill="none" stroke="#6B6868" stroke-width="0.8863" stroke-miterlimit="10" d="M321.654,210.023h-3.546
	c-1.772,0-3.545,1.771-3.545,3.544c0,1.771,1.773,3.545,3.545,3.545h3.546V210.023z"/>
<path fill="none" stroke="#6B6868" stroke-width="0.8863" stroke-miterlimit="10" d="M321.654,188.75h-3.546
	c-1.772,0-3.545,1.773-3.545,3.546c0,1.771,1.773,3.545,3.545,3.545h3.546V188.75z"/>
<path fill="#FFFFFF" d="M334.949,183.566v38.731c0,1.053-0.238,1.906-0.531,1.906h-12.232c-0.293,0-0.531-0.854-0.531-1.906v-38.731
	c0-1.053,0.238-1.906,0.531-1.906h12.232C334.71,181.66,334.949,182.514,334.949,183.566"/>
<path fill="none" stroke="#010101" stroke-width="0.67" stroke-miterlimit="10" d="M334.949,183.566v38.731
	c0,1.053-0.238,1.906-0.531,1.906h-12.232c-0.293,0-0.531-0.854-0.531-1.906v-38.731c0-1.053,0.238-1.906,0.531-1.906h12.232
	C334.71,181.66,334.949,182.514,334.949,183.566z"/>
<path fill="none" stroke="#6B6868" stroke-width="0.8863" stroke-miterlimit="10" d="M334.949,240.601h3.546
	c1.772,0,3.545-1.773,3.545-3.545c0-1.773-1.772-3.547-3.545-3.547h-3.546V240.601z"/>
<path fill="none" stroke="#6B6868" stroke-width="0.8863" stroke-miterlimit="10" d="M334.949,261.872h3.546
	c1.772,0,3.545-1.771,3.545-3.545s-1.772-3.545-3.545-3.545h-3.546V261.872z"/>
<path fill="none" stroke="#6B6868" stroke-width="0.8863" stroke-miterlimit="10" d="M321.654,254.782h-3.546
	c-1.772,0-3.545,1.771-3.545,3.545s1.773,3.545,3.545,3.545h3.546V254.782z"/>
<path fill="none" stroke="#6B6868" stroke-width="0.8863" stroke-miterlimit="10" d="M321.654,233.509h-3.546
	c-1.772,0-3.545,1.773-3.545,3.547c0,1.771,1.773,3.545,3.545,3.545h3.546V233.509z"/>
<path fill="#FFFFFF" d="M334.949,228.325v38.732c0,1.051-0.238,1.904-0.531,1.904h-12.232c-0.293,0-0.531-0.854-0.531-1.904v-38.732
	c0-1.053,0.238-1.906,0.531-1.906h12.232C334.71,226.419,334.949,227.272,334.949,228.325"/>
<path fill="none" stroke="#010101" stroke-width="0.67" stroke-miterlimit="10" d="M334.949,228.325v38.732
	c0,1.051-0.238,1.904-0.531,1.904h-12.232c-0.293,0-0.531-0.854-0.531-1.904v-38.732c0-1.053,0.238-1.906,0.531-1.906h12.232
	C334.71,226.419,334.949,227.272,334.949,228.325z"/>
<path fill="none" stroke="#6B6868" stroke-width="0.8863" stroke-miterlimit="10" d="M334.949,284.03h3.546
	c1.772,0,3.545-1.773,3.545-3.545c0-1.773-1.772-3.545-3.545-3.545h-3.546V284.03z"/>
<path fill="none" stroke="#6B6868" stroke-width="0.8863" stroke-miterlimit="10" d="M334.949,305.302h3.546
	c1.772,0,3.545-1.771,3.545-3.545c0-1.771-1.772-3.545-3.545-3.545h-3.546V305.302z"/>
<path fill="none" stroke="#6B6868" stroke-width="0.8863" stroke-miterlimit="10" d="M321.654,298.212h-3.546
	c-1.772,0-3.545,1.773-3.545,3.545c0,1.773,1.773,3.545,3.545,3.545h3.546V298.212z"/>
<path fill="none" stroke="#6B6868" stroke-width="0.8863" stroke-miterlimit="10" d="M321.654,276.94h-3.546
	c-1.772,0-3.545,1.771-3.545,3.545c0,1.771,1.773,3.545,3.545,3.545h3.546V276.94z"/>
<path fill="#FFFFFF" d="M334.949,271.755v38.732c0,1.053-0.238,1.906-0.531,1.906h-12.232c-0.293,0-0.531-0.854-0.531-1.906v-38.732
	c0-1.053,0.238-1.904,0.531-1.904h12.232C334.71,269.851,334.949,270.702,334.949,271.755"/>
<path fill="none" stroke="#010101" stroke-width="0.67" stroke-miterlimit="10" d="M334.949,271.755v38.732
	c0,1.053-0.238,1.906-0.531,1.906h-12.232c-0.293,0-0.531-0.854-0.531-1.906v-38.732c0-1.053,0.238-1.904,0.531-1.904h12.232
	C334.71,269.851,334.949,270.702,334.949,271.755z"/>
<path fill="none" stroke="#6B6868" stroke-width="0.8863" stroke-miterlimit="10" d="M384.949,108.367h3.546
	c1.772,0,3.545-1.772,3.545-3.545c0-1.773-1.772-3.545-3.545-3.545h-3.546V108.367z"/>
<path fill="none" stroke="#6B6868" stroke-width="0.8863" stroke-miterlimit="10" d="M384.949,129.639h3.546
	c1.772,0,3.545-1.772,3.545-3.545c0-1.773-1.772-3.545-3.545-3.545h-3.546V129.639z"/>
<path fill="none" stroke="#6B6868" stroke-width="0.8863" stroke-miterlimit="10" d="M371.654,122.548h-3.545
	c-1.772,0-3.545,1.772-3.545,3.545c0,1.773,1.772,3.545,3.545,3.545h3.545V122.548z"/>
<path fill="none" stroke="#6B6868" stroke-width="0.8863" stroke-miterlimit="10" d="M371.654,101.276h-3.545
	c-1.772,0-3.545,1.772-3.545,3.545c0,1.773,1.772,3.545,3.545,3.545h3.545V101.276z"/>
<path fill="#FFFFFF" d="M384.949,96.091v38.732c0,1.052-0.238,1.906-0.531,1.906h-12.232c-0.293,0-0.531-0.854-0.531-1.906V96.091
	c0-1.052,0.238-1.906,0.531-1.906h12.232C384.71,94.186,384.949,95.04,384.949,96.091"/>
<path fill="none" stroke="#010101" stroke-width="0.67" stroke-miterlimit="10" d="M384.949,96.091v38.732
	c0,1.052-0.238,1.906-0.531,1.906h-12.232c-0.293,0-0.531-0.854-0.531-1.906V96.091c0-1.052,0.238-1.906,0.531-1.906h12.232
	C384.71,94.186,384.949,95.04,384.949,96.091z"/>
<path fill="none" stroke="#6B6868" stroke-width="0.8863" stroke-miterlimit="10" d="M385.392,150.91h3.545
	c1.773,0,3.545-1.772,3.545-3.545s-1.771-3.546-3.545-3.546h-3.545V150.91z"/>
<path fill="none" stroke="#6B6868" stroke-width="0.8863" stroke-miterlimit="10" d="M385.392,172.183h3.545
	c1.773,0,3.545-1.773,3.545-3.545c0-1.773-1.771-3.546-3.545-3.546h-3.545V172.183z"/>
<path fill="none" stroke="#6B6868" stroke-width="0.8863" stroke-miterlimit="10" d="M372.097,165.092h-3.546
	c-1.772,0-3.545,1.772-3.545,3.546c0,1.771,1.772,3.545,3.545,3.545h3.546V165.092z"/>
<path fill="none" stroke="#6B6868" stroke-width="0.8863" stroke-miterlimit="10" d="M372.097,143.819h-3.546
	c-1.772,0-3.545,1.773-3.545,3.546s1.772,3.545,3.545,3.545h3.546V143.819z"/>
<path fill="#FFFFFF" d="M385.392,138.634v38.733c0,1.053-0.238,1.906-0.531,1.906h-12.232c-0.293,0-0.531-0.854-0.531-1.906v-38.733
	c0-1.052,0.238-1.905,0.531-1.905h12.232C385.154,136.729,385.392,137.583,385.392,138.634"/>
<path fill="none" stroke="#010101" stroke-width="0.67" stroke-miterlimit="10" d="M385.392,138.634v38.733
	c0,1.053-0.238,1.906-0.531,1.906h-12.232c-0.293,0-0.531-0.854-0.531-1.906v-38.733c0-1.052,0.238-1.905,0.531-1.905h12.232
	C385.154,136.729,385.392,137.583,385.392,138.634z"/>
<path fill="none" stroke="#6B6868" stroke-width="0.8863" stroke-miterlimit="10" d="M384.949,194.784h3.546
	c1.772,0,3.545-1.773,3.545-3.545c0-1.773-1.772-3.546-3.545-3.546h-3.546V194.784z"/>
<path fill="none" stroke="#6B6868" stroke-width="0.8863" stroke-miterlimit="10" d="M384.949,216.055h3.546
	c1.772,0,3.545-1.773,3.545-3.545c0-1.773-1.772-3.544-3.545-3.544h-3.546V216.055z"/>
<path fill="none" stroke="#6B6868" stroke-width="0.8863" stroke-miterlimit="10" d="M371.654,208.965h-3.545
	c-1.772,0-3.545,1.771-3.545,3.544c0,1.771,1.772,3.545,3.545,3.545h3.545V208.965z"/>
<path fill="none" stroke="#6B6868" stroke-width="0.8863" stroke-miterlimit="10" d="M371.654,187.692h-3.545
	c-1.772,0-3.545,1.773-3.545,3.546c0,1.771,1.772,3.545,3.545,3.545h3.545V187.692z"/>
<path fill="#FFFFFF" d="M384.949,182.509v38.731c0,1.053-0.238,1.906-0.531,1.906h-12.232c-0.293,0-0.531-0.854-0.531-1.906v-38.731
	c0-1.053,0.238-1.906,0.531-1.906h12.232C384.71,180.603,384.949,181.456,384.949,182.509"/>
<path fill="none" stroke="#010101" stroke-width="0.67" stroke-miterlimit="10" d="M384.949,182.509v38.731
	c0,1.053-0.238,1.906-0.531,1.906h-12.232c-0.293,0-0.531-0.854-0.531-1.906v-38.731c0-1.053,0.238-1.906,0.531-1.906h12.232
	C384.71,180.603,384.949,181.456,384.949,182.509z"/>
<path fill="none" stroke="#6B6868" stroke-width="0.8863" stroke-miterlimit="10" d="M384.949,239.543h3.546
	c1.772,0,3.545-1.773,3.545-3.545c0-1.773-1.772-3.547-3.545-3.547h-3.546V239.543z"/>
<path fill="none" stroke="#6B6868" stroke-width="0.8863" stroke-miterlimit="10" d="M384.949,260.814h3.546
	c1.772,0,3.545-1.771,3.545-3.545s-1.772-3.545-3.545-3.545h-3.546V260.814z"/>
<path fill="none" stroke="#6B6868" stroke-width="0.8863" stroke-miterlimit="10" d="M371.654,253.725h-3.545
	c-1.772,0-3.545,1.771-3.545,3.545s1.772,3.545,3.545,3.545h3.545V253.725z"/>
<path fill="none" stroke="#6B6868" stroke-width="0.8863" stroke-miterlimit="10" d="M371.654,232.451h-3.545
	c-1.772,0-3.545,1.773-3.545,3.547c0,1.771,1.772,3.545,3.545,3.545h3.545V232.451z"/>
<path fill="#FFFFFF" d="M384.949,227.268V266c0,1.051-0.238,1.904-0.531,1.904h-12.232c-0.293,0-0.531-0.854-0.531-1.904v-38.732
	c0-1.053,0.238-1.906,0.531-1.906h12.232C384.71,225.361,384.949,226.215,384.949,227.268"/>
<path fill="none" stroke="#010101" stroke-width="0.67" stroke-miterlimit="10" d="M384.949,227.268V266
	c0,1.051-0.238,1.904-0.531,1.904h-12.232c-0.293,0-0.531-0.854-0.531-1.904v-38.732c0-1.053,0.238-1.906,0.531-1.906h12.232
	C384.71,225.361,384.949,226.215,384.949,227.268z"/>
<path fill="none" stroke="#6B6868" stroke-width="0.8863" stroke-miterlimit="10" d="M384.949,282.973h3.546
	c1.772,0,3.545-1.773,3.545-3.545c0-1.773-1.772-3.545-3.545-3.545h-3.546V282.973z"/>
<path fill="none" stroke="#6B6868" stroke-width="0.8863" stroke-miterlimit="10" d="M384.949,304.244h3.546
	c1.772,0,3.545-1.771,3.545-3.545c0-1.771-1.772-3.545-3.545-3.545h-3.546V304.244z"/>
<path fill="none" stroke="#6B6868" stroke-width="0.8863" stroke-miterlimit="10" d="M371.654,297.154h-3.545
	c-1.772,0-3.545,1.773-3.545,3.545c0,1.773,1.772,3.545,3.545,3.545h3.545V297.154z"/>
<path fill="none" stroke="#6B6868" stroke-width="0.8863" stroke-miterlimit="10" d="M371.654,275.883h-3.545
	c-1.772,0-3.545,1.771-3.545,3.545c0,1.771,1.772,3.545,3.545,3.545h3.545V275.883z"/>
<path fill="#FFFFFF" d="M384.949,270.697v38.732c0,1.053-0.238,1.906-0.531,1.906h-12.232c-0.293,0-0.531-0.854-0.531-1.906v-38.732
	c0-1.053,0.238-1.904,0.531-1.904h12.232C384.71,268.793,384.949,269.645,384.949,270.697"/>
<path fill="none" stroke="#010101" stroke-width="0.67" stroke-miterlimit="10" d="M384.949,270.697v38.732
	c0,1.053-0.238,1.906-0.531,1.906h-12.232c-0.293,0-0.531-0.854-0.531-1.906v-38.732c0-1.053,0.238-1.904,0.531-1.904h12.232
	C384.71,268.793,384.949,269.645,384.949,270.697z"/>
<path fill="none" stroke="#6B6868" stroke-width="0.8863" stroke-miterlimit="10" d="M434.949,108.481h3.546
	c1.772,0,3.545-1.772,3.545-3.545c0-1.773-1.772-3.545-3.545-3.545h-3.546V108.481z"/>
<path fill="none" stroke="#6B6868" stroke-width="0.8863" stroke-miterlimit="10" d="M434.949,129.753h3.546
	c1.772,0,3.545-1.772,3.545-3.545c0-1.773-1.772-3.545-3.545-3.545h-3.546V129.753z"/>
<path fill="none" stroke="#6B6868" stroke-width="0.8863" stroke-miterlimit="10" d="M421.654,122.663h-3.545
	c-1.772,0-3.545,1.772-3.545,3.545c0,1.773,1.772,3.545,3.545,3.545h3.545V122.663z"/>
<path fill="none" stroke="#6B6868" stroke-width="0.8863" stroke-miterlimit="10" d="M421.654,101.391h-3.545
	c-1.772,0-3.545,1.772-3.545,3.545c0,1.773,1.772,3.545,3.545,3.545h3.545V101.391z"/>
<path fill="#FFFFFF" d="M434.949,96.206v38.732c0,1.052-0.238,1.906-0.531,1.906h-12.232c-0.293,0-0.531-0.854-0.531-1.906V96.206
	c0-1.052,0.238-1.906,0.531-1.906h12.232C434.71,94.3,434.949,95.154,434.949,96.206"/>
<path fill="none" stroke="#010101" stroke-width="0.67" stroke-miterlimit="10" d="M434.949,96.206v38.732
	c0,1.052-0.238,1.906-0.531,1.906h-12.232c-0.293,0-0.531-0.854-0.531-1.906V96.206c0-1.052,0.238-1.906,0.531-1.906h12.232
	C434.71,94.3,434.949,95.154,434.949,96.206z"/>
<path fill="none" stroke="#6B6868" stroke-width="0.8863" stroke-miterlimit="10" d="M435.392,151.024h3.545
	c1.773,0,3.545-1.772,3.545-3.545s-1.771-3.546-3.545-3.546h-3.545V151.024z"/>
<path fill="none" stroke="#6B6868" stroke-width="0.8863" stroke-miterlimit="10" d="M435.392,172.297h3.545
	c1.773,0,3.545-1.773,3.545-3.545c0-1.773-1.771-3.546-3.545-3.546h-3.545V172.297z"/>
<path fill="none" stroke="#6B6868" stroke-width="0.8863" stroke-miterlimit="10" d="M422.097,165.206h-3.546
	c-1.772,0-3.545,1.772-3.545,3.546c0,1.771,1.772,3.545,3.545,3.545h3.546V165.206z"/>
<path fill="none" stroke="#6B6868" stroke-width="0.8863" stroke-miterlimit="10" d="M422.097,143.934h-3.546
	c-1.772,0-3.545,1.773-3.545,3.546s1.772,3.545,3.545,3.545h3.546V143.934z"/>
<path fill="#FFFFFF" d="M435.392,138.749v38.733c0,1.053-0.238,1.906-0.531,1.906h-12.232c-0.293,0-0.531-0.854-0.531-1.906v-38.733
	c0-1.052,0.238-1.905,0.531-1.905h12.232C435.154,136.844,435.392,137.697,435.392,138.749"/>
<path fill="none" stroke="#010101" stroke-width="0.67" stroke-miterlimit="10" d="M435.392,138.749v38.733
	c0,1.053-0.238,1.906-0.531,1.906h-12.232c-0.293,0-0.531-0.854-0.531-1.906v-38.733c0-1.052,0.238-1.905,0.531-1.905h12.232
	C435.154,136.844,435.392,137.697,435.392,138.749z"/>
<path fill="none" stroke="#6B6868" stroke-width="0.8863" stroke-miterlimit="10" d="M434.949,194.898h3.546
	c1.772,0,3.545-1.773,3.545-3.545c0-1.773-1.772-3.546-3.545-3.546h-3.546V194.898z"/>
<path fill="none" stroke="#6B6868" stroke-width="0.8863" stroke-miterlimit="10" d="M434.949,216.169h3.546
	c1.772,0,3.545-1.773,3.545-3.545c0-1.773-1.772-3.544-3.545-3.544h-3.546V216.169z"/>
<path fill="none" stroke="#6B6868" stroke-width="0.8863" stroke-miterlimit="10" d="M421.654,209.08h-3.545
	c-1.772,0-3.545,1.771-3.545,3.544c0,1.771,1.772,3.545,3.545,3.545h3.545V209.08z"/>
<path fill="none" stroke="#6B6868" stroke-width="0.8863" stroke-miterlimit="10" d="M421.654,187.807h-3.545
	c-1.772,0-3.545,1.773-3.545,3.546c0,1.771,1.772,3.545,3.545,3.545h3.545V187.807z"/>
<path fill="#FFFFFF" d="M434.949,182.623v38.731c0,1.053-0.238,1.906-0.531,1.906h-12.232c-0.293,0-0.531-0.854-0.531-1.906v-38.731
	c0-1.053,0.238-1.906,0.531-1.906h12.232C434.71,180.717,434.949,181.57,434.949,182.623"/>
<path fill="none" stroke="#010101" stroke-width="0.67" stroke-miterlimit="10" d="M434.949,182.623v38.731
	c0,1.053-0.238,1.906-0.531,1.906h-12.232c-0.293,0-0.531-0.854-0.531-1.906v-38.731c0-1.053,0.238-1.906,0.531-1.906h12.232
	C434.71,180.717,434.949,181.57,434.949,182.623z"/>
<path fill="none" stroke="#6B6868" stroke-width="0.8863" stroke-miterlimit="10" d="M434.949,239.657h3.546
	c1.772,0,3.545-1.773,3.545-3.545c0-1.773-1.772-3.547-3.545-3.547h-3.546V239.657z"/>
<path fill="none" stroke="#6B6868" stroke-width="0.8863" stroke-miterlimit="10" d="M434.949,260.929h3.546
	c1.772,0,3.545-1.771,3.545-3.545s-1.772-3.545-3.545-3.545h-3.546V260.929z"/>
<path fill="none" stroke="#6B6868" stroke-width="0.8863" stroke-miterlimit="10" d="M421.654,253.839h-3.545
	c-1.772,0-3.545,1.771-3.545,3.545s1.772,3.545,3.545,3.545h3.545V253.839z"/>
<path fill="none" stroke="#6B6868" stroke-width="0.8863" stroke-miterlimit="10" d="M421.654,232.565h-3.545
	c-1.772,0-3.545,1.773-3.545,3.547c0,1.771,1.772,3.545,3.545,3.545h3.545V232.565z"/>
<path fill="#FFFFFF" d="M434.949,227.382v38.732c0,1.051-0.238,1.904-0.531,1.904h-12.232c-0.293,0-0.531-0.854-0.531-1.904v-38.732
	c0-1.053,0.238-1.906,0.531-1.906h12.232C434.71,225.476,434.949,226.329,434.949,227.382"/>
<path fill="none" stroke="#010101" stroke-width="0.67" stroke-miterlimit="10" d="M434.949,227.382v38.732
	c0,1.051-0.238,1.904-0.531,1.904h-12.232c-0.293,0-0.531-0.854-0.531-1.904v-38.732c0-1.053,0.238-1.906,0.531-1.906h12.232
	C434.71,225.476,434.949,226.329,434.949,227.382z"/>
<path fill="none" stroke="#6B6868" stroke-width="0.8863" stroke-miterlimit="10" d="M434.949,283.087h3.546
	c1.772,0,3.545-1.773,3.545-3.545c0-1.773-1.772-3.545-3.545-3.545h-3.546V283.087z"/>
<path fill="none" stroke="#6B6868" stroke-width="0.8863" stroke-miterlimit="10" d="M434.949,304.358h3.546
	c1.772,0,3.545-1.771,3.545-3.545c0-1.771-1.772-3.545-3.545-3.545h-3.546V304.358z"/>
<path fill="none" stroke="#6B6868" stroke-width="0.8863" stroke-miterlimit="10" d="M421.654,297.269h-3.545
	c-1.772,0-3.545,1.773-3.545,3.545c0,1.773,1.772,3.545,3.545,3.545h3.545V297.269z"/>
<path fill="none" stroke="#6B6868" stroke-width="0.8863" stroke-miterlimit="10" d="M421.654,275.997h-3.545
	c-1.772,0-3.545,1.771-3.545,3.545c0,1.771,1.772,3.545,3.545,3.545h3.545V275.997z"/>
<path fill="#FFFFFF" d="M434.949,270.812v38.732c0,1.053-0.238,1.906-0.531,1.906h-12.232c-0.293,0-0.531-0.854-0.531-1.906v-38.732
	c0-1.053,0.238-1.904,0.531-1.904h12.232C434.71,268.907,434.949,269.759,434.949,270.812"/>
<path fill="none" stroke="#010101" stroke-width="0.67" stroke-miterlimit="10" d="M434.949,270.812v38.732
	c0,1.053-0.238,1.906-0.531,1.906h-12.232c-0.293,0-0.531-0.854-0.531-1.906v-38.732c0-1.053,0.238-1.904,0.531-1.904h12.232
	C434.71,268.907,434.949,269.759,434.949,270.812z"/>
<path fill="none" stroke="#6B6868" stroke-width="0.8863" stroke-miterlimit="10" d="M478.949,109.124h3.546
	c1.772,0,3.545-1.772,3.545-3.545c0-1.773-1.772-3.545-3.545-3.545h-3.546V109.124z"/>
<path fill="none" stroke="#6B6868" stroke-width="0.8863" stroke-miterlimit="10" d="M478.949,130.396h3.546
	c1.772,0,3.545-1.772,3.545-3.545c0-1.773-1.772-3.545-3.545-3.545h-3.546V130.396z"/>
<path fill="none" stroke="#6B6868" stroke-width="0.8863" stroke-miterlimit="10" d="M465.654,123.305h-3.545
	c-1.772,0-3.545,1.772-3.545,3.545c0,1.773,1.772,3.545,3.545,3.545h3.545V123.305z"/>
<path fill="none" stroke="#6B6868" stroke-width="0.8863" stroke-miterlimit="10" d="M465.654,102.033h-3.545
	c-1.772,0-3.545,1.772-3.545,3.545c0,1.773,1.772,3.545,3.545,3.545h3.545V102.033z"/>
<path fill="#FFFFFF" d="M478.949,96.848v38.732c0,1.052-0.238,1.906-0.531,1.906h-12.232c-0.293,0-0.531-0.854-0.531-1.906V96.848
	c0-1.052,0.238-1.906,0.531-1.906h12.232C478.71,94.942,478.949,95.796,478.949,96.848"/>
<path fill="none" stroke="#010101" stroke-width="0.67" stroke-miterlimit="10" d="M478.949,96.848v38.732
	c0,1.052-0.238,1.906-0.531,1.906h-12.232c-0.293,0-0.531-0.854-0.531-1.906V96.848c0-1.052,0.238-1.906,0.531-1.906h12.232
	C478.71,94.942,478.949,95.796,478.949,96.848z"/>
<path fill="none" stroke="#6B6868" stroke-width="0.8863" stroke-miterlimit="10" d="M479.392,151.667h3.545
	c1.773,0,3.545-1.772,3.545-3.545s-1.771-3.546-3.545-3.546h-3.545V151.667z"/>
<path fill="none" stroke="#6B6868" stroke-width="0.8863" stroke-miterlimit="10" d="M479.392,172.939h3.545
	c1.773,0,3.545-1.773,3.545-3.545c0-1.773-1.771-3.546-3.545-3.546h-3.545V172.939z"/>
<path fill="none" stroke="#6B6868" stroke-width="0.8863" stroke-miterlimit="10" d="M466.097,165.849h-3.546
	c-1.772,0-3.545,1.772-3.545,3.546c0,1.771,1.772,3.545,3.545,3.545h3.546V165.849z"/>
<path fill="none" stroke="#6B6868" stroke-width="0.8863" stroke-miterlimit="10" d="M466.097,144.576h-3.546
	c-1.772,0-3.545,1.773-3.545,3.546s1.772,3.545,3.545,3.545h3.546V144.576z"/>
<path fill="#FFFFFF" d="M479.392,139.391v38.733c0,1.053-0.238,1.906-0.531,1.906h-12.232c-0.293,0-0.531-0.854-0.531-1.906v-38.733
	c0-1.052,0.238-1.905,0.531-1.905h12.232C479.154,137.486,479.392,138.339,479.392,139.391"/>
<path fill="none" stroke="#010101" stroke-width="0.67" stroke-miterlimit="10" d="M479.392,139.391v38.733
	c0,1.053-0.238,1.906-0.531,1.906h-12.232c-0.293,0-0.531-0.854-0.531-1.906v-38.733c0-1.052,0.238-1.905,0.531-1.905h12.232
	C479.154,137.486,479.392,138.339,479.392,139.391z"/>
<path fill="none" stroke="#6B6868" stroke-width="0.8863" stroke-miterlimit="10" d="M478.949,195.541h3.546
	c1.772,0,3.545-1.773,3.545-3.545c0-1.773-1.772-3.546-3.545-3.546h-3.546V195.541z"/>
<path fill="none" stroke="#6B6868" stroke-width="0.8863" stroke-miterlimit="10" d="M478.949,216.812h3.546
	c1.772,0,3.545-1.773,3.545-3.545c0-1.773-1.772-3.544-3.545-3.544h-3.546V216.812z"/>
<path fill="none" stroke="#6B6868" stroke-width="0.8863" stroke-miterlimit="10" d="M465.654,209.722h-3.545
	c-1.772,0-3.545,1.771-3.545,3.544c0,1.771,1.772,3.545,3.545,3.545h3.545V209.722z"/>
<path fill="none" stroke="#6B6868" stroke-width="0.8863" stroke-miterlimit="10" d="M465.654,188.449h-3.545
	c-1.772,0-3.545,1.773-3.545,3.546c0,1.771,1.772,3.545,3.545,3.545h3.545V188.449z"/>
<path fill="#FFFFFF" d="M478.949,183.266v38.731c0,1.053-0.238,1.906-0.531,1.906h-12.232c-0.293,0-0.531-0.854-0.531-1.906v-38.731
	c0-1.053,0.238-1.906,0.531-1.906h12.232C478.71,181.359,478.949,182.213,478.949,183.266"/>
<path fill="none" stroke="#010101" stroke-width="0.67" stroke-miterlimit="10" d="M478.949,183.266v38.731
	c0,1.053-0.238,1.906-0.531,1.906h-12.232c-0.293,0-0.531-0.854-0.531-1.906v-38.731c0-1.053,0.238-1.906,0.531-1.906h12.232
	C478.71,181.359,478.949,182.213,478.949,183.266z"/>
<path fill="none" stroke="#6B6868" stroke-width="0.8863" stroke-miterlimit="10" d="M478.949,240.3h3.546
	c1.772,0,3.545-1.773,3.545-3.545c0-1.773-1.772-3.547-3.545-3.547h-3.546V240.3z"/>
<path fill="none" stroke="#6B6868" stroke-width="0.8863" stroke-miterlimit="10" d="M478.949,261.571h3.546
	c1.772,0,3.545-1.771,3.545-3.545s-1.772-3.545-3.545-3.545h-3.546V261.571z"/>
<path fill="none" stroke="#6B6868" stroke-width="0.8863" stroke-miterlimit="10" d="M465.654,254.481h-3.545
	c-1.772,0-3.545,1.771-3.545,3.545s1.772,3.545,3.545,3.545h3.545V254.481z"/>
<path fill="none" stroke="#6B6868" stroke-width="0.8863" stroke-miterlimit="10" d="M465.654,233.208h-3.545
	c-1.772,0-3.545,1.773-3.545,3.547c0,1.771,1.772,3.545,3.545,3.545h3.545V233.208z"/>
<path fill="#FFFFFF" d="M478.949,228.024v38.732c0,1.051-0.238,1.904-0.531,1.904h-12.232c-0.293,0-0.531-0.854-0.531-1.904v-38.732
	c0-1.053,0.238-1.906,0.531-1.906h12.232C478.71,226.118,478.949,226.972,478.949,228.024"/>
<path fill="none" stroke="#010101" stroke-width="0.67" stroke-miterlimit="10" d="M478.949,228.024v38.732
	c0,1.051-0.238,1.904-0.531,1.904h-12.232c-0.293,0-0.531-0.854-0.531-1.904v-38.732c0-1.053,0.238-1.906,0.531-1.906h12.232
	C478.71,226.118,478.949,226.972,478.949,228.024z"/>
<path fill="none" stroke="#6B6868" stroke-width="0.8863" stroke-miterlimit="10" d="M478.949,283.729h3.546
	c1.772,0,3.545-1.773,3.545-3.545c0-1.773-1.772-3.545-3.545-3.545h-3.546V283.729z"/>
<path fill="none" stroke="#6B6868" stroke-width="0.8863" stroke-miterlimit="10" d="M478.949,305.001h3.546
	c1.772,0,3.545-1.771,3.545-3.545c0-1.771-1.772-3.545-3.545-3.545h-3.546V305.001z"/>
<path fill="none" stroke="#6B6868" stroke-width="0.8863" stroke-miterlimit="10" d="M465.654,297.911h-3.545
	c-1.772,0-3.545,1.773-3.545,3.545c0,1.773,1.772,3.545,3.545,3.545h3.545V297.911z"/>
<path fill="none" stroke="#6B6868" stroke-width="0.8863" stroke-miterlimit="10" d="M465.654,276.64h-3.545
	c-1.772,0-3.545,1.771-3.545,3.545c0,1.771,1.772,3.545,3.545,3.545h3.545V276.64z"/>
<path fill="#FFFFFF" d="M478.949,271.454v38.732c0,1.053-0.238,1.906-0.531,1.906h-12.232c-0.293,0-0.531-0.854-0.531-1.906v-38.732
	c0-1.053,0.238-1.904,0.531-1.904h12.232C478.71,269.55,478.949,270.401,478.949,271.454"/>
<path fill="none" stroke="#010101" stroke-width="0.67" stroke-miterlimit="10" d="M478.949,271.454v38.732
	c0,1.053-0.238,1.906-0.531,1.906h-12.232c-0.293,0-0.531-0.854-0.531-1.906v-38.732c0-1.053,0.238-1.904,0.531-1.904h12.232
	C478.71,269.55,478.949,270.401,478.949,271.454z"/>
<path fill="none" stroke="#6B6868" stroke-width="0.8863" stroke-miterlimit="10" d="M528.949,108.066h3.546
	c1.772,0,3.545-1.772,3.545-3.545c0-1.773-1.772-3.545-3.545-3.545h-3.546V108.066z"/>
<path fill="none" stroke="#6B6868" stroke-width="0.8863" stroke-miterlimit="10" d="M528.949,129.338h3.546
	c1.772,0,3.545-1.772,3.545-3.545c0-1.773-1.772-3.545-3.545-3.545h-3.546V129.338z"/>
<path fill="none" stroke="#6B6868" stroke-width="0.8863" stroke-miterlimit="10" d="M515.654,122.248h-3.545
	c-1.772,0-3.545,1.772-3.545,3.545c0,1.773,1.772,3.545,3.545,3.545h3.545V122.248z"/>
<path fill="none" stroke="#6B6868" stroke-width="0.8863" stroke-miterlimit="10" d="M515.654,100.976h-3.545
	c-1.772,0-3.545,1.772-3.545,3.545c0,1.773,1.772,3.545,3.545,3.545h3.545V100.976z"/>
<path fill="#FFFFFF" d="M528.949,95.791v38.732c0,1.052-0.238,1.906-0.531,1.906h-12.232c-0.293,0-0.531-0.854-0.531-1.906V95.791
	c0-1.052,0.238-1.906,0.531-1.906h12.232C528.71,93.885,528.949,94.739,528.949,95.791"/>
<path fill="none" stroke="#010101" stroke-width="0.67" stroke-miterlimit="10" d="M528.949,95.791v38.732
	c0,1.052-0.238,1.906-0.531,1.906h-12.232c-0.293,0-0.531-0.854-0.531-1.906V95.791c0-1.052,0.238-1.906,0.531-1.906h12.232
	C528.71,93.885,528.949,94.739,528.949,95.791z"/>
<path fill="none" stroke="#6B6868" stroke-width="0.8863" stroke-miterlimit="10" d="M529.392,150.609h3.545
	c1.773,0,3.545-1.772,3.545-3.545s-1.771-3.546-3.545-3.546h-3.545V150.609z"/>
<path fill="none" stroke="#6B6868" stroke-width="0.8863" stroke-miterlimit="10" d="M529.392,171.882h3.545
	c1.773,0,3.545-1.773,3.545-3.545c0-1.773-1.771-3.546-3.545-3.546h-3.545V171.882z"/>
<path fill="none" stroke="#6B6868" stroke-width="0.8863" stroke-miterlimit="10" d="M516.097,164.791h-3.546
	c-1.772,0-3.545,1.772-3.545,3.546c0,1.771,1.772,3.545,3.545,3.545h3.546V164.791z"/>
<path fill="none" stroke="#6B6868" stroke-width="0.8863" stroke-miterlimit="10" d="M516.097,143.519h-3.546
	c-1.772,0-3.545,1.773-3.545,3.546s1.772,3.545,3.545,3.545h3.546V143.519z"/>
<path fill="#FFFFFF" d="M529.392,138.333v38.733c0,1.053-0.238,1.906-0.531,1.906h-12.232c-0.293,0-0.531-0.854-0.531-1.906v-38.733
	c0-1.052,0.238-1.905,0.531-1.905h12.232C529.154,136.429,529.392,137.282,529.392,138.333"/>
<path fill="none" stroke="#010101" stroke-width="0.67" stroke-miterlimit="10" d="M529.392,138.333v38.733
	c0,1.053-0.238,1.906-0.531,1.906h-12.232c-0.293,0-0.531-0.854-0.531-1.906v-38.733c0-1.052,0.238-1.905,0.531-1.905h12.232
	C529.154,136.429,529.392,137.282,529.392,138.333z"/>
<path fill="none" stroke="#6B6868" stroke-width="0.8863" stroke-miterlimit="10" d="M528.949,194.483h3.546
	c1.772,0,3.545-1.773,3.545-3.545c0-1.773-1.772-3.546-3.545-3.546h-3.546V194.483z"/>
<path fill="none" stroke="#6B6868" stroke-width="0.8863" stroke-miterlimit="10" d="M528.949,215.754h3.546
	c1.772,0,3.545-1.773,3.545-3.545c0-1.773-1.772-3.544-3.545-3.544h-3.546V215.754z"/>
<path fill="none" stroke="#6B6868" stroke-width="0.8863" stroke-miterlimit="10" d="M515.654,208.665h-3.545
	c-1.772,0-3.545,1.771-3.545,3.544c0,1.771,1.772,3.545,3.545,3.545h3.545V208.665z"/>
<path fill="none" stroke="#6B6868" stroke-width="0.8863" stroke-miterlimit="10" d="M515.654,187.392h-3.545
	c-1.772,0-3.545,1.773-3.545,3.546c0,1.771,1.772,3.545,3.545,3.545h3.545V187.392z"/>
<path fill="#FFFFFF" d="M528.949,182.208v38.731c0,1.053-0.238,1.906-0.531,1.906h-12.232c-0.293,0-0.531-0.854-0.531-1.906v-38.731
	c0-1.053,0.238-1.906,0.531-1.906h12.232C528.71,180.302,528.949,181.155,528.949,182.208"/>
<path fill="none" stroke="#010101" stroke-width="0.67" stroke-miterlimit="10" d="M528.949,182.208v38.731
	c0,1.053-0.238,1.906-0.531,1.906h-12.232c-0.293,0-0.531-0.854-0.531-1.906v-38.731c0-1.053,0.238-1.906,0.531-1.906h12.232
	C528.71,180.302,528.949,181.155,528.949,182.208z"/>
<path fill="none" stroke="#6B6868" stroke-width="0.8863" stroke-miterlimit="10" d="M528.949,239.242h3.546
	c1.772,0,3.545-1.773,3.545-3.545c0-1.773-1.772-3.547-3.545-3.547h-3.546V239.242z"/>
<path fill="none" stroke="#6B6868" stroke-width="0.8863" stroke-miterlimit="10" d="M528.949,260.514h3.546
	c1.772,0,3.545-1.771,3.545-3.545s-1.772-3.545-3.545-3.545h-3.546V260.514z"/>
<path fill="none" stroke="#6B6868" stroke-width="0.8863" stroke-miterlimit="10" d="M515.654,253.424h-3.545
	c-1.772,0-3.545,1.771-3.545,3.545s1.772,3.545,3.545,3.545h3.545V253.424z"/>
<path fill="none" stroke="#6B6868" stroke-width="0.8863" stroke-miterlimit="10" d="M515.654,232.15h-3.545
	c-1.772,0-3.545,1.773-3.545,3.547c0,1.771,1.772,3.545,3.545,3.545h3.545V232.15z"/>
<path fill="#FFFFFF" d="M528.949,226.967v38.732c0,1.051-0.238,1.904-0.531,1.904h-12.232c-0.293,0-0.531-0.854-0.531-1.904v-38.732
	c0-1.053,0.238-1.906,0.531-1.906h12.232C528.71,225.061,528.949,225.914,528.949,226.967"/>
<path fill="none" stroke="#010101" stroke-width="0.67" stroke-miterlimit="10" d="M528.949,226.967v38.732
	c0,1.051-0.238,1.904-0.531,1.904h-12.232c-0.293,0-0.531-0.854-0.531-1.904v-38.732c0-1.053,0.238-1.906,0.531-1.906h12.232
	C528.71,225.061,528.949,225.914,528.949,226.967z"/>
<path fill="none" stroke="#6B6868" stroke-width="0.8863" stroke-miterlimit="10" d="M528.949,282.672h3.546
	c1.772,0,3.545-1.773,3.545-3.545c0-1.773-1.772-3.545-3.545-3.545h-3.546V282.672z"/>
<path fill="none" stroke="#6B6868" stroke-width="0.8863" stroke-miterlimit="10" d="M528.949,303.943h3.546
	c1.772,0,3.545-1.771,3.545-3.545c0-1.771-1.772-3.545-3.545-3.545h-3.546V303.943z"/>
<path fill="none" stroke="#6B6868" stroke-width="0.8863" stroke-miterlimit="10" d="M515.654,296.854h-3.545
	c-1.772,0-3.545,1.773-3.545,3.545c0,1.773,1.772,3.545,3.545,3.545h3.545V296.854z"/>
<path fill="none" stroke="#6B6868" stroke-width="0.8863" stroke-miterlimit="10" d="M515.654,275.582h-3.545
	c-1.772,0-3.545,1.771-3.545,3.545c0,1.771,1.772,3.545,3.545,3.545h3.545V275.582z"/>
<path fill="#FFFFFF" d="M528.949,270.396v38.732c0,1.053-0.238,1.906-0.531,1.906h-12.232c-0.293,0-0.531-0.854-0.531-1.906v-38.732
	c0-1.053,0.238-1.904,0.531-1.904h12.232C528.71,268.492,528.949,269.344,528.949,270.396"/>
<path fill="none" stroke="#010101" stroke-width="0.67" stroke-miterlimit="10" d="M528.949,270.396v38.732
	c0,1.053-0.238,1.906-0.531,1.906h-12.232c-0.293,0-0.531-0.854-0.531-1.906v-38.732c0-1.053,0.238-1.904,0.531-1.904h12.232
	C528.71,268.492,528.949,269.344,528.949,270.396z"/>
<path fill="none" stroke="#6B6868" stroke-width="0.8863" stroke-miterlimit="10" d="M578.949,108.18h3.546
	c1.772,0,3.545-1.772,3.545-3.545c0-1.773-1.772-3.545-3.545-3.545h-3.546V108.18z"/>
<path fill="none" stroke="#6B6868" stroke-width="0.8863" stroke-miterlimit="10" d="M578.949,129.452h3.546
	c1.772,0,3.545-1.772,3.545-3.545c0-1.773-1.772-3.545-3.545-3.545h-3.546V129.452z"/>
<path fill="none" stroke="#6B6868" stroke-width="0.8863" stroke-miterlimit="10" d="M565.654,122.362h-3.545
	c-1.772,0-3.545,1.772-3.545,3.545c0,1.773,1.772,3.545,3.545,3.545h3.545V122.362z"/>
<path fill="none" stroke="#6B6868" stroke-width="0.8863" stroke-miterlimit="10" d="M565.654,101.09h-3.545
	c-1.772,0-3.545,1.772-3.545,3.545c0,1.773,1.772,3.545,3.545,3.545h3.545V101.09z"/>
<path fill="#FFFFFF" d="M578.949,95.905v38.732c0,1.052-0.238,1.906-0.531,1.906h-12.232c-0.293,0-0.531-0.854-0.531-1.906V95.905
	c0-1.052,0.238-1.906,0.531-1.906h12.232C578.71,93.999,578.949,94.853,578.949,95.905"/>
<path fill="none" stroke="#010101" stroke-width="0.67" stroke-miterlimit="10" d="M578.949,95.905v38.732
	c0,1.052-0.238,1.906-0.531,1.906h-12.232c-0.293,0-0.531-0.854-0.531-1.906V95.905c0-1.052,0.238-1.906,0.531-1.906h12.232
	C578.71,93.999,578.949,94.853,578.949,95.905z"/>
<path fill="none" stroke="#6B6868" stroke-width="0.8863" stroke-miterlimit="10" d="M579.392,150.724h3.545
	c1.773,0,3.545-1.772,3.545-3.545s-1.771-3.546-3.545-3.546h-3.545V150.724z"/>
<path fill="none" stroke="#6B6868" stroke-width="0.8863" stroke-miterlimit="10" d="M579.392,171.996h3.545
	c1.773,0,3.545-1.773,3.545-3.545c0-1.773-1.771-3.546-3.545-3.546h-3.545V171.996z"/>
<path fill="none" stroke="#6B6868" stroke-width="0.8863" stroke-miterlimit="10" d="M566.097,164.905h-3.546
	c-1.772,0-3.545,1.772-3.545,3.546c0,1.771,1.772,3.545,3.545,3.545h3.546V164.905z"/>
<path fill="none" stroke="#6B6868" stroke-width="0.8863" stroke-miterlimit="10" d="M566.097,143.633h-3.546
	c-1.772,0-3.545,1.773-3.545,3.546s1.772,3.545,3.545,3.545h3.546V143.633z"/>
<path fill="#FFFFFF" d="M579.392,138.448v38.733c0,1.053-0.238,1.906-0.531,1.906h-12.232c-0.293,0-0.531-0.854-0.531-1.906v-38.733
	c0-1.052,0.238-1.905,0.531-1.905h12.232C579.154,136.543,579.392,137.396,579.392,138.448"/>
<path fill="none" stroke="#010101" stroke-width="0.67" stroke-miterlimit="10" d="M579.392,138.448v38.733
	c0,1.053-0.238,1.906-0.531,1.906h-12.232c-0.293,0-0.531-0.854-0.531-1.906v-38.733c0-1.052,0.238-1.905,0.531-1.905h12.232
	C579.154,136.543,579.392,137.396,579.392,138.448z"/>
<path fill="none" stroke="#6B6868" stroke-width="0.8863" stroke-miterlimit="10" d="M578.949,194.597h3.546
	c1.772,0,3.545-1.773,3.545-3.545c0-1.773-1.772-3.546-3.545-3.546h-3.546V194.597z"/>
<path fill="none" stroke="#6B6868" stroke-width="0.8863" stroke-miterlimit="10" d="M578.949,215.868h3.546
	c1.772,0,3.545-1.773,3.545-3.545c0-1.773-1.772-3.544-3.545-3.544h-3.546V215.868z"/>
<path fill="none" stroke="#6B6868" stroke-width="0.8863" stroke-miterlimit="10" d="M565.654,208.779h-3.545
	c-1.772,0-3.545,1.771-3.545,3.544c0,1.771,1.772,3.545,3.545,3.545h3.545V208.779z"/>
<path fill="none" stroke="#6B6868" stroke-width="0.8863" stroke-miterlimit="10" d="M565.654,187.506h-3.545
	c-1.772,0-3.545,1.773-3.545,3.546c0,1.771,1.772,3.545,3.545,3.545h3.545V187.506z"/>
<path fill="#FFFFFF" d="M578.949,182.322v38.731c0,1.053-0.238,1.906-0.531,1.906h-12.232c-0.293,0-0.531-0.854-0.531-1.906v-38.731
	c0-1.053,0.238-1.906,0.531-1.906h12.232C578.71,180.416,578.949,181.27,578.949,182.322"/>
<path fill="none" stroke="#010101" stroke-width="0.67" stroke-miterlimit="10" d="M578.949,182.322v38.731
	c0,1.053-0.238,1.906-0.531,1.906h-12.232c-0.293,0-0.531-0.854-0.531-1.906v-38.731c0-1.053,0.238-1.906,0.531-1.906h12.232
	C578.71,180.416,578.949,181.27,578.949,182.322z"/>
<path fill="none" stroke="#6B6868" stroke-width="0.8863" stroke-miterlimit="10" d="M578.949,239.356h3.546
	c1.772,0,3.545-1.773,3.545-3.545c0-1.773-1.772-3.547-3.545-3.547h-3.546V239.356z"/>
<path fill="none" stroke="#6B6868" stroke-width="0.8863" stroke-miterlimit="10" d="M578.949,260.628h3.546
	c1.772,0,3.545-1.771,3.545-3.545s-1.772-3.545-3.545-3.545h-3.546V260.628z"/>
<path fill="none" stroke="#6B6868" stroke-width="0.8863" stroke-miterlimit="10" d="M565.654,253.538h-3.545
	c-1.772,0-3.545,1.771-3.545,3.545s1.772,3.545,3.545,3.545h3.545V253.538z"/>
<path fill="none" stroke="#6B6868" stroke-width="0.8863" stroke-miterlimit="10" d="M565.654,232.265h-3.545
	c-1.772,0-3.545,1.773-3.545,3.547c0,1.771,1.772,3.545,3.545,3.545h3.545V232.265z"/>
<path fill="#FFFFFF" d="M578.949,227.081v38.732c0,1.051-0.238,1.904-0.531,1.904h-12.232c-0.293,0-0.531-0.854-0.531-1.904v-38.732
	c0-1.053,0.238-1.906,0.531-1.906h12.232C578.71,225.175,578.949,226.028,578.949,227.081"/>
<path fill="none" stroke="#010101" stroke-width="0.67" stroke-miterlimit="10" d="M578.949,227.081v38.732
	c0,1.051-0.238,1.904-0.531,1.904h-12.232c-0.293,0-0.531-0.854-0.531-1.904v-38.732c0-1.053,0.238-1.906,0.531-1.906h12.232
	C578.71,225.175,578.949,226.028,578.949,227.081z"/>
<path fill="none" stroke="#6B6868" stroke-width="0.8863" stroke-miterlimit="10" d="M578.949,282.786h3.546
	c1.772,0,3.545-1.773,3.545-3.545c0-1.773-1.772-3.545-3.545-3.545h-3.546V282.786z"/>
<path fill="none" stroke="#6B6868" stroke-width="0.8863" stroke-miterlimit="10" d="M578.949,304.058h3.546
	c1.772,0,3.545-1.771,3.545-3.545c0-1.771-1.772-3.545-3.545-3.545h-3.546V304.058z"/>
<path fill="none" stroke="#6B6868" stroke-width="0.8863" stroke-miterlimit="10" d="M565.654,296.968h-3.545
	c-1.772,0-3.545,1.773-3.545,3.545c0,1.773,1.772,3.545,3.545,3.545h3.545V296.968z"/>
<path fill="none" stroke="#6B6868" stroke-width="0.8863" stroke-miterlimit="10" d="M565.654,275.696h-3.545
	c-1.772,0-3.545,1.771-3.545,3.545c0,1.771,1.772,3.545,3.545,3.545h3.545V275.696z"/>
<path fill="#FFFFFF" d="M578.949,270.511v38.732c0,1.053-0.238,1.906-0.531,1.906h-12.232c-0.293,0-0.531-0.854-0.531-1.906v-38.732
	c0-1.053,0.238-1.904,0.531-1.904h12.232C578.71,268.606,578.949,269.458,578.949,270.511"/>
<path fill="none" stroke="#010101" stroke-width="0.67" stroke-miterlimit="10" d="M578.949,270.511v38.732
	c0,1.053-0.238,1.906-0.531,1.906h-12.232c-0.293,0-0.531-0.854-0.531-1.906v-38.732c0-1.053,0.238-1.904,0.531-1.904h12.232
	C578.71,268.606,578.949,269.458,578.949,270.511z"/>
<line fill="none" stroke="#010101" stroke-width="0.8863" stroke-linecap="round" stroke-miterlimit="10" x1="37.827" y1="61.312" x2="613.138" y2="61.312"/>
<line fill="none" stroke="#010101" stroke-width="0.8863" stroke-linecap="round" stroke-miterlimit="10" x1="613.138" y1="61.312" x2="613.138" y2="348.562"/>
<line fill="none" stroke="#010101" stroke-width="0.8863" stroke-linecap="round" stroke-miterlimit="10" x1="613.138" y1="348.562" x2="37.827" y2="348.562"/>
<line fill="none" stroke="#010101" stroke-width="0.8863" stroke-linecap="round" stroke-miterlimit="10" x1="37.827" y1="348.562" x2="37.827" y2="61.312"/>
<rect x="10.827" y="97.165" fill="none" width="27" height="223"/>
<text transform="matrix(4.489659e-11 -1 1 4.489659e-11 27.8667 280.4004)" font-family="'MyriadPro-Regular'" font-size="24">Memorial Way</text>
<rect x="462.552" y="405.201" fill="none" width="187.84" height="27"/>
<text transform="matrix(1 0 0 1 469.0288 422.2402)" font-family="'MyriadPro-Regular'" font-size="24">To Alumni Center</text>
<g>
	<g>
		<line fill="none" stroke="#010101" stroke-width="2" stroke-miterlimit="10" x1="597.426" y1="393.307" x2="519.699" y2="359.5"/>
		<g>
			<path fill="#010101" d="M608.495,398.121c-4.368-4.198-9.396-10.306-11.883-15.541l-0.639,10.095l-6.947,7.349
				C594.55,398.273,602.447,397.786,608.495,398.121z"/>
		</g>
	</g>
</g>
</svg>
